<?xml version="1.0" encoding="utf-8"?>
<!-- Generator: Adobe Illustrator 23.0.6, SVG Export Plug-In . SVG Version: 6.00 Build 0)  -->
<svg version="1.1" xmlns="http://www.w3.org/2000/svg" xmlns:xlink="http://www.w3.org/1999/xlink" x="0px" y="0px"
	 viewBox="0 0 2829 4609" style="enable-background:new 0 0 2829 4609;" xml:space="preserve">
<style type="text/css">
	.st0{fill:#C9BFAD;stroke:#999999;}
	.st1{opacity:0.44;fill:#CCCCCC;}
	.st2{opacity:0.44;fill:#EEE1C6;}
	.st3{opacity:0.41;fill:#F2E9D4;}
	.st4{display:none;}
	.st5{display:inline;}
	.st6{font-family:'Kelson-Bold';}
	.st7{font-size:36px;}
	.st8{font-family:'Camber-Lg';}
	.st9{display:inline;opacity:0.44;fill:#CCCCCC;}
	.st10{display:inline;opacity:0.44;fill:#EEE1C6;}
	.st11{fill:#EF3E42;}
	.st12{fill:#F58220;}
	.st13{fill:#FFE600;}
	.st14{fill:#009D57;}
	.st15{fill:#006BB6;}
	.st16{fill:#9D3D96;}
	.st17{fill:#754C24;}
	.st18{font-size:24px;}
	.st19{fill:#8C6239;stroke:#000000;stroke-width:4;}
	.st20{fill:#FFFFFF;}
	.st21{fill:#998675;stroke:#000000;stroke-width:4;}
	.st22{display:inline;opacity:0.4;fill:#F7931E;}
	.st23{opacity:0.62;fill:#F2E9D4;stroke:#999999;}
	.st24{opacity:0.41;fill:#EEE1C6;stroke:#B3B3B3;}
	.st25{opacity:0.7;fill:#F2E9D4;stroke:#808080;}
	.st26{fill:none;stroke:#006BB6;stroke-width:10;}
	.st27{fill:none;stroke:#006BB6;stroke-width:10;stroke-dasharray:5,1.5;}
	.st28{opacity:0.67;}
	.st29{fill:none;stroke:#29ABE2;stroke-width:10;}
	.st30{fill:none;stroke:#29ABE2;stroke-width:10;stroke-dasharray:5,1.5;}
	.st31{fill:none;stroke:#006BB6;stroke-width:14;}
	.st32{opacity:0.67;fill:none;stroke:#29ABE2;stroke-width:10;}
	.st33{fill:none;stroke:#F58220;stroke-width:12;}
	.st34{fill:none;stroke:#F58220;stroke-width:12;stroke-dasharray:5,1.5;}
	.st35{opacity:0.65;}
	.st36{fill:none;stroke:#FCEE21;stroke-width:7;}
	.st37{fill:none;stroke:#FCEE21;stroke-width:7;stroke-dasharray:5,1.5;}
	.st38{fill:none;stroke:#FFE600;stroke-width:10;}
	.st39{fill:none;stroke:#FCEE21;stroke-width:10;}
	.st40{fill:none;stroke:#009D57;stroke-width:10;}
	.st41{fill:none;stroke:#009D57;stroke-width:10;stroke-dasharray:5,1.5;}
	.st42{fill:none;stroke:#8CC63F;stroke-width:8;}
	.st43{fill:none;stroke:#8CC63F;stroke-width:8;stroke-dasharray:5,1.5;}
	.st44{fill:none;stroke:#9D3D96;stroke-width:11;}
	.st45{opacity:0.68;fill:none;stroke:#D67FD4;stroke-width:11;}
	.st46{fill:none;stroke:#B0720D;stroke-width:10;}
	.st47{opacity:0.67;fill:none;stroke:#C69C6D;stroke-width:10;}
	.st48{fill:none;stroke:#EF3E42;stroke-width:10;}
	.st49{opacity:0.55;}
	.st50{fill:none;stroke:#D4145A;stroke-width:12;}
</style>
<g id="Layer_22">
</g>
<g id="Layer_20">
	<rect x="0.5" y="0.5" class="st0" width="2829" height="4608"/>
	<path class="st1" d="M2411.41,3468h-895.82c-32.36,0-58.59-26.23-58.59-58.59v-465.82c0-32.36,26.23-58.59,58.59-58.59h895.82
		c32.36,0,58.59,26.23,58.59,58.59v465.82C2470,3441.77,2443.77,3468,2411.41,3468z"/>
	<path class="st2" d="M2370.69,3386h-815.37c-27.23,0-49.31-22.08-49.31-49.31v-312.37c0-27.23,22.08-49.31,49.31-49.31h815.37
		c27.23,0,49.31,22.08,49.31,49.31v312.37C2420,3363.92,2397.92,3386,2370.69,3386z"/>
	<path class="st3" d="M680.89,2306.31h-78.06c-12.04,0-21.8,9.76-21.8,21.8v31.26c0,12.04-9.76,21.8-21.8,21.8l-96.09,0.02
		c-12.04,0-21.8,9.76-21.8,21.8v87.17c0,12.04,9.76,21.8,21.8,21.8h39.02c12.04,0,21.8,9.76,21.8,21.8v9.89
		c0,12.04-9.76,21.8-21.8,21.8H413.8c-12.04,0-21.8,9.76-21.8,21.8v176.92c0,12.04,9.76,21.8,21.8,21.8h284.89
		c11.89,0,21.59-9.53,21.8-21.43l4-231.01c0.21-12.19-9.61-22.18-21.8-22.18h0c-12.04,0-21.8-9.76-21.8-21.8v-14.65
		c0-12.04,9.76-21.8,21.8-21.8h29.51c12.04,0,21.8-9.76,21.8-21.8v-102.8c0-11.97-9.65-21.71-21.63-21.8L680.89,2306.31z"/>
</g>
<g id="Layer_36" class="st4">
	<text transform="matrix(1 0 0 1 881.1573 3095.835)" class="st5 st6 st7">Approach</text>
	<text transform="matrix(1 -1.849256e-03 1.849256e-03 1 360.2998 3625.0066)" class="st5 st6 st7">Iterations</text>
	<text transform="matrix(1 3.975754e-04 -3.975754e-04 1 56.186 3824.7021)" class="st5"><tspan x="0" y="0" class="st8 st7">Input more streets &amp; localized information</tspan><tspan x="0" y="43.2" class="st8 st7">while reducing visual clutter</tspan></text>
	<text transform="matrix(1 -1.013157e-04 1.013157e-04 1 116.1593 3252.8748)" class="st5"><tspan x="0" y="0" class="st8 st7">Reduce visual overload to necessary information through abstraction, while curating entho-centric cultural </tspan><tspan x="0" y="43.2" class="st8 st7">institutions in New York</tspan></text>
	<text transform="matrix(1 3.975754e-04 -3.975754e-04 1 56.186 3952.7019)" class="st5 st8 st7">Curate more ethno-centric cultural institutions</text>
	<text transform="matrix(1 3.975754e-04 -3.975754e-04 1 56.186 4054.7019)" class="st5"><tspan x="0" y="0" class="st8 st7">Animate train lines</tspan><tspan x="0" y="86.4" class="st8 st7">Interactive layers if technically feasible</tspan></text>
</g>
<g id="Layer_37" class="st4">
	<path class="st9" d="M854.1,4264.06l-895.82-0.36c-32.36-0.01-58.58-26.25-58.57-58.61l0.27-667.82
		c0.01-32.36,26.25-58.58,58.61-58.57l895.82,0.36c32.36,0.01,58.58,26.25,58.57,58.61l-0.27,667.82
		C912.7,4237.86,886.45,4264.08,854.1,4264.06z"/>
	<path class="st9" d="M1951.25,3345.89H-7.57c-32.36,0-58.59-26.23-58.59-58.59v-279.82c0-32.36,26.23-58.59,58.59-58.59h1958.82
		c32.36,0,58.59,26.23,58.59,58.59v279.82C2009.84,3319.65,1983.61,3345.89,1951.25,3345.89z"/>
	<path class="st10" d="M1843.53,3289.89H33.16c-27.23,0-49.31-22.08-49.31-49.31V3098.2c0-27.23,22.08-49.31,49.31-49.31h1810.37
		c27.23,0,49.31,22.08,49.31,49.31v142.37C1892.84,3267.81,1870.76,3289.89,1843.53,3289.89z"/>
	<path class="st10" d="M814.53,4186.89H-0.84c-27.23,0-49.31-22.08-49.31-49.31V3636.2c0-27.23,22.08-49.31,49.31-49.31h815.37
		c27.23,0,49.31,22.08,49.31,49.31v501.37C863.84,4164.81,841.76,4186.89,814.53,4186.89z"/>
</g>
<g id="KEY">
	<path class="st11" d="M1591.47,3069h-20.95c-5.26,0-9.53-4.27-9.53-9.53v-20.95c0-5.26,4.27-9.53,9.53-9.53h20.95
		c5.26,0,9.53,4.27,9.53,9.53v20.95C1601,3064.73,1596.73,3069,1591.47,3069z"/>
	<path class="st12" d="M1793.47,3067h-20.95c-5.26,0-9.53-4.27-9.53-9.53v-20.95c0-5.26,4.27-9.53,9.53-9.53h20.95
		c5.26,0,9.53,4.27,9.53,9.53v20.95C1803,3062.73,1798.73,3067,1793.47,3067z"/>
	<path class="st13" d="M2012.47,3064h-20.95c-5.26,0-9.53-4.27-9.53-9.53v-20.95c0-5.26,4.27-9.53,9.53-9.53h20.95
		c5.26,0,9.53,4.27,9.53,9.53v20.95C2022,3059.73,2017.73,3064,2012.47,3064z"/>
	<path class="st14" d="M1593.47,3143h-20.95c-5.26,0-9.53-4.27-9.53-9.53v-20.95c0-5.26,4.27-9.53,9.53-9.53h20.95
		c5.26,0,9.53,4.27,9.53,9.53v20.95C1603,3138.73,1598.73,3143,1593.47,3143z"/>
	<path class="st15" d="M1793.47,3141h-20.95c-5.26,0-9.53-4.27-9.53-9.53v-20.95c0-5.26,4.27-9.53,9.53-9.53h20.95
		c5.26,0,9.53,4.27,9.53,9.53v20.95C1803,3136.73,1798.73,3141,1793.47,3141z"/>
	<path class="st16" d="M2029.47,3141h-20.95c-5.26,0-9.53-4.27-9.53-9.53v-20.95c0-5.26,4.27-9.53,9.53-9.53h20.95
		c5.26,0,9.53,4.27,9.53,9.53v20.95C2039,3136.73,2034.73,3141,2029.47,3141z"/>
	<path class="st17" d="M2256.47,3065h-20.95c-5.26,0-9.53-4.27-9.53-9.53v-20.95c0-5.26,4.27-9.53,9.53-9.53h20.95
		c5.26,0,9.53,4.27,9.53,9.53v20.95C2266,3060.73,2261.73,3065,2256.47,3065z"/>
	<g id="Layer_27">
		<text transform="matrix(1 0 0 1 1818.7136 3054.417)" class="st8 st18">BDFM - Trains</text>
		<text transform="matrix(1 0 0 1 2043.7136 3052.417)" class="st8 st18">NQRW - Trains</text>
		<text transform="matrix(1 0 0 1 1619.7136 3130.417)" class="st8 st18">456 - Trains</text>
		<text transform="matrix(1 0 0 1 1819.7136 3128.417)" class="st8 st18">ACE - Trains</text>
		<text transform="matrix(1 0 0 1 2060.7136 3128.417)" class="st8 st18">7 - Trains</text>
		<text transform="matrix(1 0 0 1 2286.7136 3052.417)" class="st8 st18">JZ - Trains</text>
		<text transform="matrix(1 0 0 1 1617.3958 3056.917)" class="st8 st18">123 - Trains</text>
	</g>
	<circle class="st19" cx="1779.63" cy="3257.41" r="24.5"/>
	<circle class="st20" cx="1779.34" cy="3257.41" r="15.5"/>
	<circle class="st21" cx="2064.65" cy="3256.58" r="24.5"/>
	<circle class="st20" cx="2064.36" cy="3256.58" r="15.5"/>
	<circle cx="1577.65" cy="3257.58" r="24.5"/>
	<circle class="st20" cx="1577.36" cy="3257.58" r="15.5"/>
</g>
<g id="Layer_8">
	<g id="Layer_1">
		<g id="Layer_9" class="st4">
			<rect x="1399" y="378" class="st22" width="1628" height="1702"/>
		</g>
		<path class="st23" d="M767.96,1098.45l35.63-0.06c26.58-0.05,48.18,24.16,48.23,54.08l0.35,99.5
			c0.05,29.91,21.65,54.13,48.23,54.08l246.12-0.45c26.44-0.05,47.97,23.91,48.23,53.66l3.38,484.96
			c0.26,29.75,21.79,53.71,48.23,53.66h0c26.58-0.05,48.18,24.16,48.23,54.08l0.39,217.33c0.05,29.91-21.45,54.2-48.04,54.25
			l-467.74,0.85c-26.39,0.05-47.91-23.83-48.23-53.53l-11.05-1017.61C719.6,1123.12,741.19,1098.5,767.96,1098.45z"/>
		<g id="Layer_7">
			<path class="st24" d="M737.01,812.65l2.66,156.97c0.35,20.8,19.35,37.5,42.66,37.5h110.83c23.56,0,42.66,17.05,42.66,38.07
				v152.73c0,21.03,19.1,38.07,42.66,38.07h194.88c23.56,0,42.66-17.05,42.66-38.07v0c0-20.53,18.23-37.36,41.22-38.05l151.07-4.57
				c22.99-0.7,41.22-17.53,41.22-38.05v-113.73c0-21.03,19.1-38.07,42.66-38.07h38.16c23.56,0,42.66-17.05,42.66-38.07V812.07
				c0-21.03-19.1-38.07-42.66-38.07H779.66C755.85,774,736.64,791.4,737.01,812.65z"/>
			<path class="st25" d="M1308.88,1655.92l104.62,2.58c16,0,25.4,9.87,25.54,20.93l4.64,350.09c0.15,11.09-7.56,20.19-17.23,20.34
				l-37.93,0.6c-9.69,0.15-17.41,9.29-17.23,20.4l2.19,137.95c0.18,11.03,8.05,19.88,17.67,19.85l56.78-0.17
				c9.62-0.03,17.5,8.82,17.67,19.85l2.13,134.42c0.18,11.11,8.18,20,17.87,19.85l297.92-4.73c9.69-0.15,17.69,8.73,17.87,19.85
				l0.39,24.58c0.18,11.11,8.18,20,17.87,19.85l62.61-1.84c9.84-0.16,17.61-9.56,17.22-20.84l-2.34-67.29
				c-0.39-11.28,7.38-20.68,17.22-20.84l39.74-0.74c9.69-0.15,17.41-9.29,17.23-20.4l-5.61-502.5c-0.18-11.04,7.44-20.14,17.06-20.4
				l126.84-1.97c9.75-0.26,17.86,8.65,18.03,19.84l0.82,51.5c0.18,11.11-7.54,20.25-17.23,20.4l-8.73,0.43
				c-9.63,0.15-8.59,8.75-8.5,19.8l0.92,123.22c0.09,11.05-1.6,20.08-11.23,20.23l-18.61,0.3c-9.65,0.15-17.35,9.21-17.23,20.28
				l1.6,152.04c0.11,10.63,7.42,19.37,16.68,19.94l10.19,0.63c10.09,0.63,18.53-8.62,18.43-20.21l-0.91-103.66
				c-0.1-11.05,7.59-20.09,17.23-20.24l34.15-0.54c9.6-0.15,17.28-9.12,17.23-20.13l-0.88-219.65
				c-0.04-11.01,7.63-19.98,17.23-20.13l116.6-1.85c9.55-0.15,17.2-9.03,17.23-19.98l5.95-353.7c0.03-11.28-8.03-20.43-17.87-20.27
				l-45.68,0.73c-9.71,0.15-17.72-8.76-17.87-19.9l-5.55-408.73c-0.15-11.14-8.16-20.05-17.87-19.9l-94.98,1.51
				c-9.45,0.15-17.06,8.85-17.23,19.68l-0.92,60.22c-0.17,10.83-7.78,19.53-17.23,19.68l-36.7,0.58c-9.59,0.15-17.26,9.1-17.23,20.1
				l0.31,82.97c0.03,11-7.64,19.95-17.23,20.1c0,0-635.54,1.15-690.02,3.87c-40,2-47.89,42.65-47.78,53.72l3.64,345.52
				c0.03,2.76,1.34,5.49,3.14,8.03C1287.77,1650.6,1298.06,1655.68,1308.88,1655.92z"/>
			<g>
				<path d="M467.75,1660.2l7.98,21.84l7.92-21.84h11.34v45.72h-9.9v-27.54l-5.58,15h-8.28l-5.58-15.06v27.6h-9.9v-45.72H467.75z"/>
				<path d="M524.21,1695.24h-11.4l-2.46,10.68h-11.16l13.38-45.72h12.36l13.32,45.72h-11.58L524.21,1695.24z M514.91,1686.12h7.2
					l-3.6-15.54L514.91,1686.12z"/>
				<path d="M553.01,1660.2l12.66,27.36v-27.36h9.96v45.72h-10.44l-12.72-26.4v26.4h-10.02v-45.72H553.01z"/>
				<path d="M616.19,1705.92h-10.32v-18.72h-12.66v18.72h-10.38v-45.72h10.38v17.7h12.66v-17.7h10.32V1705.92z"/>
				<path d="M645.41,1695.24h-11.4l-2.46,10.68h-11.16l13.38-45.72h12.36l13.32,45.72h-11.58L645.41,1695.24z M636.11,1686.12h7.2
					l-3.6-15.54L636.11,1686.12z"/>
				<path d="M667.85,1705.92v-36.42h-10.62v-9.3h31.68v9.3h-10.68v36.42H667.85z"/>
				<path d="M703.73,1705.92v-36.42h-10.62v-9.3h31.68v9.3h-10.68v36.42H703.73z"/>
				<path d="M747.59,1695.24h-11.4l-2.46,10.68h-11.16l13.38-45.72h12.36l13.32,45.72h-11.58L747.59,1695.24z M738.29,1686.12h7.2
					l-3.6-15.54L738.29,1686.12z"/>
				<path d="M776.39,1660.2l12.66,27.36v-27.36h9.96v45.72h-10.44l-12.72-26.4v26.4h-10.02v-45.72H776.39z"/>
			</g>
			<g>
				<path d="M783.55,2538.74c0-8.58,5.16-13.26,14.82-13.26c9.42,0,15.3,3.6,16.08,13.8h-10.32c-0.42-3.42-1.92-4.8-5.82-4.8
					c-3.36,0-4.56,1.56-4.56,3.9c0,3,1.68,4.44,6.42,5.52c6.9,1.68,15.18,3.72,15.18,14.64c0,8.58-4.38,14.1-16.56,14.1
					c-12.06,0-16.08-6.66-16.08-13.98h10.32c0.12,3,1.62,4.98,6.24,4.98c3.9,0,5.64-1.62,5.64-4.8c0-3.3-1.98-4.68-8.4-6.18
					C790.09,2550.98,783.55,2549.06,783.55,2538.74z"/>
				<path d="M828.19,2571.92v-36.42h-10.62v-9.3h31.68v9.3h-10.68v36.42H828.19z"/>
				<path d="M872.05,2561.24h-11.4l-2.46,10.68h-11.16l13.38-45.72h12.36l13.32,45.72h-11.58L872.05,2561.24z M862.75,2552.12h7.2
					l-3.6-15.54L862.75,2552.12z"/>
				<path d="M894.49,2571.92v-36.42h-10.62v-9.3h31.68v9.3h-10.68v36.42H894.49z"/>
				<path d="M931.69,2544.26h14.34v9.12h-14.34v9.24h17.46v9.3h-27.9v-45.72h27.3v9.3h-16.86V2544.26z"/>
				<path d="M966.07,2526.2l12.66,27.36v-27.36h9.96v45.72h-10.44l-12.72-26.4v26.4h-10.02v-45.72H966.07z"/>
				<path d="M1021.33,2571.92h-10.44v-45.72h10.44V2571.92z"/>
				<path d="M1027.33,2538.74c0-8.58,5.16-13.26,14.82-13.26c9.42,0,15.3,3.6,16.08,13.8h-10.32c-0.42-3.42-1.92-4.8-5.82-4.8
					c-3.36,0-4.56,1.56-4.56,3.9c0,3,1.68,4.44,6.42,5.52c6.9,1.68,15.18,3.72,15.18,14.64c0,8.58-4.38,14.1-16.56,14.1
					c-12.06,0-16.08-6.66-16.08-13.98h10.32c0.12,3,1.62,4.98,6.24,4.98c3.9,0,5.64-1.62,5.64-4.8c0-3.3-1.98-4.68-8.4-6.18
					C1033.87,2550.98,1027.33,2549.06,1027.33,2538.74z"/>
				<path d="M1090.51,2571.92h-26.46v-45.72h10.44v36.3h16.02V2571.92z"/>
				<path d="M1118.53,2561.24h-11.4l-2.46,10.68h-11.16l13.38-45.72h12.36l13.32,45.72h-11.58L1118.53,2561.24z M1109.23,2552.12
					h7.2l-3.6-15.54L1109.23,2552.12z"/>
				<path d="M1147.33,2526.2l12.66,27.36v-27.36h9.96v45.72h-10.44l-12.72-26.4v26.4h-10.02v-45.72H1147.33z"/>
				<path d="M1208.95,2543.24v11.82c0,11.1-5.46,16.86-17.46,16.86h-14.34v-45.72h14.28
					C1203.55,2526.2,1208.95,2531.96,1208.95,2543.24z M1187.29,2535.56v27.06h4.26c4.56,0,6.48-2.04,6.48-7.02v-13.02
					c0-4.98-1.92-7.02-6.42-7.02H1187.29z"/>
			</g>
			<g>
				<path d="M645.87,743.92V707.5h-10.62v-9.3h31.68v9.3h-10.68v36.42H645.87z"/>
				<path d="M705.99,743.92h-10.32V725.2h-12.66v18.72h-10.38V698.2h10.38v17.7h12.66v-17.7h10.32V743.92z"/>
				<path d="M723.63,716.26h14.34v9.12h-14.34v9.24h17.46v9.3h-27.9V698.2h27.3v9.3h-16.86V716.26z"/>
				<path d="M794.61,730.48c0,10.2-5.04,13.44-16.38,13.44h-15.78V698.2h13.92c10.98,0,15.78,2.94,15.9,12.3v0.48
					c0,3.9-1.32,6.72-3.42,8.4c3,1.5,5.76,4.98,5.76,10.44V730.48z M772.59,706.54v10.14h4.62c3.72,0,5.04-1.14,5.04-4.98v-0.36
					c0-3.9-1.74-4.8-5.46-4.8H772.59z M784.11,729.94c0-3.84-1.68-4.92-5.4-4.92h-6.12v10.5h6.36c3.84,0,5.16-1.2,5.16-5.1V729.94z"
					/>
				<path d="M815.43,727.3h-4.98v16.62h-10.2V698.2h14.52c11.04,0,16.02,4.56,16.02,14.22v0.9c0,5.88-1.74,9.6-5.64,11.76
					l7.68,18.84h-11.76L815.43,727.3z M810.45,718.24h4.62c4.32,0,5.52-1.32,5.52-5.28v-0.36c0-4.14-1.5-5.34-5.7-5.34h-4.44V718.24
					z"/>
				<path d="M870.33,713.98v14.22c0,10.68-5.46,16.44-16.8,16.44c-11.28,0-16.8-5.76-16.8-16.44v-14.22c0-10.74,5.52-16.5,16.8-16.5
					C864.87,697.48,870.33,703.24,870.33,713.98z M847.65,728.68c0,4.56,1.92,6.6,5.88,6.6s5.88-2.04,5.88-6.6v-15.24
					c0-4.5-1.92-6.6-5.88-6.6s-5.88,2.1-5.88,6.6V728.68z"/>
				<path d="M887.73,698.2l12.66,27.36V698.2h9.96v45.72h-10.44l-12.72-26.4v26.4h-10.02V698.2H887.73z"/>
				<path d="M939.87,743.92l-7.02-16.5l-6.42,16.5h-11.64l12-23.52l-11.22-22.2h11.76l6.54,15.3l6.06-15.3h11.7l-11.64,22.62
					l11.64,23.1H939.87z"/>
			</g>
			<g>
				<path d="M1764.99,1175.98v14.22c0,6.54-2.1,11.22-6.24,13.92l6.06,11.58h-11.82l-3.42-9.12c-0.48,0.06-0.9,0.06-1.38,0.06
					c-11.28,0-16.8-5.76-16.8-16.44v-14.22c0-10.74,5.52-16.5,16.8-16.5C1759.53,1159.48,1764.99,1165.24,1764.99,1175.98z
					 M1742.31,1190.68c0,4.56,1.92,6.6,5.88,6.6c3.96,0,5.88-2.04,5.88-6.6v-15.24c0-4.5-1.92-6.6-5.88-6.6
					c-3.96,0-5.88,2.1-5.88,6.6V1190.68z"/>
				<path d="M1771.53,1189.6v-29.4h10.32v29.94c0,4.92,1.56,7.2,6.3,7.2c4.74,0,6.3-2.28,6.3-7.2v-29.94h10.32v29.4
					c0,10.98-5.04,17.04-16.62,17.04C1776.57,1206.64,1771.53,1200.58,1771.53,1189.6z"/>
				<path d="M1822.11,1178.26h14.34v9.12h-14.34v9.24h17.46v9.3h-27.9v-45.72h27.3v9.3h-16.86V1178.26z"/>
				<path d="M1856.37,1178.26h14.34v9.12h-14.34v9.24h17.46v9.3h-27.9v-45.72h27.3v9.3h-16.86V1178.26z"/>
				<path d="M1890.75,1160.2l12.66,27.36v-27.36h9.96v45.72h-10.44l-12.72-26.4v26.4h-10.02v-45.72H1890.75z"/>
				<path d="M1919.37,1172.74c0-8.58,5.16-13.26,14.82-13.26c9.42,0,15.3,3.6,16.08,13.8h-10.32c-0.42-3.42-1.92-4.8-5.82-4.8
					c-3.36,0-4.56,1.56-4.56,3.9c0,3,1.68,4.44,6.42,5.52c6.9,1.68,15.18,3.72,15.18,14.64c0,8.58-4.38,14.1-16.56,14.1
					c-12.06,0-16.08-6.66-16.08-13.98h10.32c0.12,3,1.62,4.98,6.24,4.98c3.9,0,5.64-1.62,5.64-4.8c0-3.3-1.98-4.68-8.4-6.18
					C1925.91,1184.98,1919.37,1183.06,1919.37,1172.74z"/>
			</g>
			<g>
				<path d="M1940.54,2927.07h2.3l4.9-10.58h7.24l-7.06,13.17l8.1,14.25h-7.56l-5.58-11.12h-2.34v11.12h-6.23v-27.43h6.23V2927.07z"
					/>
				<path d="M1974.85,2937.04c-0.18,4.71-2.7,7.31-8.49,7.31c-5.98,0-8.82-2.66-8.82-8.78v-5.51c0-5.18,2.88-8.42,8.82-8.42
					c5.79,0,8.67,2.63,8.67,8.46v4.72h-11.52v1.26c0,2.27,0.86,3.35,2.81,3.35c2.16,0,2.81-0.86,2.95-2.38H1974.85z
					 M1963.51,2930.46h5.8v-0.76c0-2.34-0.94-3.35-2.88-3.35c-2.05,0-2.92,0.97-2.92,3.49V2930.46z"/>
				<path d="M1983.02,2943.27l-6.41-21.2h6.73l3.35,14.97l2.56-14.97h6.73l-4.79,18.83c-2.05,8.03-5,10.33-10.01,10.33
					c-1.73,0-2.7-0.18-3.24-0.4v-5.79c0.4,0.14,1.12,0.25,1.76,0.25c1.48,0,2.92-0.4,3.28-1.84L1983.02,2943.27z"/>
			</g>
		</g>
	</g>
</g>
<g id="Layer_5">
	<g>
		<path class="st26" d="M874.71,1576.6c0-13.67,3.15-26.53,29.3-26.53h335.71c23.72-1.04,29.8,4.33,28.33-44.8
			c-1.15-38.55,72.46-10.76,88.67-18.75c12.67-6.25,0-28.13,10.36-39.59c9.14-10.1,156.85-6.16,177.34-6.25
			c38.15-0.17,9.17,31,55.17,29.91c44.33-1.05,170.35-0.74,198.18-0.74c28.79,0,132.82-1.04,148.55-1.04
			c16.12,0-4.61-20.88,21.88-21.88c55.28-2.08,46.06,4.17,46.19,22.85c0.1,14.65,18.57,12.97,31.38,13.21
			c21.46,0.41,36.43,1.45,36.43-12.1c0-10.42,0-20.51,0-28.13"/>
		<path class="st26" d="M1006.46,1894.03c-0.96-0.13-13.63,2.72-13.63-7.43c0-9.38-0.43-36.02-0.28-46.76
			c0.11-7.67,8.17-9.03,8.17-14.26"/>
		<path class="st26" d="M2077.53,1561.85c0,0-78.58,60.64-93.09,70.8c-14.51,10.16-24.51,29.09-35.39,48.36
			c-10.88,19.27-33.95,44.44-54.54,58.82c-13.12,9.16-25.64,16.34-55.78,15.81c-14.67-0.26-41.3,42.91-50.17,42.4
			c-19.03-1.11-119.76,1.04-137.04,2.08c-20.98,1.27-9.98-63.9-34.55-55.22c-56.36,19.92-131.28,65.64-152.01,81.27
			c-17.02,12.83-8.88,108.08-31.82,119.65c-8.07,4.07-15.85,5.77-24.41,5.86c-11.95,0.12-26.35-0.05-31.86-0.05
			c-12.12,0-17.01-8.6-17.28-15.94c-0.54-14.59,0.15-22.67-2.52-36.63c-3.25-16.99-33.66-20.66-56.3-13.36
			c-31.57,10.17-104.97,24.99-149.3,28.15c-44.33,3.15-107.02-4.88-126.6-20.16c-21.83-17.04-22.61-38.07-23.42-52.44
			c-0.81-14.37-2.3-69.28-2.3-74.5c0-27.47-13.17-28.68-43.38-36.99c-14.2-3.91-36.95-10.16-52.21-14.59
			c-14.91-4.33-30.67-8.91-30.26-37.64c0.4-28.74,4.61-481.07,4.61-492.63c0-11.56,3.2-50.55-7.16-57.84
			c-14.37-10.11-50.98,1.88-57.58-6.25c-10-12.32,9.21-63.56-20.73-62.51c-13.86,0.48-10.36-20.36-10.36-30.22
			c0-11.46-1.15-66.68-1.15-66.68"/>
		<path class="st26" d="M2044.59,1666.05c0.85,1.8,5.52,3.59,7.12,4.38c2.22,1.09,4.55,1.8,6.26,6.18c1.02,2.62,4.78,14.18,5.41,17
			c1.14,5.15-5.41,7.99-3.99,12.11"/>
		<path class="st26" d="M1992.4,1626.12c12.67-1.04,26.49-4.17,33.4,6.25c10.46,15.77,39.8,93.12,49.87,120.39
			c11.47,31.08,61.72,177.78,69.03,193.67"/>
		<path class="st27" d="M2136.4,2108.37c0,0,26.88-39.79,37.36-62.22c9.41-20.14-22.55-78.72-31.25-95.19"/>
	</g>
	<g id="Layer_6">
		<g class="st28">
			<path class="st29" d="M879.9,1572.95c0-13.67,3.15-26.53,29.3-26.53h335.71c23.72-1.04,29.8,4.33,28.33-44.8
				c-1.15-38.55,72.46-10.76,88.67-18.75c12.67-6.25,0-28.13,10.36-39.59c9.14-10.1,156.85-6.16,177.34-6.25
				c38.15-0.17,9.17,31,55.17,29.91c44.33-1.05,170.35-0.74,198.18-0.74c28.79,0,132.82-1.04,148.55-1.04
				c16.12,0-4.61-20.88,21.88-21.88c55.28-2.08,46.06,4.17,46.19,22.85c0.1,14.65,18.57,12.97,31.38,13.21
				c21.46,0.41,36.43,1.45,36.43-12.1c0-10.42,0-20.51,0-28.13"/>
			<path class="st29" d="M1011.64,1890.38c-0.96-0.13-13.63,2.72-13.63-7.43c0-9.38-0.43-36.02-0.28-46.76
				c0.11-7.67,8.17-9.03,8.17-14.26"/>
			<path class="st29" d="M2082.72,1558.21c0,0-78.58,60.64-93.09,70.8c-14.51,10.16-24.51,29.09-35.39,48.36
				c-10.88,19.27-33.95,44.44-54.54,58.82c-13.12,9.16-25.64,16.34-55.78,15.81c-14.67-0.26-41.3,42.91-50.17,42.4
				c-19.03-1.11-119.76,1.04-137.04,2.08c-20.98,1.27-9.98-63.9-34.55-55.22c-56.36,19.92-131.28,65.64-152.01,81.27
				c-17.02,12.83-8.88,108.08-31.82,119.65c-8.07,4.07-15.85,5.77-24.41,5.86c-11.95,0.12-26.35-0.05-31.86-0.05
				c-12.12,0-17.01-8.6-17.28-15.94c-0.54-14.59,0.15-22.67-2.52-36.63c-3.25-16.99-33.66-20.66-56.3-13.36
				c-31.57,10.17-104.97,24.99-149.3,28.15c-44.33,3.15-107.02-4.88-126.6-20.16c-21.83-17.04-22.61-38.07-23.42-52.44
				c-0.81-14.37-2.3-69.28-2.3-74.5c0-27.47-13.17-28.68-43.38-36.99c-14.2-3.91-36.95-10.16-52.21-14.59
				c-14.91-4.33-30.67-8.91-30.26-37.64c0.4-28.74,4.61-481.07,4.61-492.63c0-11.56,3.2-50.55-7.16-57.84
				c-14.37-10.11-50.98,1.88-57.58-6.25c-10-12.32,9.21-63.56-20.73-62.51c-13.86,0.48-10.36-20.36-10.36-30.22
				c0-11.46-1.15-66.68-1.15-66.68"/>
			<path class="st29" d="M2049.77,1662.4c0.85,1.8,5.52,3.59,7.12,4.38c2.22,1.09,4.55,1.8,6.26,6.18c1.02,2.62,4.78,14.18,5.41,17
				c1.14,5.15-5.41,7.99-3.99,12.11"/>
			<path class="st29" d="M1997.58,1622.48c12.67-1.04,26.49-4.17,33.4,6.25c10.46,15.77,39.8,93.12,49.87,120.39
				c11.47,31.08,61.72,177.78,69.03,193.67"/>
			<path class="st30" d="M2141.58,2104.72c0,0,26.88-39.79,37.36-62.22c9.41-20.14-22.55-78.72-31.25-95.19"/>
		</g>
	</g>
	<g id="Layer_23">
		<path class="st31" d="M418.5,2746.5c0.77-16.41,41.6-8.48,60-15c18.4-6.52,6.1-78,12-84c5.89-6,68.28,5.19,76-2
			s-4.28-72.43,9.01-78.63c13.28-6.2,54.77,1.33,58.99-5.37c4.22-6.7,0.66-107.01,1-114c0.33-7,39.45-0.56,43-4
			c3.55-3.44,4-21.48,4-37c0-8-16.31-1.39-21-7c-2.53-3.03-0.32-32.87-1.08-37.54c-0.64-3.93-0.77-53.86-0.92-55.46"/>
		<path class="st32" d="M430.5,2746.5c0.77-16.41,41.6-8.48,60-15c18.4-6.52,6.1-78,12-84c5.89-6,68.28,5.19,76-2
			s-4.28-72.43,9.01-78.63c13.28-6.2,54.77,1.33,58.99-5.37c4.22-6.7,0.66-107.01,1-114c0.33-7,39.45-0.56,43-4
			c3.55-3.44,4-21.48,4-37c0-8-16.31-1.39-21-7c-2.53-3.03-0.32-32.87-1.08-37.54c-0.64-3.93-0.77-53.86-0.92-55.46"/>
	</g>
</g>
<g id="Layer_10">
	<g>
		<path class="st33" d="M1007.96,1552.93c0-17.87,0.09-35.58-22.07-35.58c-22.16,0-52.9-0.15-66.6,0
			c-25.08,0.28-26.87-7.61-26.87-29.52v-319c0-13.67-4.92-43.41,16.03-49.37c20.96-5.96,105.22-1.8,123.36-3.55
			c18.14-1.75,60.74-1.75,71.62-36.45c10.88-34.69,6.04-90.42,6.04-104.09V858.32c0-5.26,2.42-36.8,43.12-40.3"/>
		<path class="st33" d="M892.61,1165.53c-0.54-21.29,6.37-34.84,34.26-36.73c36.79-2.49,109.68-0.7,135.98-0.09
			c39.95,0.93,52.62-7.4,51.86-56.26c-0.58-37.2-5-182.44-5-213.7"/>
		<path class="st33" d="M1844.64,2272.58c1.46-12.59-6.63-24.09-12.43-28.74c-7.62-6.11-45.87-44.04-46.32-44.49
			c-1.37-1.29-137.21-129.32-144.29-137.02c-9.9-10.77-15.75-31.27-20.45-47.75c-1.45-5.07-2.81-9.86-4.2-14.08
			c-5.56-16.91-23.51-28.95-33.16-35.41c0,0-3.81-2.61-3.81-2.61c-10.82-7.32-20.18-13.31-31.04-20.26
			c-7.33-4.7-15.01-7.89-18.79-9.46c-10.08-4.17-42.75-17.32-53.4-21.75c-3.54-1.47-9.97-6.33-15.55-10.81
			c-3.55-2.85-14.28-11.56-26.95-19.38c-16.12-9.95-39.82-24.18-58.13-36.2c-33.05-21.71-73.34-22.27-90.03-19.54l0.14-0.02
			c0,0-48.17,6.52-78.07,10.04c-60.49,7.14-61.06-26.2-61.64-46.52c-0.65-22.97-14.97-38.55-38.38-38.2"/>
		<path class="st33" d="M1762.82,2333.76c-1.76-1.95-6.46-6.19-10.57-10c-9.07-8.41-32.77-29.03-41.84-34.29
			c-9.07-5.26-33.72-2.98-57.3-3.51c-23.57-0.53-36.61-14.48-42.66-23.95c-6.05-9.46-51.59-79.9-69.73-106.71
			c-18.14-26.81-56.42-24.74-72.18-24.94c-7.59-0.1-14.7-1.56-14.74-9.9c-0.04-8.38,2.1-171.65,2.1-197.46
			c0-16.96-2.98-37.86-10.18-45.72c-4.38-4.77-13.01-5.13-19.62-5.3c-2.1-0.05-8.97-1.54-11.56-3.23"/>
		<path class="st34" d="M886.85,1159.63c0-17.54-1-42.76,19.96-48.72c20.96-5.96,95.95-3.32,114.09-5.08
			c18.13-1.75,69.22,6.28,79.31-30.25c9.66-34.99,4.24-90.83,4.24-104.5c0-13.67-2.06-105.27,3.7-120.9"/>
		<path class="st33" d="M1780.42,2278.19c7.17,6.87,14.4,14.92,19.04,20.26c4.64,5.34,1.02,10.32-1.26,11.83
			c-9.28,6.1-33.73,23.65-33.73,23.65"/>
		<path class="st33" d="M2056.31,1302.61c0,48.33,3.45,103.15-6.91,110.44c-16.71,11.76-49.76,5.33-62.84,5.55
			c-15.22,0.26-98.38-1.38-108.74-1.38c-15.97,0-49.99,20.34-75.75,21.32c-11.54,0.44-167.42-0.49-193.38,0.13
			c-30.32,0.71-68.12-3.69-101.49-11.26c-16.29-3.69-41.65-2.9-72.74-0.82c-38.52,2.58-58.73-4.17-67.6,11.01
			c-5.8,9.92-5.33,13.65-11.86,19.2c-13.32,11.34-63.28,6.68-87.33,6.68c0,0-182.81-0.28-225.93-0.28
			c-18.81,0-33.9,16.49-33.78,30.87c0.02,2.84-0.13,194.82,0,207.51c0.38,36.47,18.43,48.62,47.6,48.97c0,0,74.08-0.33,97.61-0.33
			c23.37,0,24.46,15.96,31.37,29.5c7.37,14.46,12.09,31.83,59.94,31.83c20.15,0,59.24,1.23,59.24,1.23
			c28.8-0.23,48.76,10.89,56.62,30.34c1.95,4.83,6.27,11.73,8.43,21.49c3.51,15.88,2.39,29.83,3.69,43.91
			c0.63,6.82,0.4,12.54,0.78,16.76c0.4,4.49,0.39,8.87,0.31,13.09c-0.32,15.99,0.06,28.46,0.12,39.79
			c0.06,10.95,8.9,17.96,27.38,18.61c30.22,1.05,74.96,0.53,88.86,0.53c13.9,0,33.85,1.05,50.17,18.93
			c16.32,17.87,24.18,25.76,24.18,25.76c6.04,6.83,11.48,15.77,15.11,26.28c3.63,10.51,4.84,25.23,19.34,39.43
			c14.51,14.19,160.08,149.41,160.08,149.41s11.18,11.04,20.96,20.84"/>
		<path class="st33" d="M1790.56,1427.45c-14.08,0.98-156.52,0.96-182.13,1.57c-27.79,0.66-66.46-3.57-99.55-10.99l-5.42-3.56
			c-14.19-3.2-24.12-17.17-39.92-17.12c-22.16,0.07-72.64,0.13-84.01-0.09c-9-0.22-47.55-5.04-61.37,10.59
			c-20.16,22.8-3.66,56.85-11.4,70.87c-1.5,2.71,11.4,29.15-11.63,36.44c-26.73,8.47-113.41,4.45-123.22,4.17
			c-1.13-0.03-142.8-1.81-142.8-1.81c-7.4,0-21.18,1.91-21.18,22.15"/>
		<path class="st33" d="M1137.54,1762.52c5.44,4.46,13.7,13.53,21.66,14.37c3.78,0.4,8.06,0.21,16.31-0.11
			c12.29-0.48,24.99-2.05,33.7-6.79c20.27-11.02,2.75-42.85,15.66-46.45c14.97-4.17,155.46-2.08,155.46-2.08s44.64,0.34,61.03,0
			c50.67-1.04,159.86,0,176.19,0l0,0c32.24,4.17,26.52-39.1,27.64-55.22c1.15-16.67,2.3-69.81-1.15-126.07"/>
	</g>
	<g id="Layer_11" class="st35">
		<g class="st35">
			<path class="st36" d="M1002.1,1545.52c0-17.87,0.09-35.58-22.07-35.58c-22.16,0-52.9-0.15-66.6,0
				c-25.08,0.28-26.87-7.61-26.87-29.52v-319c0-13.67-4.92-43.41,16.03-49.37c20.96-5.96,105.22-1.8,123.36-3.55
				c18.14-1.75,60.74-1.75,71.62-36.45c10.88-34.69,6.04-90.42,6.04-104.09V850.92c0-5.26,2.42-36.8,43.12-40.3"/>
			<path class="st36" d="M886.75,1158.13c-0.54-21.29,6.37-34.84,34.26-36.73c36.79-2.49,109.68-0.7,135.98-0.09
				c39.95,0.93,52.62-7.4,51.86-56.26c-0.58-37.2-5-182.44-5-213.7"/>
			<path class="st36" d="M1838.78,2265.18c1.46-12.59-6.63-24.09-12.43-28.74c-7.62-6.11-45.87-44.04-46.32-44.49
				c-1.37-1.29-137.21-129.32-144.29-137.02c-9.9-10.77-15.75-31.27-20.45-47.75c-1.45-5.07-2.81-9.86-4.2-14.08
				c-5.56-16.91-23.51-28.95-33.16-35.41c0,0-3.81-2.61-3.81-2.61c-10.82-7.32-20.18-13.31-31.04-20.26
				c-7.33-4.7-15.01-7.89-18.79-9.46c-10.08-4.17-42.75-17.32-53.4-21.75c-3.54-1.47-9.97-6.33-15.55-10.81
				c-3.55-2.85-14.28-11.56-26.95-19.38c-16.12-9.95-39.82-24.18-58.13-36.2c-33.05-21.71-73.34-22.27-90.03-19.54l0.14-0.02
				c0,0-48.17,6.52-78.07,10.04c-60.49,7.14-61.06-26.2-61.64-46.52c-0.65-22.97-14.97-38.55-38.38-38.2"/>
			<path class="st36" d="M1756.96,2326.35c-1.76-1.95-6.46-6.19-10.57-10c-9.07-8.41-32.77-29.03-41.84-34.29
				c-9.07-5.26-33.72-2.98-57.3-3.51c-23.57-0.53-36.61-14.48-42.66-23.95c-6.05-9.46-51.59-79.9-69.73-106.71
				c-18.14-26.81-56.42-24.74-72.18-24.94c-7.59-0.1-14.7-1.56-14.74-9.9c-0.04-8.38,2.1-171.65,2.1-197.46
				c0-16.96-2.98-37.86-10.18-45.72c-4.38-4.77-13.01-5.13-19.62-5.3c-2.1-0.05-8.97-1.54-11.56-3.23"/>
			<path class="st37" d="M881,1152.22c0-17.54-1-42.76,19.96-48.72c20.96-5.96,95.95-3.32,114.09-5.08
				c18.13-1.75,69.22,6.28,79.31-30.25c9.66-34.99,4.24-90.83,4.24-104.5c0-13.67-2.06-105.27,3.7-120.9"/>
			<path class="st36" d="M1774.56,2270.79c7.17,6.87,14.4,14.92,19.04,20.26c4.64,5.34,1.02,10.32-1.26,11.83
				c-9.28,6.1-33.73,23.65-33.73,23.65"/>
			<path class="st36" d="M2050.45,1295.2c0,48.33,3.45,103.15-6.91,110.44c-16.71,11.76-49.76,5.33-62.84,5.55
				c-15.22,0.26-98.38-1.38-108.74-1.38c-15.97,0-49.99,20.34-75.75,21.32c-11.54,0.44-167.42-0.49-193.38,0.13
				c-30.32,0.71-68.12-3.69-101.49-11.26c-16.29-3.69-41.65-2.9-72.74-0.82c-38.52,2.58-58.73-4.17-67.6,11.01
				c-5.8,9.92-5.33,13.65-11.86,19.2c-13.32,11.34-63.28,6.68-87.33,6.68c0,0-182.81-0.28-225.93-0.28
				c-18.81,0-33.9,16.49-33.78,30.87c0.02,2.84-0.13,194.82,0,207.51c0.38,36.47,18.43,48.62,47.6,48.97c0,0,74.08-0.33,97.61-0.33
				c23.37,0,24.46,15.96,31.37,29.5c7.37,14.46,12.09,31.83,59.94,31.83c20.15,0,59.24,1.23,59.24,1.23
				c28.8-0.23,48.76,10.89,56.62,30.34c1.95,4.83,6.27,11.73,8.43,21.49c3.51,15.88,2.39,29.83,3.69,43.91
				c0.63,6.82,0.4,12.54,0.78,16.76c0.4,4.49,0.39,8.87,0.31,13.09c-0.32,15.99,0.06,28.46,0.12,39.79
				c0.06,10.95,8.9,17.96,27.38,18.61c30.22,1.05,74.96,0.53,88.86,0.53c13.9,0,33.85,1.05,50.17,18.93
				c16.32,17.87,24.18,25.76,24.18,25.76c6.04,6.83,11.48,15.77,15.11,26.28c3.63,10.51,4.84,25.23,19.34,39.43
				c14.51,14.19,160.08,149.41,160.08,149.41s11.18,11.04,20.96,20.84"/>
			<path class="st36" d="M1784.7,1420.04c-14.08,0.98-156.52,0.96-182.13,1.57c-27.79,0.66-66.46-3.57-99.55-10.99l-5.42-3.56
				c-14.19-3.2-24.12-17.17-39.92-17.12c-22.16,0.07-72.64,0.13-84.01-0.09c-9-0.22-47.55-5.04-61.37,10.59
				c-20.16,22.8-3.66,56.85-11.4,70.87c-1.5,2.71,11.4,29.15-11.63,36.44c-26.73,8.47-113.41,4.45-123.22,4.17
				c-1.13-0.03-142.8-1.81-142.8-1.81c-7.4,0-21.18,1.91-21.18,22.15"/>
			<path class="st36" d="M1131.68,1755.11c5.44,4.46,13.7,13.53,21.66,14.37c3.78,0.4,8.06,0.21,16.31-0.11
				c12.29-0.48,24.99-2.05,33.7-6.79c20.27-11.02,2.75-42.85,15.66-46.45c14.97-4.17,155.46-2.08,155.46-2.08s44.64,0.34,61.03,0
				c50.67-1.04,159.86,0,176.19,0l0,0c32.24,4.17,26.52-39.1,27.64-55.22c1.15-16.67,2.3-69.81-1.15-126.07"/>
		</g>
	</g>
</g>
<g id="Layer_13">
	<g id="Layer_16">
		<path class="st38" d="M1427.49,2230.5c0,9.81-4.03,29.09,31.03,29.09h149.11c12.09,0,34.46-1.58,52.79,14.37
			c17.12,14.89,58.81,50.65,68.06,59.47c1.53,1.46,3.01,2.85,4.45,4.19"/>
		<path class="st38" d="M1427.49,2230.5c0,9.81-4.03,29.09,31.03,29.09h149.11c12.09,0,34.46-1.58,52.79,14.37
			c17.12,14.89,58.81,50.65,68.06,59.47c1.53,1.46,3.01,2.85,4.45,4.19"/>
		<path class="st38" d="M1293.29,1349.47c0,0,2.82,131.4-4.83,153.13c-10.98,31.16-60.45,37.15-88.66,37.15H946.05
			c-10.36,0-17.15,5.81-17.15,16.47v34.52c0,16.47,5.95,25.99,16.67,39.21c18.71,23.09,46.54,22.76,73.8,41.86"/>
		<path class="st38" d="M1293.29,1349.47c0,0,2.82,131.4-4.83,153.13c-10.98,31.16-60.45,37.15-88.66,37.15H946.05
			c-10.36,0-17.15,5.81-17.15,16.47v34.52c0,16.47,4.7,26.9,16.67,39.21c25.33,26.05,40.76,32.94,73.8,41.86
			c37.91,10.24,39.06,7.11,39.15,56.26c0.04,21.19-0.26,56.27,0,72.59c0.36,21.91,0.53,46.87-0.62,81.25
			c-0.8,23.98-1.15,36.4-1.15,69.81c0,22.92-1.15,35.43-1.15,45.84c0,17.71-0.02,29.39,11.52,30.22
			c59.1,4.23,100.58,1.04,111.7,1.04c8.06,0-6.9-54.24,6.91-53.14c78.31,6.25,19.58-37.51,56.43-41.68
			c23.72-2.68,128.08,0.29,134.04-1.61c8.26-2.63,18.03-1.69,26.29,0.34"/>
		<path class="st38" d="M1419.42,1933.9c8.3,3.32,5.43,14.15,8.56,18.62c2.5,3.56,12.24,7.78,19.29,13.25
			c3.4,2.63,7.66,4.78,10.08,5.76c14.11,5.77,42.18,17.23,53.31,21.84c2.83,1.17,9.33,3.84,14.35,6.99
			c13.67,8.6,0.97,35.59,7.34,39.92c7.43,5.06,44.91-6.25,46.06,6.25c1.76,19.13,26.99,59.88,40.51,74.58
			c7.26,7.89,144.47,137.2,144.47,137.2s38.69,38.37,46.54,44.68c5.26,4.22,12.41,14.79,11.14,25.73"/>
		<path class="st38" d="M1189.18,1884"/>
		<path class="st38" d="M1055.59,1867.33c25.33,0,61.96-0.58,133.58,0c128.98,1.04,173.89-10.42,176.19,15.63
			c1.07,12.09,1.15,25.01,5.76,34.38c5.93,12.07,42.86,5.79,51.82,9.38c8.3,3.32,1.9,16.12,5.04,20.59
			c2.5,3.56,12.24,7.78,19.29,13.25c3.4,2.63,7.66,4.78,10.08,5.76c14.11,5.77,42.18,17.23,53.31,21.84
			c2.83,1.17,9.33,3.84,14.35,6.99c13.67,8.6,0.97,40.8,7.34,45.13c7.43,5.06,44.91-5.21,46.06,6.25
			c1.92,19.12,0.3,39.48,13.82,54.18c7.25,7.89,171.16,152.39,171.16,152.39s38.69,38.37,46.54,44.68
			c5.26,4.22,12.41,14.79,11.14,25.73"/>
		<path class="st38" d="M1402.22,1932.66c6.33,1.57,10.58,2.62,17.16,6.75c11.63,7.29,12.06,18.04,12.78,39.59
			c0.11,3.3-2.9,209.97-2.9,209.97l-0.04,0.01c-0.94,18.97-1.51,36.73-1.72,42.92c-0.66,19.56-3.22,47.81,5.24,75.17
			c9.02,29.15,15.99,47.12,15.99,47.12"/>
		<path class="st38" d="M1419.37,1939.41c11.63,7.29,12.06,18.04,12.78,39.59c0.11,3.3-2.9,209.97-2.9,209.97l-0.04,0.01
			c-0.94,18.97-1.51,36.73-1.72,42.92c-0.66,19.56-3.22,47.81,5.24,75.17c9.02,29.15,15.99,47.12,15.99,47.12"/>
		<path class="st38" d="M1545.54,1488.25c-28.28,0.67-36.85-5.21-56.06-19.94c-13.07-10.03-32.31-7.44-45.02-9.16
			c-5.82-0.79-18.6-2.47-23.96-3.19c-4.7-0.63-47.5-1.82-60.75-2.08c-9.09-0.18-12.77,9.43-13.82,16.15
			c-1.42,9.08-10.32,16.5-23.9,26.57c-10.94,8.12-14.31,30.15-36.13,44.61c-9.04,5.99-22.07-0.3-39.15,0
			c-19.14,0.34-36.68-1.45-57.14-1.45"/>
		<path class="st38" d="M1711.61,1474.44"/>
		<line class="st38" x1="1793.13" y1="1472.62" x2="1793.13" y2="1472.62"/>
		<path class="st38" d="M1798.89,1485.12h-21.88c-13.76,0.86-36.85,1.04-65.64,2.08c-45.66,1.65-95.18,0.63-120.92,1.04
			c-64.49,1.04-81.76,2.08-100.97-19.94c-10.62-12.17-32.31-7.44-45.02-9.16c-5.82-0.79-19.03-1.11-24.44-1.11
			c-4.61,0-47.02,0.27-60.27,0.01c-9.09-0.18-29.24-0.85-31.09,5.73c-3.07,10.93,3.84,31.77-7.68,44.27
			c-9.06,9.83-6.29,19.62-22.41,30.04c-7.04,4.55-33.58,3.64-51.82,3.13c-25.67-0.73-36.68-1.45-57.14-1.45"/>
		<path class="st38" d="M1746.27,2387.86c13.92-9.16,53.55-36.47,65.78-44.1c4.45-2.77,9.37-12.54,9.79-19.03"/>
		<path class="st38" d="M1746.27,2387.86c13.92-9.16,53.55-36.47,65.78-44.1c4.45-2.77,9.37-12.54,9.79-19.03"/>
		<path class="st38" d="M1727.96,2332.96c7.93,7.55,6.96,6.35,13.46,12.47c14.52,13.68-18.93,15.99,4.48,37.81"/>
		<path class="st38" d="M1727.96,2332.96c7.93,7.55,6.96,6.35,13.46,12.47c14.52,13.68-18.93,15.99,4.48,37.81"/>
		<path class="st38" d="M1398.46,1926.22"/>
		<path class="st38" d="M1428.79,2250.37c-0.35-1.7,0.2-9.46-0.45-12.07"/>
		<path class="st38" d="M1214.53,1540.88c-2.74-0.86-13.85-2.61-18.77-1.95"/>
		<path class="st38" d="M1423.36,1941.81c3.39,2.95,5.47,6.46,6.78,10.88"/>
		<path class="st38" d="M1105.36,1386.91v111.19l-0.01-0.05c0,6.85-7.74,12.9-14.26,12.9h0.05l-128.45-0.03
			c-18.81,0-33.9,16.49-33.78,30.87v17.78"/>
		<path class="st38" d="M1105.36,1386.91v111.19l-0.01-0.05c0,6.85-7.74,12.9-14.26,12.9h0.05l-128.45-0.03
			c-18.81,0-33.9,16.49-33.78,30.87v17.78"/>
		<line class="st38" x1="930.82" y1="1548.66" x2="930.82" y2="1544.27"/>
		<g id="Layer_17">
			<path class="st39" d="M1438.66,2230.68c0,9.81-4.03,29.09,31.03,29.09h149.11c12.09,0,34.46-1.58,52.79,14.37
				c17.12,14.89,58.81,50.65,68.06,59.47c1.53,1.46,3.01,2.85,4.45,4.19"/>
			<path class="st39" d="M1438.66,2230.68c0,9.81-4.03,29.09,31.03,29.09h149.11c12.09,0,34.46-1.58,52.79,14.37
				c17.12,14.89,58.81,50.65,68.06,59.47c1.53,1.46,3.01,2.85,4.45,4.19"/>
			<path class="st39" d="M1304.46,1349.65c0,0,2.82,131.4-4.83,153.13c-10.98,31.16-60.45,37.15-88.66,37.15H957.22
				c-10.36,0-17.15,5.81-17.15,16.47v34.52c0,16.47,5.95,25.99,16.67,39.21c18.71,23.09,46.54,22.76,73.8,41.86"/>
			<path class="st39" d="M1304.46,1349.65c0,0,2.82,131.4-4.83,153.13c-10.98,31.16-60.45,37.15-88.66,37.15H957.22
				c-10.36,0-17.15,5.81-17.15,16.47v34.52c0,16.47,4.7,26.9,16.67,39.21c25.33,26.05,40.76,32.94,73.8,41.86
				c37.91,10.24,39.06,7.11,39.15,56.26c0.04,21.19-0.26,56.27,0,72.59c0.36,21.91,0.53,46.87-0.62,81.25
				c-0.8,23.98-1.15,36.4-1.15,69.81c0,22.92-1.15,35.43-1.15,45.84c0,17.71-0.02,29.39,11.52,30.22
				c59.1,4.23,100.58,1.04,111.7,1.04c8.06,0-6.9-54.24,6.91-53.14c78.31,6.25,19.58-37.51,56.43-41.68
				c23.72-2.68,128.08,0.29,134.04-1.61c8.26-2.63,18.03-1.69,26.29,0.34"/>
			<path class="st39" d="M1430.59,1934.08c8.3,3.32,5.43,14.15,8.56,18.62c2.5,3.56,12.24,7.78,19.29,13.25
				c3.4,2.63,7.66,4.78,10.08,5.76c14.11,5.77,42.18,17.23,53.31,21.84c2.83,1.17,9.33,3.84,14.35,6.99
				c13.67,8.6,0.97,35.59,7.34,39.92c7.43,5.06,44.91-6.25,46.06,6.25c1.76,19.13,26.99,59.88,40.51,74.58
				c7.26,7.89,144.47,137.2,144.47,137.2s38.69,38.37,46.54,44.68c5.26,4.22,12.41,14.79,11.14,25.73"/>
			<path class="st39" d="M1200.34,1884.17"/>
			<path class="st39" d="M1066.76,1867.5c25.33,0,61.96-0.58,133.58,0c128.98,1.04,173.89-10.42,176.19,15.63
				c1.07,12.09,1.15,25.01,5.76,34.38c5.93,12.07,42.86,5.79,51.82,9.38c8.3,3.32,1.9,16.12,5.04,20.59
				c2.5,3.56,12.24,7.78,19.29,13.25c3.4,2.63,7.66,4.78,10.08,5.76c14.11,5.77,42.18,17.23,53.31,21.84
				c2.83,1.17,9.33,3.84,14.35,6.99c13.67,8.6,0.97,40.8,7.34,45.13c7.43,5.06,44.91-5.21,46.06,6.25
				c1.92,19.12,0.3,39.48,13.82,54.18c7.25,7.89,171.16,152.39,171.16,152.39s38.69,38.37,46.54,44.68
				c5.26,4.22,12.41,14.79,11.14,25.73"/>
			<path class="st39" d="M1413.38,1932.84c6.33,1.57,10.58,2.62,17.16,6.75c11.63,7.29,12.06,18.04,12.78,39.59
				c0.11,3.3-2.9,209.97-2.9,209.97l-0.04,0.01c-0.94,18.97-1.51,36.73-1.72,42.92c-0.66,19.56-3.22,47.81,5.24,75.17
				c9.02,29.15,15.99,47.12,15.99,47.12"/>
			<path class="st39" d="M1430.54,1939.58c11.63,7.29,12.06,18.04,12.78,39.59c0.11,3.3-2.9,209.97-2.9,209.97l-0.04,0.01
				c-0.94,18.97-1.51,36.73-1.72,42.92c-0.66,19.56-3.22,47.81,5.24,75.17c9.02,29.15,15.99,47.12,15.99,47.12"/>
			<path class="st39" d="M1556.71,1488.43c-28.28,0.67-36.85-5.21-56.06-19.94c-13.07-10.03-32.31-7.44-45.02-9.16
				c-5.82-0.79-18.6-2.47-23.96-3.19c-4.7-0.63-47.5-1.82-60.75-2.08c-9.09-0.18-12.77,9.43-13.82,16.15
				c-1.42,9.08-10.32,16.5-23.9,26.57c-10.94,8.12-17.42,21.64-39.24,36.1c-9.04,5.99-18.43,13.54-35.7,12.5
				c-25.63-1.55-37.03-5.45-57.49-5.45"/>
			<path class="st39" d="M1722.78,1474.61"/>
			<line class="st39" x1="1804.3" y1="1472.8" x2="1804.3" y2="1472.8"/>
			<path class="st39" d="M1814.48,1483.9h-21.88c-13.76,0.86-36.85,1.04-65.64,2.08c-45.66,1.65-95.18,0.63-120.92,1.04
				c-64.49,1.04-81.76,2.08-100.97-19.94c-10.62-12.17-32.31-7.44-45.02-9.16c-5.82-0.79-19.03-1.11-24.44-1.11
				c-4.61,0-47.02,0.27-60.27,0.01c-9.09-0.18-29.24-0.85-31.09,5.73c-3.07,10.93,3.84,31.77-7.68,44.27
				c-9.06,9.83-9.45,35.7-28.79,39.59c-10.36,2.08-21.7,2.44-44.91-1.04c-25.34-3.8-37.21-6.84-57.67-6.84"/>
			<path class="st39" d="M1757.43,2388.04c13.92-9.16,53.55-36.47,65.78-44.1c4.45-2.77,9.37-12.54,9.79-19.03"/>
			<path class="st39" d="M1757.43,2388.04c13.92-9.16,53.55-36.47,65.78-44.1c4.45-2.77,9.37-12.54,9.79-19.03"/>
			<path class="st39" d="M1739.13,2333.13c7.93,7.55,6.96,6.35,13.46,12.47c14.52,13.68-18.93,15.99,4.48,37.81"/>
			<path class="st39" d="M1739.13,2333.13c7.93,7.55,6.96,6.35,13.46,12.47c14.52,13.68-18.93,15.99,4.48,37.81"/>
			<path class="st39" d="M1409.63,1926.4"/>
			<path class="st39" d="M1439.96,2250.55c-0.35-1.7,0.2-9.46-0.45-12.07"/>
			<path class="st39" d="M1225.7,1541.05c-2.74-0.86-13.85-2.61-18.77-1.95"/>
			<path class="st39" d="M1434.53,1941.99c3.39,2.95,5.47,6.46,6.78,10.88"/>
			<path class="st39" d="M1116.53,1387.08v111.19l-0.01-0.05c0,6.85-7.74,12.9-14.26,12.9h0.05l-128.45-0.03
				c-18.81,0-33.9,16.49-33.78,30.87v17.78"/>
			<path class="st39" d="M1116.53,1387.08v111.19l-0.01-0.05c0,6.85-7.74,12.9-14.26,12.9h0.05l-128.45-0.03
				c-18.81,0-33.9,16.49-33.78,30.87v17.78"/>
			<line class="st39" x1="941.98" y1="1548.84" x2="941.98" y2="1544.44"/>
		</g>
	</g>
</g>
<g id="Layer_12">
	<g>
		<path class="st40" d="M1118.07,1165.25c15.31-2.45,27.81-0.37,47.55-7.73c19.75-7.36,36.75-28.53,36.55-56.42
			c-0.17-24.09-0.25-38.16-1.27-54.8c-1.15-18.75-6.41-52.34-0.9-67.3c1.15-3.13,15-3,27.18-3.26"/>
		<path class="st40" d="M1226.61,975.86c9.39,0.14,27.72,0.67,32.6-11.07c8.51-20.45,2.32-71.52,1.51-97.45
			c-0.81-25.93-2.16-124.41-2.16-124.41"/>
		<path class="st40" d="M1238,973c-8.06,6.25-31.27,2.48-38,6c-7.25,3.79-2.4,19.84-1.94,34.21c0.27,8.4,1.39,18.93,2.43,31.01
			c1.26,14.61,2.43,29.14,2.43,39.14c0,15.72,5.9,42.49-21.06,62.93c-23.71,17.97-64.19,18.52-90.38,21.2l-3.27,0.34
			c-7.51,0.78-8.62,1-13.37,1.78c-8.64,1.42-14.26,5.54-14.64,16.31"/>
		<path class="st40" d="M1056.36,1242.64c2.42-9.11,3.43-51.04,3.84-65.06c0.4-14.02,2.33-48.06-3.45-48.97
			c-26.49-4.17-29.71,15.57-27.64-50.01c1.15-36.47,3.06-79.49,2.66-105.77c-0.4-26.28,1.95-45.31,0.79-81.77
			c-0.69-21.9,0-47.08,0-63.56"/>
		<path class="st41" d="M1168.31,743.82c-0.57,12.71-1.15,26.62-0.89,37.82c0.54,22.92,0.58,40.35,0.58,58.35v27
			c5.03,9.75,21.98,5,52,5c12,0,17.28,11.8,17,28c-0.47,27.39,0.61,46.85-0.42,59.99c-1.46,18.47-0.19,13.37-1.34,18.58"/>
		<path class="st40" d="M1405.81,857.53c8.19,115.47-66.31,66-78.81,82.47c-12.49,16.47,16.53,113,0,113
			c-21,0-34.98,0.98-57.71,2.33C1258,1056,1274,1116,1261,1117c-15.51,1.19-41-12-41.78,49.28c-0.28,21.57-31.22,15.72-46.22,15.72
			c-12.73,0-96,0-113,4c-6.23,1.47-1.17,54.23-1.98,71.4c-0.39,8.4,0,271.6,0,289.12c0,17.52-4.03,47.31-10.07,65.19
			c-6.05,17.87-2.33,59.45,0.86,79.2c2.48,15.36,10.82,73.25,11.23,83.06c0,0,2.68,33.65,3.08,52.58
			c0.4,18.93-5.43,52.42-31.71,55.37c-18.28,2.05-13.14,20.72-12.67,35.43c0.44,13.61,3.34,27.93,0,52.1
			c-6.91,50.01,11.99,41.7,42.61,40.63c29.94-1.04,116.54,6.21,115.16-13.54c-4.61-65.64,5.76-59.39,29.94-60.43
			c39.18-1.69,97.46-0.91,114.01-4.17c3.53-0.69-3.47-12.81,8.06-14.59c61.03-9.38,41.89,13.78,47.21,14.59
			c6.53,0.98,33.4-2.08,43.76,2.08c18.68,7.51,54.25,24.47,64.53,28.83c31.81,13.5,53.84,8.18,69.47,2.05
			c0.53-0.21,1.41-0.53,2.61-0.96c6.09-2.21,20.34-7.39,35.64-15.17c30.32-15.43,71.65-37.53,105.29-56.28"/>
		<path class="st40" d="M1556.38,1963.89c8.13-3.54,29.71-12.92,48.19,4.44c14.94,14.03,115.65,108.39,116.66,109.34"/>
	</g>
</g>
<g id="Layer_24">
	<g class="st28">
		<path class="st42" d="M1121.07,1162.21c15.31-2.45,27.81-0.37,47.55-7.73c19.75-7.36,36.75-28.53,36.55-56.42
			c-0.17-24.09-0.25-38.16-1.27-54.8c-1.15-18.75-6.41-52.34-0.9-67.3c1.15-3.13,15-3,27.18-3.26"/>
		<path class="st42" d="M1229.61,972.83c9.39,0.14,27.72,0.67,32.6-11.07c8.51-20.45,2.32-71.52,1.51-97.45
			c-0.81-25.93-2.16-124.41-2.16-124.41"/>
		<path class="st42" d="M1241,969.96c-8.06,6.25-31.27,2.48-38,6c-7.25,3.79-2.4,19.84-1.94,34.21c0.27,8.4,1.39,18.93,2.43,31.01
			c1.26,14.61,2.43,29.14,2.43,39.14c0,15.72,5.9,42.49-21.06,62.93c-23.71,17.97-64.19,18.52-90.38,21.2l-3.27,0.34
			c-7.51,0.78-8.62,1-13.37,1.78c-8.64,1.42-14.26,5.54-14.64,16.31"/>
		<path class="st42" d="M1059.36,1239.61c2.42-9.11,3.43-51.04,3.84-65.06c0.4-14.02,2.33-48.06-3.45-48.97
			c-26.49-4.17-29.71,15.57-27.64-50.01c1.15-36.47,3.06-79.49,2.66-105.77c-0.4-26.28,1.95-45.31,0.79-81.77
			c-0.69-21.9,0-47.08,0-63.56"/>
		<path class="st43" d="M1171.31,740.78c-0.57,12.71-1.15,26.62-0.89,37.82c0.54,22.92,0.58,40.35,0.58,58.35v27
			c5.03,9.75,21.98,5,52,5c12,0,17.28,11.8,17,28c-0.47,27.39,0.61,46.85-0.42,59.99c-1.46,18.47-0.19,13.37-1.34,18.58"/>
		<path class="st42" d="M1408.81,854.49c8.19,115.47-66.31,66-78.81,82.47c-12.49,16.47,16.53,113,0,113
			c-21,0-34.98,0.98-57.71,2.33c-11.29,0.67,4.71,60.67-8.29,61.67c-15.51,1.19-41-12-41.78,49.28
			c-0.28,21.57-31.22,15.72-46.22,15.72c-12.73,0-96,0-113,4c-6.23,1.47-1.17,54.23-1.98,71.4c-0.39,8.4,0,271.6,0,289.12
			c0,17.52-4.03,47.31-10.07,65.19c-6.05,17.87-2.33,59.45,0.86,79.2c2.48,15.36,10.82,73.25,11.23,83.06c0,0,2.68,33.65,3.08,52.58
			c0.4,18.93-5.43,52.42-31.71,55.37c-18.28,2.05-13.14,20.72-12.67,35.43c0.44,13.61,3.34,27.93,0,52.1
			c-6.91,50.01,11.99,41.7,42.61,40.63c29.94-1.04,116.54,6.21,115.16-13.54c-4.61-65.64,5.76-59.39,29.94-60.43
			c39.18-1.69,97.46-0.91,114.01-4.17c3.53-0.69-3.47-12.81,8.06-14.59c61.03-9.38,41.89,13.78,47.21,14.59
			c6.53,0.98,33.4-2.08,43.76,2.08c18.68,7.51,54.25,24.47,64.53,28.83c31.81,13.5,53.84,8.18,69.47,2.05
			c0.53-0.21,1.41-0.53,2.61-0.96c6.09-2.21,20.34-7.39,35.64-15.17c30.32-15.43,71.65-37.53,105.29-56.28"/>
		<path class="st42" d="M1559.38,1960.86c8.13-3.54,29.71-12.92,48.19,4.44c14.94,14.03,115.65,108.39,116.66,109.34"/>
	</g>
</g>
<g id="Layer_14">
	<path class="st44" d="M1583.83,1559.29"/>
	<path class="st44" d="M1876.09,1241.66c1.15,16.67-0.35,57.15,0,88.56c1.15,102.11-59.45,44.98-143.95,65.64
		c-42.61,10.42-11.92,117.04-25.33,128.16c-13.41,11.11-152.89,1.27-169.28,15.63c-16.39,14.36,11.4,51.86-21.88,58.35
		c-33.28,6.48-65.26,9.41-114,6.1c-43.77-2.97-35.96,2.84-40.93,8.85c-4.22,5.12-4.07,12.51-4.48,23.16
		c-0.23,6.11-0.18,27.86,0.34,33.45c1.33,14.38-0.13,29.43,0.28,40.79c0.58,15.74-5.36,14.68-20.78,13.6
		c-12.46-0.88-13.91,0.12-38.25-0.35c-24.34-0.46-464.3-0.52-464.3-0.52v-0.01c-8.04,0-17.58,7.99-17.58,17.05V1762"/>
</g>
<g id="Layer_18">
	<path class="st45" d="M1867.2,1236.78c1.15,16.67-0.35,57.15,0,88.56c1.15,102.11-59.45,44.98-143.95,65.64
		c-42.61,10.42-11.92,117.04-25.33,128.16c-13.41,11.11-152.89,1.27-169.28,15.63c-16.39,14.36,11.4,51.86-21.88,58.35
		c-33.28,6.48-65.26,9.41-114,6.1c-43.77-2.97-35.96,2.84-40.93,8.86c-4.22,5.12-4.07,12.51-4.48,23.16
		c-0.23,6.11-0.18,27.86,0.34,33.45c1.33,14.38-0.13,29.42,0.28,40.79c0.58,15.74-5.36,14.68-20.78,13.6
		c-12.46-0.88-13.91,0.12-38.25-0.35c-24.34-0.46-464.3-0.52-464.3-0.52v-0.01c-8.04,0-17.58,7.99-17.58,17.05v21.89"/>
</g>
<g id="Layer_15">
	<path class="st46" d="M1071.71,2143.43c-2.3-15.63-2.94-39.17-1.15-51.05c3.45-22.92,1.64-37.69,2.13-51.26"/>
	<path class="st46" d="M1072.69,2041.12c0.55-15.22-1.08-32.25-1.48-38.56c-0.4-6.31,2.6-18.55,29.6-18.55
		c13.5,0,43.68-0.51,43.68-0.51c14.06-1.07,19.74,1.01,29.18,0.48c17.81-1.01-12.3-44.77,15.51-44.77c9.22,0,137.96,3.81,170.36,1.9
		l-0.03-0.03c65.3-3.84,154.72-4.43,175.73-4.43c31.43,0,223.59-13.07,242.4-14.11c16.91-0.94,23.78-2.58,44.91-26.05
		c25.33-28.13,27.03-35.84,14.53-58.62c-12.49-22.78-13.3-26.64,11.69-47.66c24.99-21.03,101.55-89.02,112.03-97.78
		c10.48-8.76,17.64-9.33,27.05-11.36c13.4-2.88,50.78-2.35,59.25-4.43c14.74-3.61,3.45-65.64,3.45-65.64"/>
</g>
<g id="Layer_19">
	<path class="st47" d="M1066.21,2038c0.55-15.22-1.08-32.25-1.48-38.56c-0.4-6.31,2.6-18.55,29.6-18.55
		c13.5,0,43.68-0.51,43.68-0.51c14.06-1.07,19.74,1.01,29.18,0.48c17.81-1.01-12.3-44.77,15.51-44.77c9.22,0,137.96,3.81,170.36,1.9
		l-0.03-0.03c65.3-3.84,154.72-4.43,175.73-4.43c31.43,0,223.59-13.07,242.4-14.11c16.91-0.94,23.78-2.58,44.91-26.05
		c25.33-28.13,27.03-35.84,14.53-58.62c-12.49-22.78-13.3-26.64,11.69-47.66c24.99-21.03,101.55-89.02,112.03-97.78
		c10.48-8.76,17.64-9.33,27.05-11.36c13.4-2.88,50.78-2.35,59.25-4.43c14.74-3.61,3.45-65.64,3.45-65.64"/>
	<circle cx="1303.37" cy="1938.98" r="12.5"/>
	<circle class="st20" cx="1303.36" cy="1938.92" r="7.91"/>
	<circle cx="1304.12" cy="1939.28" r="12.5"/>
	<circle class="st20" cx="1304.11" cy="1939.22" r="7.91"/>
</g>
<g id="Layer_2">
	<g>
		<g>
			<path class="st48" d="M823.37,1474.92c0-17.87,24.71-36.7,50.7-36.7s66.17,0.05,75.24,0.05c17.66,0,37.69-5.9,37.69-26.35
				v-106.32c0.07-16.02-24.11-29.57-44.84-12.9"/>
			<path class="st48" d="M986.93,1348.85c0-24.88,6.91-34.38,23.61-43.24c23.6-12.52,66.15-6.21,91.69-5.6
				c43.76,1.04,62.19,5.21,79.46-4.17c24.06-13.06,22.23-40.07,21.88-77.1c-0.17-17.87-2.42-66.54-1.15-85.44
				c2.3-34.38,52.97-4.17,51.82-30.22c-1.26-28.59,1.15-107.46,1.15-130.24c0-27.09-40.83-20.04-56.43-18.75
				c-25.33,2.08-26.46-23.96-25.33-55.22c0.95-26.31,0.03-80.39,0-75.02"/>
			<path class="st48" d="M1578.98,2069.98c13.82-1.04,28.68,2.73,43.79,16.93c15.11,14.19,116.67,109.34,116.67,109.34"/>
			<path class="st48" d="M1013.56,2103.32c-12.67,0-37.65,6.86-36.85-21.88c0.94-34.1,1.23-110.82,1.01-115.96"/>
			<path class="st48" d="M873.07,930.12c-1.15,63.56,2.56,114.39-2.3,159.41c-2.95,27.28-29.94,7.29-42.61,19.8
				c-11.57,11.42-7.92,48.18-7.92,63.43c0,12.45-0.14,20.04-0.23,34.86"/>
			<path class="st48" d="M820,1228.96c-0.33,56.41,2.91,209.19,3.17,223.95c0.27,14.71,1.39,95.06-1.93,183.63
				c-2.3,61.47,116.31-7.29,115.02,63.95c-0.61,34,0.91,76.72-0.01,130.93c-1.01,59.35,0,64.6-2.16,95.81
				c-2.3,33.34,46.06,4.17,44,31.65c-1.81,24.15,16.57,30.35,34.45,33.86c13.24,2.6,32.49,2.21,55.13,2.21
				c27.64,0,23.03,34.38,23.03,40.63c0,5.79-4.49,22.56,3.45,33.34c11.52,15.63,60.69,12.5,89.82,12.5c28.79,0,78.91,0.58,111.7,0
				c58.73-1.04,2.39-31.48,63.34-34.38c65.64-3.13,12.67,59.39,52.97,59.39c61.42,0,80.61,3.13,92.13,1.04
				c32.83-5.94,5.76-22.92,24.18-37.51c9.69-7.67,126.03,6.17,145.1-2.08c26.49-11.46,17.29-80.52,19.58-118.78
				c2.3-38.55,96.92-22.51,219.95-27.09"/>
		</g>
		<path class="st48" d="M820.02,1207.51c0,2.69,0,19.18,0,21.88"/>
	</g>
	<g id="Layer_4">
		<g id="Layer_3">
			<g class="st49">
				<g>
					<path class="st50" d="M816.31,1472.83c0-17.87,24.87-36.7,51.03-36.7s66.6,0.05,75.72,0.05c17.77,0,37.93-5.9,37.93-26.35
						v-106.32c0.07-16.02-24.27-29.57-45.13-12.89"/>
					<path class="st50" d="M980.93,1346.76c0-24.88,6.95-34.38,23.76-43.24c23.75-12.52,66.58-6.21,92.29-5.6
						c44.04,1.04,62.59,5.21,79.97-4.17c24.21-13.06,22.38-40.07,22.02-77.1c-0.17-17.87-2.43-66.54-1.16-85.44
						c2.32-34.38,53.32-4.17,52.16-30.22c-1.27-28.59,0.01-107.47-0.34-130.24c-0.35-22.92-41.88-15.87-57.58-14.59
						c-25.5,2.08-25.5-28.13-24.37-59.39c0.96-26.31,0.03-80.39,0-75.02"/>
					<path class="st50" d="M1576.82,2067.9c13.91-1.04,28.86,2.73,44.07,16.93c15.21,14.19,117.42,109.34,117.42,109.34"/>
					<path class="st50" d="M1007.73,2101.24c-12.75,0-37.89,6.86-37.09-21.88c0.95-34.1,1.23-110.82,1.01-115.96"/>
					<path class="st50" d="M866.33,928.04c-1.16,63.56,2.58,114.39-2.32,159.41c-2.97,27.28-30.14,7.29-42.88,19.8
						c-11.64,11.42-7.97,48.18-7.97,63.43c0,12.45-0.14,20.04-0.23,34.86"/>
					<path class="st50" d="M812.92,1226.88c-0.33,56.41,2.93,209.19,3.2,223.95c0.27,14.71,1.4,95.06-1.94,183.63
						c-2.32,61.47,117.06-7.29,115.77,63.95c-0.62,34,0.91,76.72-0.01,130.93c-1.01,59.35,0,64.6-2.17,95.81
						c-2.32,33.34,46.36,4.17,44.29,31.65c-1.82,24.15,16.68,30.35,34.67,33.86c13.33,2.6,32.7,2.21,55.49,2.21
						c27.82,0,23.18,34.38,23.18,40.63c0,5.79-4.52,22.56,3.48,33.34c11.59,15.63,61.08,12.5,90.4,12.5c28.98,0,79.42,0.58,112.43,0
						c59.11-1.04,2.4-31.48,63.75-34.38c66.07-3.13,12.75,59.39,53.32,59.39c61.82,0,81.13,3.13,92.72,1.04
						c33.04-5.94,5.8-22.92,24.34-37.51c9.75-7.67,126.84,6.17,146.04-2.08c26.66-11.46,17.4-80.52,19.7-118.78
						c2.32-38.55,97.55-22.51,221.38-27.09"/>
				</g>
				<path class="st50" d="M812.94,1205.43c0,2.69,0,19.18,0,21.88"/>
			</g>
		</g>
	</g>
</g>
<g id="Layer_25">
	<circle class="st19" cx="1591.79" cy="2069.5" r="24.5"/>
	<circle class="st20" cx="1591.5" cy="2069.5" r="15.5"/>
</g>
<g id="Layer_29">
	<circle class="st19" cx="1060.1" cy="1926.39" r="24.5"/>
	<circle class="st20" cx="1059.81" cy="1926.39" r="15.5"/>
</g>
<g id="Layer_30">
	<circle class="st19" cx="892.29" cy="1396.16" r="24.5"/>
	<circle class="st20" cx="892" cy="1396.16" r="15.5"/>
</g>
<g id="Layer_31">
	<circle class="st21" cx="1058.5" cy="1472.5" r="24.5"/>
	<circle class="st20" cx="1058.5" cy="1472.5" r="15.5"/>
</g>
<g id="Layer_32">
	<circle class="st21" cx="1050.5" cy="1677.5" r="24.5"/>
	<circle class="st20" cx="1050.5" cy="1677.5" r="15.5"/>
</g>
<g id="Layer_33">
	<circle cx="1082.5" cy="1107.5" r="12.5"/>
	<circle class="st20" cx="1082.5" cy="1107.45" r="7.91"/>
	<circle cx="1032.5" cy="927.5" r="12.5"/>
	<circle class="st20" cx="1032.5" cy="927.45" r="7.91"/>
	<circle cx="1058.5" cy="1185.5" r="12.5"/>
	<circle class="st20" cx="1058.5" cy="1185.45" r="7.91"/>
	<circle cx="1058.5" cy="1292.5" r="12.5"/>
	<circle class="st20" cx="1058.5" cy="1292.45" r="7.91"/>
	<circle cx="1031.5" cy="1032.5" r="12.5"/>
	<circle class="st20" cx="1031.5" cy="1032.45" r="7.91"/>
	<circle cx="1058.14" cy="1378.2" r="12.5"/>
	<circle class="st20" cx="1058.14" cy="1378.14" r="7.91"/>
	<circle cx="818.14" cy="1125.2" r="12.5"/>
	<circle class="st20" cx="818.14" cy="1125.14" r="7.91"/>
	<circle cx="818.14" cy="1221.2" r="12.5"/>
	<circle class="st20" cx="818.14" cy="1221.14" r="7.91"/>
	<circle cx="820.14" cy="1322.2" r="12.5"/>
	<circle class="st20" cx="820.14" cy="1322.14" r="7.91"/>
	<circle cx="868.14" cy="1040.2" r="12.5"/>
	<circle class="st20" cx="868.14" cy="1040.14" r="7.91"/>
	<circle cx="874.14" cy="938.2" r="12.5"/>
	<circle class="st20" cx="874.14" cy="938.14" r="7.91"/>
	<circle cx="819.14" cy="1459.2" r="12.5"/>
	<circle class="st20" cx="819.14" cy="1459.14" r="7.91"/>
	<circle cx="818.14" cy="1573.2" r="12.5"/>
	<circle class="st20" cx="818.14" cy="1573.14" r="7.91"/>
	<circle cx="874.14" cy="1665.2" r="12.5"/>
	<circle class="st20" cx="874.14" cy="1665.14" r="7.91"/>
	<circle cx="880.14" cy="1565.2" r="12.5"/>
	<circle class="st20" cx="880.14" cy="1565.14" r="7.91"/>
	<circle cx="1008.14" cy="1547.2" r="12.5"/>
	<circle class="st20" cx="1008.14" cy="1547.14" r="7.91"/>
	<circle cx="946.14" cy="1522.2" r="12.5"/>
	<circle class="st20" cx="946.14" cy="1522.14" r="7.91"/>
	<circle cx="790.14" cy="1050.2" r="12.5"/>
	<circle class="st20" cx="790.14" cy="1050.14" r="7.91"/>
	<circle cx="785.14" cy="960.2" r="12.5"/>
	<circle class="st20" cx="785.14" cy="960.14" r="7.91"/>
	<circle cx="1301.14" cy="1411.2" r="12.5"/>
	<circle class="st20" cx="1301.14" cy="1411.14" r="7.91"/>
	<circle cx="1155.14" cy="1548.2" r="12.5"/>
	<circle class="st20" cx="1155.14" cy="1548.14" r="7.91"/>
	<circle cx="1357.14" cy="1470.2" r="12.5"/>
	<circle class="st20" cx="1357.14" cy="1470.14" r="7.91"/>
	<circle cx="1055.14" cy="1592.2" r="12.5"/>
	<circle class="st20" cx="1055.14" cy="1592.14" r="7.91"/>
	<circle cx="942.14" cy="1621.2" r="12.5"/>
	<circle class="st20" cx="942.14" cy="1621.14" r="7.91"/>
	<circle cx="816.14" cy="1754.2" r="12.5"/>
	<circle class="st20" cx="816.14" cy="1754.14" r="7.91"/>
	<circle cx="929.14" cy="1726.2" r="12.5"/>
	<circle class="st20" cx="929.14" cy="1726.14" r="7.91"/>
	<circle cx="1055.14" cy="1758.2" r="12.5"/>
	<circle class="st20" cx="1055.14" cy="1758.14" r="7.91"/>
	<circle cx="1167.14" cy="1726.2" r="12.5"/>
	<circle class="st20" cx="1167.14" cy="1726.14" r="7.91"/>
	<circle cx="1357.14" cy="1726.2" r="12.5"/>
	<circle class="st20" cx="1357.14" cy="1726.14" r="7.91"/>
	<circle cx="1356.14" cy="1610.2" r="12.5"/>
	<circle class="st20" cx="1356.14" cy="1610.14" r="7.91"/>
	<circle cx="1202.95" cy="1130.85" r="12.5"/>
	<circle class="st20" cx="1202.95" cy="1130.79" r="7.91"/>
	<circle cx="1257.95" cy="970.85" r="12.5"/>
	<circle class="st20" cx="1257.95" cy="970.79" r="7.91"/>
	<circle cx="1176.95" cy="873.85" r="12.5"/>
	<circle class="st20" cx="1176.95" cy="873.79" r="7.91"/>
	<circle cx="1169.95" cy="755.85" r="12.5"/>
	<circle class="st20" cx="1169.95" cy="755.79" r="7.91"/>
	<circle cx="1398.95" cy="865.85" r="12.5"/>
	<circle class="st20" cx="1398.95" cy="865.79" r="7.91"/>
	<circle cx="1314.95" cy="1052.85" r="12.5"/>
	<circle class="st20" cx="1314.95" cy="1052.79" r="7.91"/>
	<circle cx="1518.95" cy="1594.85" r="12.5"/>
	<circle class="st20" cx="1518.95" cy="1594.79" r="7.91"/>
</g>
<g id="Layer_28">
	<text transform="matrix(1 0 0 1 740.9329 1922.202)"><tspan x="0" y="0" class="st8 st18">Stromsburg Research in</tspan><tspan x="0" y="28.8" class="st8 st18">Black Culture</tspan></text>
	<text transform="matrix(1 0 0 1 1098.9329 1698.202)" class="st8 st18">Americas Society</text>
	<text transform="matrix(1 0 0 1 632.9329 1413.202)"><tspan x="0" y="0" class="st8 st18">The Studio Museum</tspan><tspan x="0" y="28.8" class="st8 st18">in Harlem</tspan></text>
	<text transform="matrix(1 0 0 1 1076.9329 1446.202)" class="st8 st18">El Museo del Barrio</text>
	<text transform="matrix(1 0 0 1 1631.9329 2108.2021)"><tspan x="0" y="0" class="st8 st18">Museum of Contemporary </tspan><tspan x="0" y="28.8" class="st8 st18">African Diaspora</tspan></text>
	<text transform="matrix(1 0 0 1 1820.9329 3260.2021)"><tspan x="0" y="0" class="st8 st18">African American</tspan><tspan x="0" y="28.8" class="st8 st18">Cultural Centers</tspan><tspan x="0" y="57.6" class="st8 st18">&amp; Institutiones</tspan></text>
	<text transform="matrix(1 0 0 1 1625.9329 3265.2021)" class="st8 st18">Stations</text>
	<text transform="matrix(1 0 0 1 2102.9329 3256.2021)"><tspan x="0" y="0" class="st8 st18">Indigenous Latin-African </tspan><tspan x="0" y="28.8" class="st8 st18">Caribbean Cultural </tspan><tspan x="0" y="57.6" class="st8 st18">Centers &amp; Institutions </tspan></text>
</g>
<g id="Layer_26">
	<g>
		<path d="M1648.4,2071.35h-6.84l-1.48,6.41h-6.7l8.03-27.43h7.42l7.99,27.43h-6.95L1648.4,2071.35z M1642.82,2065.88h4.32
			l-2.16-9.32L1642.82,2065.88z"/>
		<path d="M1668.95,2072.54v5.4c-0.47,0.11-1.69,0.25-2.92,0.25c-5.47,0-7.2-2.88-7.2-8.85v-17.13h6.23v4.97h3.92v5.29h-3.92v7.09
			c0,2.38,0.65,3.13,2.48,3.13C1668.05,2072.68,1668.59,2072.65,1668.95,2072.54z"/>
		<path d="M1681.37,2078.05c-6.95,0.68-8.78-2.12-8.78-8.75v-19.33h6.05v19.58c0,2.59,0.86,3.17,2.74,3.06V2078.05z"/>
		<path d="M1694.73,2076.32c-1.08,1.19-2.81,1.87-5.11,1.87c-3.89,0-6.55-2.34-6.55-6.44c0-4.75,2.52-7.16,8.64-7.16
			c0.86,0,1.94,0.07,2.81,0.18v-1.44c0-2.09-0.86-2.95-2.59-2.95c-1.87,0-2.74,0.83-2.74,2.88h-5.47c0-5.69,3.1-7.78,8.28-7.78
			c5,0,8.31,1.91,8.31,7.74v14.54h-5.33L1694.73,2076.32z M1694.51,2068.91c-0.47-0.11-1.4-0.22-2.05-0.22
			c-2.52,0-3.42,0.76-3.42,2.41c0,1.55,0.86,2.3,2.45,2.3c1.58,0,3.02-1.01,3.02-3.06V2068.91z"/>
		<path d="M1709.34,2055.91l0.25,1.44c1.26-1.26,2.81-1.87,5.25-1.87c4.46,0,6.59,2.48,6.59,7.88v14.4h-6.08v-13.71
			c0-2.3-0.68-3.24-2.56-3.24c-1.69,0-2.63,0.9-2.63,3.13v13.82h-6.08v-21.85H1709.34z"/>
		<path d="M1735.19,2072.54v5.4c-0.47,0.11-1.69,0.25-2.92,0.25c-5.47,0-7.2-2.88-7.2-8.85v-17.13h6.23v4.97h3.92v5.29h-3.92v7.09
			c0,2.38,0.65,3.13,2.48,3.13C1734.29,2072.68,1734.83,2072.65,1735.19,2072.54z"/>
		<path d="M1744.91,2053.35h-6.08v-5.54h6.08V2053.35z M1744.91,2077.76h-6.08v-21.85h6.08V2077.76z"/>
		<path d="M1766.22,2069.48v0.36c0,5.54-2.77,8.35-8.89,8.35c-5.98,0-8.85-2.84-8.85-8.71v-5.29c0-5.87,2.95-8.71,8.89-8.71
			c5.98,0,8.82,2.66,8.82,8.17v0.54h-5.87v-0.47c0-2.16-0.9-2.92-2.84-2.92c-1.98,0-2.92,0.83-2.92,3.28v5.47
			c0,2.45,0.9,3.31,2.88,3.31c1.98,0,2.92-0.76,2.92-2.92v-0.47H1766.22z"/>
		<path d="M1798.04,2069.7c0,6.12-3.02,8.06-9.83,8.06h-9.47v-27.43h8.35c6.59,0,9.47,1.76,9.54,7.38v0.29
			c0,2.34-0.79,4.03-2.05,5.04c1.8,0.9,3.46,2.99,3.46,6.26V2069.7z M1784.83,2055.33v6.08h2.77c2.23,0,3.02-0.68,3.02-2.99v-0.22
			c0-2.34-1.04-2.88-3.28-2.88H1784.83z M1791.75,2069.37c0-2.3-1.01-2.95-3.24-2.95h-3.67v6.3h3.82c2.3,0,3.1-0.72,3.1-3.06
			V2069.37z"/>
		<path d="M1812.34,2076.32c-1.08,1.19-2.81,1.87-5.11,1.87c-3.89,0-6.55-2.34-6.55-6.44c0-4.75,2.52-7.16,8.64-7.16
			c0.86,0,1.94,0.07,2.81,0.18v-1.44c0-2.09-0.86-2.95-2.59-2.95c-1.87,0-2.74,0.83-2.74,2.88h-5.47c0-5.69,3.1-7.78,8.28-7.78
			c5,0,8.31,1.91,8.31,7.74v14.54h-5.33L1812.34,2076.32z M1812.12,2068.91c-0.47-0.11-1.4-0.22-2.05-0.22
			c-2.52,0-3.42,0.76-3.42,2.41c0,1.55,0.86,2.3,2.45,2.3c1.58,0,3.02-1.01,3.02-3.06V2068.91z"/>
		<path d="M1826.95,2055.91l0.36,1.91c1.08-1.37,2.77-2.23,5.08-2.23c0.36,0,0.68,0.04,1.01,0.07v6.26
			c-0.5-0.07-1.04-0.14-1.62-0.14c-2.09,0-4,1.04-4,4.5v11.48h-6.08v-21.85H1826.95z"/>
		<path d="M1853.27,2069.48v0.36c0,5.54-2.77,8.35-8.89,8.35c-5.98,0-8.85-2.84-8.85-8.71v-5.29c0-5.87,2.95-8.71,8.89-8.71
			c5.98,0,8.82,2.66,8.82,8.17v0.54h-5.87v-0.47c0-2.16-0.9-2.92-2.84-2.92c-1.98,0-2.92,0.83-2.92,3.28v5.47
			c0,2.45,0.9,3.31,2.88,3.31c1.98,0,2.92-0.76,2.92-2.92v-0.47H1853.27z"/>
		<path d="M1865.4,2078.05c-6.95,0.68-8.78-2.12-8.78-8.75v-19.33h6.05v19.58c0,2.59,0.86,3.17,2.74,3.06V2078.05z"/>
		<path d="M1878.76,2076.32c-1.08,1.19-2.81,1.87-5.11,1.87c-3.89,0-6.55-2.34-6.55-6.44c0-4.75,2.52-7.16,8.64-7.16
			c0.86,0,1.94,0.07,2.81,0.18v-1.44c0-2.09-0.86-2.95-2.59-2.95c-1.87,0-2.74,0.83-2.74,2.88h-5.47c0-5.69,3.1-7.78,8.28-7.78
			c5,0,8.31,1.91,8.31,7.74v14.54h-5.33L1878.76,2076.32z M1878.54,2068.91c-0.47-0.11-1.4-0.22-2.05-0.22
			c-2.52,0-3.42,0.76-3.42,2.41c0,1.55,0.86,2.3,2.45,2.3c1.58,0,3.02-1.01,3.02-3.06V2068.91z"/>
		<path d="M1892.19,2077.11l-6.41-21.2h6.73l3.35,14.97l2.56-14.97h6.73l-4.79,18.83c-2.05,8.03-5,10.33-10.01,10.33
			c-1.73,0-2.7-0.18-3.24-0.4v-5.79c0.4,0.14,1.12,0.25,1.76,0.25c1.48,0,2.92-0.4,3.28-1.84L1892.19,2077.11z"/>
		<path d="M1936.32,2067.9v0.76c-0.04,6.16-3.28,9.54-9.9,9.54c-6.77,0-9.93-3.53-9.93-9.9v-8.46c0-6.41,3.17-9.93,9.93-9.93
			c6.55,0,9.86,3.35,9.86,9.54v0.47h-6.66v-0.58c0-2.48-1.19-3.6-3.2-3.6c-2.45,0-3.38,1.33-3.38,4.43v7.88
			c0,3.02,0.9,4.32,3.38,4.32c2.09,0,3.17-1.04,3.24-3.6v-0.86H1936.32z"/>
		<path d="M1956.55,2070.88c-0.18,4.71-2.7,7.31-8.49,7.31c-5.98,0-8.82-2.66-8.82-8.78v-5.51c0-5.18,2.88-8.42,8.82-8.42
			c5.79,0,8.67,2.63,8.67,8.46v4.72h-11.52v1.26c0,2.27,0.86,3.35,2.81,3.35c2.16,0,2.81-0.86,2.95-2.38H1956.55z M1945.21,2064.3
			h5.8v-0.76c0-2.34-0.94-3.35-2.88-3.35c-2.05,0-2.92,0.97-2.92,3.49V2064.3z"/>
		<path d="M1965.37,2055.91l0.25,1.44c1.26-1.26,2.81-1.87,5.25-1.87c4.46,0,6.59,2.48,6.59,7.88v14.4h-6.08v-13.71
			c0-2.3-0.68-3.24-2.56-3.24c-1.69,0-2.63,0.9-2.63,3.13v13.82h-6.08v-21.85H1965.37z"/>
		<path d="M1991.22,2072.54v5.4c-0.47,0.11-1.69,0.25-2.92,0.25c-5.47,0-7.2-2.88-7.2-8.85v-17.13h6.23v4.97h3.92v5.29h-3.92v7.09
			c0,2.38,0.65,3.13,2.48,3.13C1990.32,2072.68,1990.86,2072.65,1991.22,2072.54z"/>
		<path d="M2011.7,2070.88c-0.18,4.71-2.7,7.31-8.49,7.31c-5.98,0-8.82-2.66-8.82-8.78v-5.51c0-5.18,2.88-8.42,8.82-8.42
			c5.79,0,8.67,2.63,8.67,8.46v4.72h-11.52v1.26c0,2.27,0.86,3.35,2.81,3.35c2.16,0,2.81-0.86,2.95-2.38H2011.7z M2000.36,2064.3
			h5.8v-0.76c0-2.34-0.94-3.35-2.88-3.35c-2.05,0-2.92,0.97-2.92,3.49V2064.3z"/>
		<path d="M2020.52,2055.91l0.36,1.91c1.08-1.37,2.77-2.23,5.08-2.23c0.36,0,0.68,0.04,1.01,0.07v6.26
			c-0.5-0.07-1.04-0.14-1.62-0.14c-2.09,0-4,1.04-4,4.5v11.48h-6.08v-21.85H2020.52z"/>
	</g>
	<g>
		<path d="M639.61,1383.43v-16.2l-5.25,2.16v-5.8l6.05-2.27h5.47v22.1h4.28v5.33H634.5v-5.33H639.61z"/>
		<path d="M658.4,1383.43h10.69v5.33h-17.03v-4.75c0-11.95,11.12-8.89,11.12-15.37c0-1.91-1.12-2.66-2.92-2.66
			c-2.02,0-3.06,1.08-3.06,3.74h-5.4c0-5.69,2.66-8.75,8.82-8.75c6.05,0,8.57,3.24,8.57,7.38c0,10.22-10.8,8.5-10.8,14.22V1383.43z"
			/>
		<path d="M677.84,1366.66v4.72h1.94c6.41,0,9.47,2.77,9.54,8.53v0.47c0,6.05-3.46,8.82-8.85,8.82c-6.91,0-9-3.78-9-9.07h6.01
			c0,2.77,0.76,3.85,2.88,3.85c2.16,0,2.92-1.3,2.92-3.53v-0.43c0-2.34-1.22-3.46-4.18-3.46h-7.05v-15.23h15.55v5.33H677.84z"/>
		<path d="M702.25,1383.54v5.4c-0.47,0.11-1.69,0.25-2.92,0.25c-5.47,0-7.2-2.88-7.2-8.85v-17.13h6.23v4.97h3.92v5.29h-3.92v7.09
			c0,2.38,0.65,3.13,2.48,3.13C701.35,1383.68,701.89,1383.65,702.25,1383.54z"/>
		<path d="M711.97,1367.85c1.15-0.9,2.59-1.37,4.68-1.37c4.46,0,6.59,2.48,6.59,7.88v14.4h-6.08v-13.71c0-2.3-0.68-3.24-2.56-3.24
			c-1.69,0-2.63,0.9-2.63,3.13v13.82h-6.08v-27.79h6.08V1367.85z"/>
		<path d="M735.55,1368.85c0-5.15,3.1-7.96,8.89-7.96c5.65,0,9.18,2.16,9.65,8.28h-6.19c-0.25-2.05-1.15-2.88-3.49-2.88
			c-2.02,0-2.74,0.94-2.74,2.34c0,1.8,1.01,2.66,3.85,3.31c4.14,1.01,9.11,2.23,9.11,8.78c0,5.15-2.63,8.46-9.94,8.46
			c-7.23,0-9.65-4-9.65-8.39h6.19c0.07,1.8,0.97,2.99,3.74,2.99c2.34,0,3.38-0.97,3.38-2.88c0-1.98-1.19-2.81-5.04-3.71
			C739.48,1376.2,735.55,1375.05,735.55,1368.85z"/>
		<path d="M767.3,1383.54v5.4c-0.47,0.11-1.69,0.25-2.92,0.25c-5.47,0-7.2-2.88-7.2-8.85v-17.13h6.23v4.97h3.92v5.29h-3.92v7.09
			c0,2.38,0.65,3.13,2.48,3.13C766.4,1383.68,766.94,1383.65,767.3,1383.54z"/>
		<path d="M776.19,1366.91l0.36,1.91c1.08-1.37,2.77-2.23,5.08-2.23c0.36,0,0.68,0.04,1.01,0.07v6.26c-0.5-0.07-1.04-0.14-1.62-0.14
			c-2.09,0-4,1.04-4,4.5v11.48h-6.08v-21.85H776.19z"/>
		<path d="M802.08,1381.88c-0.18,4.71-2.7,7.31-8.49,7.31c-5.98,0-8.82-2.66-8.82-8.78v-5.51c0-5.18,2.88-8.42,8.82-8.42
			c5.79,0,8.67,2.63,8.67,8.46v4.72h-11.52v1.26c0,2.27,0.86,3.35,2.81,3.35c2.16,0,2.81-0.86,2.95-2.38H802.08z M790.74,1375.3
			h5.79v-0.76c0-2.34-0.94-3.35-2.88-3.35c-2.05,0-2.92,0.97-2.92,3.49V1375.3z"/>
		<path d="M822.56,1381.88c-0.18,4.71-2.7,7.31-8.49,7.31c-5.98,0-8.82-2.66-8.82-8.78v-5.51c0-5.18,2.88-8.42,8.82-8.42
			c5.79,0,8.67,2.63,8.67,8.46v4.72h-11.52v1.26c0,2.27,0.86,3.35,2.81,3.35c2.16,0,2.81-0.86,2.95-2.38H822.56z M811.22,1375.3
			h5.79v-0.76c0-2.34-0.94-3.35-2.88-3.35c-2.05,0-2.92,0.97-2.92,3.49V1375.3z"/>
		<path d="M836.03,1383.54v5.4c-0.47,0.11-1.69,0.25-2.92,0.25c-5.47,0-7.2-2.88-7.2-8.85v-17.13h6.23v4.97h3.92v5.29h-3.92v7.09
			c0,2.38,0.65,3.13,2.48,3.13C835.12,1383.68,835.67,1383.65,836.03,1383.54z"/>
	</g>
	<g>
		<path d="M1078.61,1417.43v-16.2l-5.26,2.16v-5.8l6.05-2.27h5.47v22.1h4.28v5.33h-15.66v-5.33H1078.61z"/>
		<path d="M1110.07,1404.65v8.75c0,6.51-2.74,9.79-9.21,9.79c-6.52,0-9.25-3.28-9.25-9.79v-8.75c0-6.48,2.74-9.75,9.25-9.75
			C1107.34,1394.9,1110.07,1398.17,1110.07,1404.65z M1097.87,1413.72c0,2.84,0.9,3.85,2.99,3.85c2.09,0,2.95-1.01,2.95-3.85v-9.39
			c0-2.77-0.86-3.82-2.95-3.82c-2.09,0-2.99,1.04-2.99,3.82V1413.72z"/>
		<path d="M1127.17,1408.33c1.91,0.9,3.56,2.95,3.56,6.37c0,5.47-3.71,8.5-9.11,8.5c-6.23,0-9.03-2.99-9.03-8.46h6.01
			c0,2.23,1.15,3.24,3.06,3.24c2.09,0,2.95-1.22,2.95-3.35c0-2.34-1.08-3.24-4.03-3.24h-2.38v-5.08h2.66c2.7,0,3.56-1.44,3.56-3.28
			c0-2.09-1.3-2.92-3.1-2.92c-1.98,0-3.06,1.08-3.06,3.17h-5.33c0-5.98,3.17-8.39,8.67-8.39c4.79,0,8.64,2.23,8.64,7.34
			C1130.27,1405.3,1129.01,1407.43,1127.17,1408.33z"/>
		<path d="M1139.2,1400.91l0.36,1.91c1.08-1.37,2.77-2.23,5.08-2.23c0.36,0,0.68,0.04,1.01,0.07v6.26c-0.5-0.07-1.04-0.14-1.62-0.14
			c-2.09,0-4,1.04-4,4.5v11.48h-6.08v-21.85H1139.2z"/>
		<path d="M1159.79,1421.54c-1.3,1.3-3.17,1.66-4.86,1.66c-4.68,0-7.16-2.99-7.16-8.71v-5.62c0-5.65,3.31-8.39,7.31-8.39
			c1.91,0,3.28,0.54,4.25,1.44v-6.95h6.05v27.79h-5.36L1159.79,1421.54z M1159.29,1408.94c0-2.3-1.08-3.13-2.7-3.13
			c-1.76,0-2.74,0.9-2.74,3.31v5.47c0,2.41,0.79,3.28,2.7,3.28c1.84,0,2.74-0.79,2.74-3.02V1408.94z"/>
		<path d="M1177.79,1402.85c0-5.15,3.1-7.96,8.89-7.96c5.65,0,9.18,2.16,9.65,8.28h-6.19c-0.25-2.05-1.15-2.88-3.49-2.88
			c-2.02,0-2.74,0.94-2.74,2.34c0,1.8,1.01,2.66,3.85,3.31c4.14,1.01,9.11,2.23,9.11,8.78c0,5.15-2.63,8.46-9.94,8.46
			c-7.23,0-9.65-4-9.65-8.39h6.19c0.07,1.8,0.97,2.99,3.74,2.99c2.34,0,3.38-0.97,3.38-2.88c0-1.98-1.19-2.81-5.04-3.71
			C1181.72,1410.2,1177.79,1409.05,1177.79,1402.85z"/>
		<path d="M1209.54,1417.54v5.4c-0.47,0.11-1.69,0.25-2.92,0.25c-5.47,0-7.2-2.88-7.2-8.85v-17.13h6.23v4.97h3.92v5.29h-3.92v7.09
			c0,2.38,0.65,3.13,2.48,3.13C1208.64,1417.68,1209.18,1417.65,1209.54,1417.54z"/>
		<path d="M1218.43,1400.91l0.36,1.91c1.08-1.37,2.77-2.23,5.08-2.23c0.36,0,0.68,0.04,1.01,0.07v6.26
			c-0.5-0.07-1.04-0.14-1.62-0.14c-2.09,0-4,1.04-4,4.5v11.48h-6.08v-21.85H1218.43z"/>
		<path d="M1244.32,1415.88c-0.18,4.71-2.7,7.31-8.49,7.31c-5.98,0-8.82-2.66-8.82-8.78v-5.51c0-5.18,2.88-8.42,8.82-8.42
			c5.79,0,8.67,2.63,8.67,8.46v4.72h-11.52v1.26c0,2.27,0.86,3.35,2.81,3.35c2.16,0,2.81-0.86,2.95-2.38H1244.32z M1232.98,1409.3
			h5.8v-0.76c0-2.34-0.94-3.35-2.88-3.35c-2.05,0-2.92,0.97-2.92,3.49V1409.3z"/>
		<path d="M1264.8,1415.88c-0.18,4.71-2.7,7.31-8.49,7.31c-5.98,0-8.82-2.66-8.82-8.78v-5.51c0-5.18,2.88-8.42,8.82-8.42
			c5.79,0,8.67,2.63,8.67,8.46v4.72h-11.52v1.26c0,2.27,0.86,3.35,2.81,3.35c2.16,0,2.81-0.86,2.95-2.38H1264.8z M1253.46,1409.3
			h5.8v-0.76c0-2.34-0.94-3.35-2.88-3.35c-2.05,0-2.92,0.97-2.92,3.49V1409.3z"/>
		<path d="M1278.27,1417.54v5.4c-0.47,0.11-1.69,0.25-2.92,0.25c-5.47,0-7.2-2.88-7.2-8.85v-17.13h6.23v4.97h3.92v5.29h-3.92v7.09
			c0,2.38,0.65,3.13,2.48,3.13C1277.37,1417.68,1277.91,1417.65,1278.27,1417.54z"/>
	</g>
	<g>
		<path d="M747.61,1889.43v-16.2l-5.26,2.16v-5.8l6.05-2.27h5.47v22.1h4.28v5.33H742.5v-5.33H747.61z"/>
		<path d="M766.4,1889.43h10.69v5.33h-17.03v-4.75c0-11.95,11.12-8.89,11.12-15.37c0-1.91-1.12-2.66-2.92-2.66
			c-2.02,0-3.06,1.08-3.06,3.74h-5.4c0-5.69,2.66-8.75,8.82-8.75c6.05,0,8.57,3.24,8.57,7.38c0,10.22-10.8,8.5-10.8,14.22V1889.43z"
			/>
		<path d="M785.84,1872.66v4.72h1.94c6.41,0,9.47,2.77,9.54,8.53v0.47c0,6.05-3.46,8.82-8.85,8.82c-6.91,0-9-3.78-9-9.07h6.01
			c0,2.77,0.76,3.85,2.88,3.85c2.16,0,2.92-1.3,2.92-3.53v-0.43c0-2.34-1.22-3.46-4.18-3.46h-7.06v-15.23h15.55v5.33H785.84z"/>
		<path d="M810.25,1889.54v5.4c-0.47,0.11-1.69,0.25-2.92,0.25c-5.47,0-7.2-2.88-7.2-8.85v-17.13h6.23v4.97h3.92v5.29h-3.92v7.09
			c0,2.38,0.65,3.13,2.48,3.13C809.35,1889.68,809.89,1889.65,810.25,1889.54z"/>
		<path d="M819.97,1873.85c1.15-0.9,2.59-1.37,4.68-1.37c4.46,0,6.59,2.48,6.59,7.88v14.4h-6.08v-13.71c0-2.3-0.68-3.24-2.56-3.24
			c-1.69,0-2.63,0.9-2.63,3.13v13.82h-6.08v-27.79h6.08V1873.85z"/>
		<path d="M843.55,1874.85c0-5.15,3.1-7.96,8.89-7.96c5.65,0,9.18,2.16,9.65,8.28h-6.19c-0.25-2.05-1.15-2.88-3.49-2.88
			c-2.02,0-2.74,0.94-2.74,2.34c0,1.8,1.01,2.66,3.85,3.31c4.14,1.01,9.11,2.23,9.11,8.78c0,5.15-2.63,8.46-9.94,8.46
			c-7.23,0-9.65-4-9.65-8.39h6.19c0.07,1.8,0.97,2.99,3.74,2.99c2.34,0,3.38-0.97,3.38-2.88c0-1.98-1.19-2.81-5.04-3.71
			C847.48,1882.2,843.55,1881.05,843.55,1874.85z"/>
		<path d="M875.3,1889.54v5.4c-0.47,0.11-1.69,0.25-2.92,0.25c-5.47,0-7.2-2.88-7.2-8.85v-17.13h6.23v4.97h3.92v5.29h-3.92v7.09
			c0,2.38,0.65,3.13,2.48,3.13C874.4,1889.68,874.94,1889.65,875.3,1889.54z"/>
		<path d="M884.19,1872.91l0.36,1.91c1.08-1.37,2.77-2.23,5.08-2.23c0.36,0,0.68,0.04,1.01,0.07v6.26c-0.5-0.07-1.04-0.14-1.62-0.14
			c-2.09,0-4,1.04-4,4.5v11.48h-6.08v-21.85H884.19z"/>
		<path d="M910.08,1887.88c-0.18,4.71-2.7,7.31-8.49,7.31c-5.98,0-8.82-2.66-8.82-8.78v-5.51c0-5.18,2.88-8.42,8.82-8.42
			c5.79,0,8.67,2.63,8.67,8.46v4.72h-11.52v1.26c0,2.27,0.86,3.35,2.81,3.35c2.16,0,2.81-0.86,2.95-2.38H910.08z M898.74,1881.3h5.8
			v-0.76c0-2.34-0.94-3.35-2.88-3.35c-2.05,0-2.92,0.97-2.92,3.49V1881.3z"/>
		<path d="M930.56,1887.88c-0.18,4.71-2.7,7.31-8.49,7.31c-5.98,0-8.82-2.66-8.82-8.78v-5.51c0-5.18,2.88-8.42,8.82-8.42
			c5.79,0,8.67,2.63,8.67,8.46v4.72h-11.52v1.26c0,2.27,0.86,3.35,2.81,3.35c2.16,0,2.81-0.86,2.95-2.38H930.56z M919.22,1881.3h5.8
			v-0.76c0-2.34-0.94-3.35-2.88-3.35c-2.05,0-2.92,0.97-2.92,3.49V1881.3z"/>
		<path d="M944.02,1889.54v5.4c-0.47,0.11-1.69,0.25-2.92,0.25c-5.47,0-7.2-2.88-7.2-8.85v-17.13h6.23v4.97h3.92v5.29h-3.92v7.09
			c0,2.38,0.65,3.13,2.48,3.13C943.12,1889.68,943.67,1889.65,944.02,1889.54z"/>
	</g>
	<text transform="matrix(1 0 0 1 1099.0251 1673.7594)" class="st6 st7">68th Street</text>
	<circle cx="1460.73" cy="1834.24" r="12.5"/>
	<circle class="st20" cx="1460.72" cy="1834.19" r="7.91"/>
	<circle cx="1591.5" cy="1754.5" r="12.5"/>
	<circle class="st20" cx="1591.72" cy="1754.19" r="7.91"/>
	<circle cx="1719.73" cy="1797.24" r="12.5"/>
	<circle class="st20" cx="1719.72" cy="1797.19" r="7.91"/>
	<circle cx="1843.54" cy="1751.95" r="12.5"/>
	<circle class="st20" cx="1843.54" cy="1751.89" r="7.91"/>
	<circle cx="1954.54" cy="1676.95" r="12.5"/>
	<circle class="st20" cx="1954.54" cy="1676.89" r="7.91"/>
	<circle cx="2077.54" cy="1561.79" r="12.5"/>
	<circle class="st20" cx="2077.54" cy="1561.74" r="7.91"/>
	<circle cx="2047.54" cy="1676.79" r="12.5"/>
	<circle class="st20" cx="2047.54" cy="1676.74" r="7.91"/>
	<circle cx="2090.54" cy="1789.79" r="12.5"/>
	<circle class="st20" cx="2090.54" cy="1789.74" r="7.91"/>
	<circle cx="2147.54" cy="1947.79" r="12.5"/>
	<circle class="st20" cx="2147.54" cy="1947.74" r="7.91"/>
	<circle cx="1720.54" cy="1796.95" r="12.5"/>
	<circle class="st20" cx="1720.54" cy="1796.89" r="7.91"/>
	<circle cx="1149.13" cy="1777.64" r="12.5"/>
	<circle class="st20" cx="1149.13" cy="1777.59" r="7.91"/>
	<circle cx="1349.13" cy="1826.64" r="12.5"/>
	<circle class="st20" cx="1349.13" cy="1826.59" r="7.91"/>
	<circle cx="1067.13" cy="1856.64" r="12.5"/>
	<circle class="st20" cx="1067.13" cy="1856.59" r="7.91"/>
	<circle cx="1453.13" cy="1898.64" r="12.5"/>
	<circle class="st20" cx="1453.13" cy="1898.59" r="7.91"/>
	<circle cx="1441.13" cy="2000.64" r="12.5"/>
	<circle class="st20" cx="1441.13" cy="2000.59" r="7.91"/>
	<circle cx="1180.13" cy="1941.64" r="12.5"/>
	<circle class="st20" cx="1180.13" cy="1941.59" r="7.91"/>
	<circle cx="1071.13" cy="2002.64" r="12.5"/>
	<circle class="st20" cx="1071.13" cy="2002.59" r="7.91"/>
</g>
<g id="Layer_34">
	<circle cx="1530.95" cy="1535.85" r="12.5"/>
	<circle class="st20" cx="1530.95" cy="1535.79" r="7.91"/>
	<circle cx="1700.02" cy="1523" r="12.5"/>
	<circle class="st20" cx="1700.02" cy="1522.95" r="7.91"/>
	<circle cx="1712.02" cy="1400" r="12.5"/>
	<circle class="st20" cx="1712.02" cy="1399.95" r="7.91"/>
	<circle cx="1857.02" cy="1381" r="12.5"/>
	<circle class="st20" cx="1857.02" cy="1380.95" r="7.91"/>
	<circle cx="1871.02" cy="1243" r="12.5"/>
	<circle class="st20" cx="1871.02" cy="1242.95" r="7.91"/>
	<circle cx="1518.46" cy="1428.28" r="12.5"/>
	<circle class="st20" cx="1518.45" cy="1428.23" r="7.91"/>
	<circle cx="1644.46" cy="1548.28" r="12.5"/>
	<circle class="st20" cx="1644.45" cy="1548.23" r="7.91"/>
	<circle cx="1646.46" cy="1633.28" r="12.5"/>
	<circle class="st20" cx="1646.45" cy="1633.23" r="7.91"/>
	<circle cx="1641.46" cy="1713.28" r="12.5"/>
	<circle class="st20" cx="1641.45" cy="1713.23" r="7.91"/>
	<circle cx="1501.47" cy="1720.99" r="12.5"/>
	<circle class="st20" cx="1501.46" cy="1720.94" r="7.91"/>
</g>
<g id="Layer_35">
	<circle cx="1159.26" cy="2078.22" r="12.5"/>
	<circle class="st20" cx="1159.26" cy="2078.17" r="7.91"/>
	<circle cx="976.26" cy="2089.22" r="12.5"/>
	<circle class="st20" cx="976.26" cy="2089.17" r="7.91"/>
	<circle cx="1327.26" cy="2057.22" r="12.5"/>
	<circle class="st20" cx="1327.26" cy="2057.17" r="7.91"/>
	<circle cx="971.26" cy="1963.22" r="12.5"/>
	<circle class="st20" cx="971.26" cy="1963.17" r="7.91"/>
	<circle cx="1821.26" cy="2331.22" r="12.5"/>
	<circle class="st20" cx="1821.26" cy="2331.17" r="7.91"/>
	<circle cx="1687.26" cy="2284.22" r="12.5"/>
	<circle class="st20" cx="1687.26" cy="2284.17" r="7.91"/>
	<circle cx="1439.26" cy="2250.22" r="12.5"/>
	<circle class="st20" cx="1439.26" cy="2250.17" r="7.91"/>
	<circle cx="1448.26" cy="2105.22" r="12.5"/>
	<circle class="st20" cx="1448.26" cy="2105.17" r="7.91"/>
	<circle cx="1573.26" cy="2196.22" r="12.5"/>
	<circle class="st20" cx="1573.26" cy="2196.17" r="7.91"/>
	<circle cx="1737.26" cy="2190.22" r="12.5"/>
	<circle class="st20" cx="1737.26" cy="2190.17" r="7.91"/>
	<circle cx="1846.26" cy="2265.22" r="12.5"/>
	<circle class="st20" cx="1846.26" cy="2265.17" r="7.91"/>
	<circle cx="1620.26" cy="1992.22" r="12.5"/>
	<circle class="st20" cx="1620.26" cy="1992.17" r="7.91"/>
	<circle cx="1528.26" cy="1941.22" r="12.5"/>
	<circle class="st20" cx="1528.26" cy="1941.17" r="7.91"/>
	<circle cx="1809.26" cy="1917.22" r="12.5"/>
	<circle class="st20" cx="1809.26" cy="1917.17" r="7.91"/>
	<circle cx="1796.26" cy="1431.22" r="12.5"/>
	<circle class="st20" cx="1796.26" cy="1431.17" r="7.91"/>
	<circle cx="1951.26" cy="1457.22" r="12.5"/>
	<circle class="st20" cx="1951.26" cy="1457.17" r="7.91"/>
	<circle cx="2043.26" cy="1411.22" r="12.5"/>
	<circle class="st20" cx="2043.26" cy="1411.17" r="7.91"/>
	<circle cx="2056.26" cy="1302.22" r="12.5"/>
	<circle class="st20" cx="2056.26" cy="1302.17" r="7.91"/>
	<circle cx="2084.26" cy="1447.22" r="12.5"/>
	<circle class="st20" cx="2084.26" cy="1447.17" r="7.91"/>
	<circle cx="663.26" cy="2369.91" r="12.5"/>
	<circle class="st20" cx="663.26" cy="2369.86" r="7.91"/>
	<circle cx="643.63" cy="2447.48" r="12.5"/>
	<circle class="st20" cx="643.62" cy="2447.43" r="7.91"/>
	<circle cx="634.63" cy="2561.48" r="12.5"/>
	<circle class="st20" cx="634.62" cy="2561.43" r="7.91"/>
	<circle cx="572.63" cy="2606.48" r="12.5"/>
	<circle class="st20" cx="572.62" cy="2606.43" r="7.91"/>
	<circle cx="502.63" cy="2655.48" r="12.5"/>
	<circle class="st20" cx="502.62" cy="2655.43" r="7.91"/>
</g>
<g id="Layer_38">
	<g>
		<path d="M1820.29,1986.59c0,10.2-5.04,13.44-16.38,13.44h-15.78v-45.72h13.92c10.98,0,15.78,2.94,15.9,12.3v0.48
			c0,3.9-1.32,6.72-3.42,8.4c3,1.5,5.76,4.98,5.76,10.44V1986.59z M1798.27,1962.65v10.14h4.62c3.72,0,5.04-1.14,5.04-4.98v-0.36
			c0-3.9-1.74-4.8-5.46-4.8H1798.27z M1809.79,1986.05c0-3.84-1.68-4.92-5.4-4.92h-6.12v10.5h6.36c3.84,0,5.16-1.2,5.16-5.1V1986.05
			z"/>
		<path d="M1841.11,1983.41h-4.98v16.62h-10.2v-45.72h14.52c11.04,0,16.02,4.56,16.02,14.22v0.9c0,5.88-1.74,9.6-5.64,11.76
			l7.68,18.84h-11.76L1841.11,1983.41z M1836.13,1974.35h4.62c4.32,0,5.52-1.32,5.52-5.28v-0.36c0-4.14-1.5-5.34-5.7-5.34h-4.44
			V1974.35z"/>
		<path d="M1896.01,1970.09v14.22c0,10.68-5.46,16.44-16.8,16.44c-11.28,0-16.8-5.76-16.8-16.44v-14.22c0-10.74,5.52-16.5,16.8-16.5
			C1890.55,1953.59,1896.01,1959.35,1896.01,1970.09z M1873.33,1984.79c0,4.56,1.92,6.6,5.88,6.6s5.88-2.04,5.88-6.6v-15.24
			c0-4.5-1.92-6.6-5.88-6.6s-5.88,2.1-5.88,6.6V1984.79z"/>
		<path d="M1936.09,1970.09v14.22c0,10.68-5.46,16.44-16.8,16.44c-11.28,0-16.8-5.76-16.8-16.44v-14.22c0-10.74,5.52-16.5,16.8-16.5
			C1930.63,1953.59,1936.09,1959.35,1936.09,1970.09z M1913.41,1984.79c0,4.56,1.92,6.6,5.88,6.6s5.88-2.04,5.88-6.6v-15.24
			c0-4.5-1.92-6.6-5.88-6.6s-5.88,2.1-5.88,6.6V1984.79z"/>
		<path d="M1953.31,1971.95h3.84l8.16-17.64h12.06l-11.76,21.96l13.5,23.76h-12.6l-9.3-18.54h-3.9v18.54h-10.38v-45.72h10.38
			V1971.95z"/>
		<path d="M2010.07,2000.03h-26.46v-45.72h10.44v36.3h16.02V2000.03z"/>
		<path d="M2017.93,1954.31l7.44,17.64l7.44-17.64h11.22l-13.74,26.82v18.9h-10.38v-19.02l-13.68-26.7H2017.93z"/>
		<path d="M2058.49,1954.31l12.66,27.36v-27.36h9.96v45.72h-10.44l-12.72-26.4v26.4h-10.02v-45.72H2058.49z"/>
	</g>
</g>
</svg>
