<?xml version="1.0" encoding="utf-8"?>
<!-- Generator: Adobe Illustrator 23.0.6, SVG Export Plug-In . SVG Version: 6.00 Build 0)  -->
<svg version="1.1" xmlns="http://www.w3.org/2000/svg" xmlns:xlink="http://www.w3.org/1999/xlink" x="0px" y="0px"
	 viewBox="0 0 2829 4609" style="enable-background:new 0 0 2829 4609;" xml:space="preserve">
<style type="text/css">
	.st0{fill:#C9BFAD;stroke:#999999;}
	.st1{opacity:0.44;fill:#CCCCCC;}
	.st2{opacity:0.44;fill:#EEE1C6;}
	.st3{opacity:0.41;fill:#F2E9D4;}
	.st4{fill:#EF3E42;}
	.st5{fill:#F58220;}
	.st6{fill:#FFE600;}
	.st7{fill:#009D57;}
	.st8{fill:#006BB6;}
	.st9{fill:#9D3D96;}
	.st10{fill:#754C24;}
	.st11{font-family:'Camber-Lg';}
	.st12{font-size:24px;}
	.st13{fill:#8C6239;stroke:#000000;stroke-width:4;}
	.st14{fill:#FFFFFF;}
	.st15{fill:#998675;stroke:#000000;stroke-width:4;}
	.st16{display:none;}
	.st17{display:inline;opacity:0.4;fill:#F7931E;}
	.st18{opacity:0.62;fill:#F2E9D4;stroke:#999999;}
	.st19{opacity:0.41;fill:#EEE1C6;stroke:#B3B3B3;}
	.st20{opacity:0.7;fill:#F2E9D4;stroke:#808080;}
	.st21{font-family:'Kelson-Bold';}
	.st22{font-size:60px;}
	.st23{font-size:36px;}
	.st24{fill:none;stroke:#006BB6;stroke-width:10;}
	.st25{fill:none;stroke:#006BB6;stroke-width:10;stroke-dasharray:5,1.5;}
	.st26{opacity:0.67;}
	.st27{fill:none;stroke:#29ABE2;stroke-width:10;}
	.st28{fill:none;stroke:#29ABE2;stroke-width:10;stroke-dasharray:5,1.5;}
	.st29{fill:none;stroke:#006BB6;stroke-width:14;}
	.st30{opacity:0.67;fill:none;stroke:#29ABE2;stroke-width:10;}
	.st31{fill:none;stroke:#F58220;stroke-width:12;}
	.st32{fill:none;stroke:#F58220;stroke-width:12;stroke-dasharray:5,1.5;}
	.st33{opacity:0.65;}
	.st34{fill:none;stroke:#FCEE21;stroke-width:7;}
	.st35{fill:none;stroke:#FCEE21;stroke-width:7;stroke-dasharray:5,1.5;}
	.st36{fill:none;stroke:#FFE600;stroke-width:10;}
	.st37{fill:none;stroke:#FCEE21;stroke-width:10;}
	.st38{fill:none;stroke:#009D57;stroke-width:10;}
	.st39{fill:none;stroke:#009D57;stroke-width:10;stroke-dasharray:5,1.5;}
	.st40{fill:none;stroke:#8CC63F;stroke-width:8;}
	.st41{fill:none;stroke:#8CC63F;stroke-width:8;stroke-dasharray:5,1.5;}
	.st42{fill:none;stroke:#9D3D96;stroke-width:11;}
	.st43{opacity:0.68;fill:none;stroke:#D67FD4;stroke-width:11;}
	.st44{fill:none;stroke:#B0720D;stroke-width:10;}
	.st45{opacity:0.67;fill:none;stroke:#C69C6D;stroke-width:10;}
	.st46{fill:none;stroke:#EF3E42;stroke-width:10;}
	.st47{opacity:0.55;}
	.st48{fill:none;stroke:#D4145A;stroke-width:12;}
</style>
<g id="Layer_22">
</g>
<g id="Layer_20">
	<rect x="0.5" y="0.5" class="st0" width="2829" height="4608"/>
	<path class="st1" d="M2477.41,4206h-895.82c-32.36,0-58.59-26.23-58.59-58.59v-667.82c0-32.36,26.23-58.59,58.59-58.59h895.82
		c32.36,0,58.59,26.23,58.59,58.59v667.82C2536,4179.77,2509.77,4206,2477.41,4206z"/>
	<path class="st1" d="M1330.26,4206.18l-895.82-0.36c-32.36-0.01-58.58-26.25-58.57-58.61l0.27-667.82
		c0.01-32.36,26.25-58.58,58.61-58.57l895.82,0.36c32.36,0.01,58.58,26.25,58.57,58.61l-0.27,667.82
		C1388.85,4179.97,1362.61,4206.19,1330.26,4206.18z"/>
	<path class="st1" d="M2427.41,3288H468.59c-32.36,0-58.59-26.23-58.59-58.59v-279.82c0-32.36,26.23-58.59,58.59-58.59h1958.82
		c32.36,0,58.59,26.23,58.59,58.59v279.82C2486,3261.77,2459.77,3288,2427.41,3288z"/>
	<path class="st2" d="M2436.69,4143h-815.37c-27.23,0-49.31-22.08-49.31-49.31v-533.37c0-27.23,22.08-49.31,49.31-49.31h815.37
		c27.23,0,49.31,22.08,49.31,49.31v533.37C2486,4120.92,2463.92,4143,2436.69,4143z"/>
	<path class="st2" d="M2319.69,3232H509.31c-27.23,0-49.31-22.08-49.31-49.31v-142.37c0-27.23,22.08-49.31,49.31-49.31h1810.37
		c27.23,0,49.31,22.08,49.31,49.31v142.37C2369,3209.92,2346.92,3232,2319.69,3232z"/>
	<path class="st2" d="M1290.69,4129H475.31c-27.23,0-49.31-22.08-49.31-49.31v-501.37c0-27.23,22.08-49.31,49.31-49.31h815.37
		c27.23,0,49.31,22.08,49.31,49.31v501.37C1340,4106.92,1317.92,4129,1290.69,4129z"/>
	<path class="st3" d="M730.89,2146.31h-78.06c-12.04,0-21.8,9.76-21.8,21.8v31.26c0,12.04-9.76,21.8-21.8,21.8l-96.09,0.02
		c-12.04,0-21.8,9.76-21.8,21.8v87.17c0,12.04,9.76,21.8,21.8,21.8h39.02c12.04,0,21.8,9.76,21.8,21.8v9.89
		c0,12.04-9.76,21.8-21.8,21.8H463.8c-12.04,0-21.8,9.76-21.8,21.8v176.92c0,12.04,9.76,21.8,21.8,21.8h284.89
		c11.89,0,21.59-9.53,21.8-21.43l4-231.01c0.21-12.19-9.61-22.18-21.8-22.18h0c-12.04,0-21.8-9.76-21.8-21.8v-14.65
		c0-12.04,9.76-21.8,21.8-21.8h29.51c12.04,0,21.8-9.76,21.8-21.8v-102.8c0-11.97-9.65-21.71-21.63-21.8L730.89,2146.31z"/>
</g>
<g id="KEY">
	<path class="st4" d="M1657.47,3605h-20.95c-5.26,0-9.53-4.27-9.53-9.53v-20.95c0-5.26,4.27-9.53,9.53-9.53h20.95
		c5.26,0,9.53,4.27,9.53,9.53v20.95C1667,3600.73,1662.73,3605,1657.47,3605z"/>
	<path class="st5" d="M1891.47,3605h-20.95c-5.26,0-9.53-4.27-9.53-9.53v-20.95c0-5.26,4.27-9.53,9.53-9.53h20.95
		c5.26,0,9.53,4.27,9.53,9.53v20.95C1901,3600.73,1896.73,3605,1891.47,3605z"/>
	<path class="st6" d="M2127.47,3605h-20.95c-5.26,0-9.53-4.27-9.53-9.53v-20.95c0-5.26,4.27-9.53,9.53-9.53h20.95
		c5.26,0,9.53,4.27,9.53,9.53v20.95C2137,3600.73,2132.73,3605,2127.47,3605z"/>
	<path class="st7" d="M1659.47,3679h-20.95c-5.26,0-9.53-4.27-9.53-9.53v-20.95c0-5.26,4.27-9.53,9.53-9.53h20.95
		c5.26,0,9.53,4.27,9.53,9.53v20.95C1669,3674.73,1664.73,3679,1659.47,3679z"/>
	<path class="st8" d="M1891.47,3679h-20.95c-5.26,0-9.53-4.27-9.53-9.53v-20.95c0-5.26,4.27-9.53,9.53-9.53h20.95
		c5.26,0,9.53,4.27,9.53,9.53v20.95C1901,3674.73,1896.73,3679,1891.47,3679z"/>
	<path class="st9" d="M2127.47,3679h-20.95c-5.26,0-9.53-4.27-9.53-9.53v-20.95c0-5.26,4.27-9.53,9.53-9.53h20.95
		c5.26,0,9.53,4.27,9.53,9.53v20.95C2137,3674.73,2132.73,3679,2127.47,3679z"/>
	<path class="st10" d="M1659.47,3750h-20.95c-5.26,0-9.53-4.27-9.53-9.53v-20.95c0-5.26,4.27-9.53,9.53-9.53h20.95
		c5.26,0,9.53,4.27,9.53,9.53v20.95C1669,3745.73,1664.73,3750,1659.47,3750z"/>
	<g id="Layer_27">
		<text transform="matrix(1 0 0 1 1916.7136 3592.417)" class="st11 st12">BDFM - Trains</text>
		<text transform="matrix(1 0 0 1 2158.7136 3593.417)" class="st11 st12">NQRW - Trains</text>
		<text transform="matrix(1 0 0 1 1685.7136 3666.417)" class="st11 st12">456 - Trains</text>
		<text transform="matrix(1 0 0 1 1917.7136 3666.417)" class="st11 st12">ACE - Trains</text>
		<text transform="matrix(1 0 0 1 2158.7136 3666.417)" class="st11 st12">7 - Trains</text>
		<text transform="matrix(1 0 0 1 1689.7136 3734.417)" class="st11 st12">JZ - Trains</text>
		<text transform="matrix(1 0 0 1 1683.3958 3592.917)" class="st11 st12">123 - Trains</text>
	</g>
	<circle class="st13" cx="1648.63" cy="3995.41" r="24.5"/>
	<circle class="st14" cx="1648.34" cy="3995.41" r="15.5"/>
	<circle class="st15" cx="1998.65" cy="3995.58" r="24.5"/>
	<circle class="st14" cx="1998.36" cy="3995.58" r="15.5"/>
	<circle cx="1650.65" cy="3870.58" r="24.5"/>
	<circle class="st14" cx="1650.36" cy="3870.58" r="15.5"/>
</g>
<g id="Layer_8">
	<g id="Layer_1">
		<g id="Layer_9" class="st16">
			<rect x="1399" y="378" class="st17" width="1628" height="1702"/>
		</g>
		<path class="st18" d="M817.96,938.45l35.63-0.06c26.58-0.05,48.18,24.16,48.23,54.08l0.35,99.5
			c0.05,29.91,21.65,54.13,48.23,54.08l246.12-0.45c26.44-0.05,47.97,23.91,48.23,53.66l3.38,484.96
			c0.26,29.75,21.79,53.71,48.23,53.66h0c26.58-0.05,48.18,24.16,48.23,54.08l0.39,217.33c0.05,29.91-21.45,54.2-48.04,54.25
			l-467.74,0.85c-26.39,0.05-47.91-23.83-48.23-53.53L769.93,993.25C769.6,963.12,791.19,938.5,817.96,938.45z"/>
		<g id="Layer_7">
			<path class="st19" d="M787.01,652.65l2.66,156.97c0.35,20.8,19.35,37.5,42.66,37.5h110.83c23.56,0,42.66,17.05,42.66,38.07
				v152.73c0,21.03,19.1,38.07,42.66,38.07h194.88c23.56,0,42.66-17.05,42.66-38.07v0c0-20.53,18.23-37.36,41.22-38.05l151.07-4.57
				c22.99-0.7,41.22-17.53,41.22-38.05V843.52c0-21.03,19.1-38.07,42.66-38.07h38.16c23.56,0,42.66-17.05,42.66-38.07V652.07
				c0-21.03-19.1-38.07-42.66-38.07H829.66C805.85,614,786.64,631.4,787.01,652.65z"/>
			<path class="st20" d="M1358.88,1495.92l104.62,2.58c16,0,25.4,9.87,25.54,20.93l4.64,350.09c0.15,11.09-7.56,20.19-17.23,20.34
				l-37.93,0.6c-9.69,0.15-17.41,9.29-17.23,20.4l2.19,137.95c0.18,11.03,8.05,19.88,17.67,19.85l56.78-0.17
				c9.62-0.03,17.5,8.82,17.67,19.85l2.13,134.42c0.18,11.11,8.18,20,17.87,19.85l297.92-4.73c9.69-0.15,17.69,8.73,17.87,19.85
				l0.39,24.58c0.18,11.11,8.18,20,17.87,19.85l62.61-1.84c9.84-0.16,17.61-9.56,17.22-20.84l-2.34-67.29
				c-0.39-11.28,7.38-20.68,17.22-20.84l39.74-0.74c9.69-0.15,17.41-9.29,17.23-20.4l-5.61-502.5c-0.18-11.04,7.44-20.14,17.06-20.4
				l126.84-1.97c9.75-0.26,17.86,8.65,18.03,19.84l0.82,51.5c0.18,11.11-7.54,20.25-17.23,20.4l-8.73,0.43
				c-9.63,0.15-8.59,8.75-8.5,19.8l0.92,123.22c0.09,11.05-1.6,20.08-11.23,20.23l-18.61,0.3c-9.65,0.15-17.35,9.21-17.23,20.28
				l1.6,152.04c0.11,10.63,7.42,19.37,16.68,19.94l10.19,0.63c10.09,0.63,18.53-8.62,18.43-20.21l-0.91-103.66
				c-0.1-11.05,7.59-20.09,17.23-20.24l34.15-0.54c9.6-0.15,17.28-9.12,17.23-20.13l-0.88-219.65
				c-0.04-11.01,7.63-19.98,17.23-20.13l116.6-1.85c9.55-0.15,17.2-9.03,17.23-19.98l5.95-353.7c0.03-11.28-8.03-20.43-17.87-20.27
				l-45.68,0.73c-9.71,0.15-17.72-8.76-17.87-19.9l-5.55-408.73c-0.15-11.14-8.16-20.05-17.87-19.9l-94.98,1.51
				c-9.45,0.15-17.06,8.85-17.23,19.68l-0.92,60.22c-0.17,10.83-7.78,19.53-17.23,19.68l-36.7,0.58c-9.59,0.15-17.26,9.1-17.23,20.1
				l0.31,82.97c0.03,11-7.64,19.95-17.23,20.1c0,0-635.54,1.15-690.02,3.87c-40,2-47.89,42.65-47.78,53.72l3.64,345.52
				c0.03,2.76,1.34,5.49,3.14,8.03C1337.77,1490.6,1348.06,1495.68,1358.88,1495.92z"/>
			<text transform="matrix(1 0 0 1 502.1538 1545.917)" class="st21 st22">MANHATTAN</text>
			<text transform="matrix(1 0 0 1 831.1538 2411.917)" class="st21 st22">STATEN ISLAND</text>
			<text transform="matrix(1 0 0 1 683.1538 583.917)" class="st21 st22">THE BRONX</text>
			<text transform="matrix(1 0 0 1 1778.1538 1045.917)" class="st21 st22">QUEENS</text>
			<text transform="matrix(1 0 0 1 1998.1538 3479.917)" class="st21 st23">Key</text>
			<text transform="matrix(1 0 0 1 1325.1538 2954.917)" class="st21 st23">Approach</text>
			<text transform="matrix(1 -1.849256e-03 1.849256e-03 1 804.2963 3484.0889)" class="st21 st23">Iterations</text>
			<text transform="matrix(1 3.975754e-04 -3.975754e-04 1 500.1825 3683.7842)"><tspan x="0" y="0" class="st11 st23">Input more streets &amp; localized information</tspan><tspan x="0" y="43.2" class="st11 st23">while reducing visual clutter</tspan></text>
			<text transform="matrix(1 -1.013157e-04 1.013157e-04 1 560.1558 3111.957)"><tspan x="0" y="0" class="st11 st23">Reduce visual overload to necessary information through abstraction, while curating entho-centric cultural </tspan><tspan x="0" y="43.2" class="st11 st23">institutions in New York</tspan></text>
			<text transform="matrix(1 3.975754e-04 -3.975754e-04 1 500.1825 3811.7842)" class="st11 st23">Curate more ethno-centric cultural institutions</text>
			<text transform="matrix(1 3.975754e-04 -3.975754e-04 1 500.1825 3913.7842)"><tspan x="0" y="0" class="st11 st23">Animate train lines</tspan><tspan x="0" y="86.4" class="st11 st23">Interactive layers if technically feasible</tspan></text>
		</g>
	</g>
</g>
<g id="Layer_5">
	<g>
		<path class="st24" d="M924.71,1416.6c0-13.67,3.15-26.53,29.3-26.53h335.71c23.72-1.04,29.8,4.33,28.33-44.8
			c-1.15-38.55,72.46-10.76,88.67-18.75c12.67-6.25,0-28.13,10.36-39.59c9.14-10.1,156.85-6.16,177.34-6.25
			c38.15-0.17,9.17,31,55.17,29.91c44.33-1.05,170.35-0.74,198.18-0.74c28.79,0,132.82-1.04,148.55-1.04
			c16.12,0-4.61-20.88,21.88-21.88c55.28-2.08,46.06,4.17,46.19,22.85c0.1,14.65,18.57,12.97,31.38,13.21
			c21.46,0.41,36.43,1.45,36.43-12.1c0-10.42,0-20.51,0-28.13"/>
		<path class="st24" d="M1056.46,1734.03c-0.96-0.13-13.63,2.72-13.63-7.43c0-9.38-0.43-36.02-0.28-46.76
			c0.11-7.67,8.17-9.03,8.17-14.26"/>
		<path class="st24" d="M2127.53,1401.85c0,0-78.58,60.64-93.09,70.8c-14.51,10.16-24.51,29.09-35.39,48.36
			c-10.88,19.27-33.95,44.44-54.54,58.82c-13.12,9.16-25.64,16.34-55.78,15.81c-14.67-0.26-41.3,42.91-50.17,42.4
			c-19.03-1.11-119.76,1.04-137.04,2.08c-20.98,1.27-9.98-63.9-34.55-55.22c-56.36,19.92-131.28,65.64-152.01,81.27
			c-17.02,12.83-8.88,108.08-31.82,119.65c-8.07,4.07-15.85,5.77-24.41,5.86c-11.95,0.12-26.35-0.05-31.86-0.05
			c-12.12,0-17.01-8.6-17.28-15.94c-0.54-14.59,0.15-22.67-2.52-36.63c-3.25-16.99-33.66-20.66-56.3-13.36
			c-31.57,10.17-104.97,24.99-149.3,28.15c-44.33,3.15-107.02-4.88-126.6-20.16c-21.83-17.04-22.61-38.07-23.42-52.44
			c-0.81-14.37-2.3-69.28-2.3-74.5c0-27.47-13.17-28.68-43.38-36.99c-14.2-3.91-36.95-10.16-52.21-14.59
			c-14.91-4.33-30.67-8.91-30.26-37.64c0.4-28.74,4.61-481.07,4.61-492.63c0-11.56,3.2-50.55-7.16-57.84
			c-14.37-10.11-50.98,1.88-57.58-6.25c-10-12.32,9.21-63.56-20.73-62.51c-13.86,0.48-10.36-20.36-10.36-30.22
			c0-11.46-1.15-66.68-1.15-66.68"/>
		<path class="st24" d="M2094.59,1506.05c0.85,1.8,5.52,3.59,7.12,4.38c2.22,1.09,4.55,1.8,6.26,6.18c1.02,2.62,4.78,14.18,5.41,17
			c1.14,5.15-5.41,7.99-3.99,12.11"/>
		<path class="st24" d="M2042.4,1466.12c12.67-1.04,26.49-4.17,33.4,6.25c10.46,15.77,39.8,93.12,49.87,120.39
			c11.47,31.08,61.72,177.78,69.03,193.67"/>
		<path class="st25" d="M2186.4,1948.37c0,0,26.88-39.79,37.36-62.22c9.41-20.14-22.55-78.72-31.25-95.19"/>
	</g>
	<g id="Layer_6">
		<g class="st26">
			<path class="st27" d="M929.9,1412.95c0-13.67,3.15-26.53,29.3-26.53h335.71c23.72-1.04,29.8,4.33,28.33-44.8
				c-1.15-38.55,72.46-10.76,88.67-18.75c12.67-6.25,0-28.13,10.36-39.59c9.14-10.1,156.85-6.16,177.34-6.25
				c38.15-0.17,9.17,31,55.17,29.91c44.33-1.05,170.35-0.74,198.18-0.74c28.79,0,132.82-1.04,148.55-1.04
				c16.12,0-4.61-20.88,21.88-21.88c55.28-2.08,46.06,4.17,46.19,22.85c0.1,14.65,18.57,12.97,31.38,13.21
				c21.46,0.41,36.43,1.45,36.43-12.1c0-10.42,0-20.51,0-28.13"/>
			<path class="st27" d="M1061.64,1730.38c-0.96-0.13-13.63,2.72-13.63-7.43c0-9.38-0.43-36.02-0.28-46.76
				c0.11-7.67,8.17-9.03,8.17-14.26"/>
			<path class="st27" d="M2132.72,1398.21c0,0-78.58,60.64-93.09,70.8c-14.51,10.16-24.51,29.09-35.39,48.36
				c-10.88,19.27-33.95,44.44-54.54,58.82c-13.12,9.16-25.64,16.34-55.78,15.81c-14.67-0.26-41.3,42.91-50.17,42.4
				c-19.03-1.11-119.76,1.04-137.04,2.08c-20.98,1.27-9.98-63.9-34.55-55.22c-56.36,19.92-131.28,65.64-152.01,81.27
				c-17.02,12.83-8.88,108.08-31.82,119.65c-8.07,4.07-15.85,5.77-24.41,5.86c-11.95,0.12-26.35-0.05-31.86-0.05
				c-12.12,0-17.01-8.6-17.28-15.94c-0.54-14.59,0.15-22.67-2.52-36.63c-3.25-16.99-33.66-20.66-56.3-13.36
				c-31.57,10.17-104.97,24.99-149.3,28.15c-44.33,3.15-107.02-4.88-126.6-20.16c-21.83-17.04-22.61-38.07-23.42-52.44
				c-0.81-14.37-2.3-69.28-2.3-74.5c0-27.47-13.17-28.68-43.38-36.99c-14.2-3.91-36.95-10.16-52.21-14.59
				c-14.91-4.33-30.67-8.91-30.26-37.64c0.4-28.74,4.61-481.07,4.61-492.63c0-11.56,3.2-50.55-7.16-57.84
				c-14.37-10.11-50.98,1.88-57.58-6.25c-10-12.32,9.21-63.56-20.73-62.51c-13.86,0.48-10.36-20.36-10.36-30.22
				c0-11.46-1.15-66.68-1.15-66.68"/>
			<path class="st27" d="M2099.77,1502.4c0.85,1.8,5.52,3.59,7.12,4.38c2.22,1.09,4.55,1.8,6.26,6.18c1.02,2.62,4.78,14.18,5.41,17
				c1.14,5.15-5.41,7.99-3.99,12.11"/>
			<path class="st27" d="M2047.58,1462.48c12.67-1.04,26.49-4.17,33.4,6.25c10.46,15.77,39.8,93.12,49.87,120.39
				c11.47,31.08,61.72,177.78,69.03,193.67"/>
			<path class="st28" d="M2191.58,1944.72c0,0,26.88-39.79,37.36-62.22c9.41-20.14-22.55-78.72-31.25-95.19"/>
		</g>
	</g>
	<g id="Layer_23">
		<path class="st29" d="M468.5,2586.5c0.77-16.41,41.6-8.48,60-15c18.4-6.52,6.1-78,12-84c5.89-6,68.28,5.19,76-2
			s-4.28-72.43,9.01-78.63c13.28-6.2,54.77,1.33,58.99-5.37c4.22-6.7,0.66-107.01,1-114c0.33-7,39.45-0.56,43-4
			c3.55-3.44,4-21.48,4-37c0-8-16.31-1.39-21-7c-2.53-3.03-0.32-32.87-1.08-37.54c-0.64-3.93-0.77-53.86-0.92-55.46"/>
		<path class="st30" d="M480.5,2586.5c0.77-16.41,41.59-8.48,60-15c18.4-6.52,6.1-78,12-84c5.89-6,68.28,5.19,76-2
			s-4.28-72.43,9.01-78.63c13.28-6.2,54.77,1.33,58.99-5.37c4.22-6.7,0.66-107.01,1-114c0.33-7,39.45-0.56,43-4
			c3.55-3.44,4-21.48,4-37c0-8-16.31-1.39-21-7c-2.53-3.03-0.32-32.87-1.08-37.54c-0.64-3.93-0.77-53.86-0.92-55.46"/>
	</g>
</g>
<g id="Layer_10">
	<g>
		<path class="st31" d="M1057.96,1392.93c0-17.87,0.09-35.58-22.07-35.58c-22.16,0-52.9-0.15-66.6,0
			c-25.08,0.28-26.87-7.61-26.87-29.52v-319c0-13.67-4.92-43.41,16.03-49.37c20.96-5.96,105.22-1.8,123.36-3.55
			c18.14-1.75,60.74-1.75,71.62-36.45c10.88-34.69,6.04-90.42,6.04-104.09V698.32c0-5.26,2.42-36.8,43.12-40.3"/>
		<path class="st31" d="M942.61,1005.53c-0.54-21.29,6.37-34.84,34.26-36.73c36.79-2.49,109.68-0.7,135.98-0.09
			c39.95,0.93,52.62-7.4,51.86-56.26c-0.58-37.2-5-182.44-5-213.7"/>
		<path class="st31" d="M1894.64,2112.58c1.46-12.59-6.63-24.09-12.43-28.74c-7.62-6.11-45.87-44.04-46.32-44.49
			c-1.37-1.29-137.21-129.32-144.29-137.02c-9.9-10.77-15.75-31.27-20.45-47.75c-1.45-5.07-2.81-9.86-4.2-14.08
			c-5.56-16.91-23.51-28.95-33.16-35.41c0,0-3.81-2.61-3.81-2.61c-10.82-7.32-20.18-13.31-31.04-20.26
			c-7.33-4.7-15.01-7.89-18.79-9.46c-10.08-4.17-42.75-17.32-53.4-21.75c-3.54-1.47-9.97-6.33-15.55-10.81
			c-3.55-2.85-14.28-11.56-26.95-19.38c-16.12-9.95-39.82-24.18-58.13-36.2c-33.05-21.71-73.34-22.27-90.03-19.54l0.14-0.02
			c0,0-48.17,6.52-78.07,10.04c-60.49,7.14-61.06-26.2-61.64-46.52c-0.65-22.97-14.97-38.55-38.38-38.2"/>
		<path class="st31" d="M1812.82,2173.76c-1.76-1.95-6.46-6.19-10.57-10c-9.07-8.41-32.77-29.03-41.84-34.29
			c-9.07-5.26-33.72-2.98-57.3-3.51c-23.57-0.53-36.61-14.48-42.66-23.95c-6.05-9.46-51.59-79.9-69.73-106.71
			c-18.14-26.81-56.42-24.74-72.18-24.94c-7.59-0.1-14.7-1.56-14.74-9.9c-0.04-8.38,2.1-171.65,2.1-197.46
			c0-16.96-2.98-37.86-10.18-45.72c-4.38-4.77-13.01-5.13-19.62-5.3c-2.1-0.05-8.97-1.54-11.56-3.23"/>
		<path class="st32" d="M936.85,999.63c0-17.54-1-42.76,19.96-48.72c20.96-5.96,95.95-3.32,114.09-5.08
			c18.13-1.75,69.22,6.28,79.31-30.25c9.66-34.99,4.24-90.83,4.24-104.5c0-13.67-2.06-105.27,3.7-120.9"/>
		<path class="st31" d="M1830.42,2118.19c7.17,6.87,14.4,14.92,19.04,20.26c4.64,5.34,1.02,10.32-1.26,11.83
			c-9.28,6.1-33.73,23.65-33.73,23.65"/>
		<path class="st31" d="M2106.31,1142.61c0,48.33,3.45,103.15-6.91,110.44c-16.71,11.76-49.76,5.33-62.84,5.55
			c-15.22,0.26-98.38-1.38-108.74-1.38c-15.97,0-49.99,20.34-75.75,21.32c-11.54,0.44-167.42-0.49-193.38,0.13
			c-30.32,0.71-68.12-3.69-101.49-11.26c-16.29-3.69-41.65-2.9-72.74-0.82c-38.52,2.58-58.73-4.17-67.6,11.01
			c-5.8,9.92-5.33,13.65-11.86,19.2c-13.32,11.34-63.28,6.68-87.33,6.68c0,0-182.81-0.28-225.93-0.28
			c-18.81,0-33.9,16.49-33.78,30.87c0.02,2.84-0.13,194.82,0,207.51c0.38,36.47,18.43,48.62,47.6,48.97c0,0,74.08-0.33,97.61-0.33
			c23.37,0,24.46,15.96,31.37,29.5c7.37,14.46,12.09,31.83,59.94,31.83c20.15,0,59.24,1.23,59.24,1.23
			c28.8-0.23,48.76,10.89,56.62,30.34c1.95,4.83,6.27,11.73,8.43,21.49c3.51,15.88,2.39,29.83,3.69,43.91
			c0.63,6.82,0.4,12.54,0.78,16.76c0.4,4.49,0.39,8.87,0.31,13.09c-0.32,15.99,0.06,28.46,0.12,39.79
			c0.06,10.95,8.9,17.96,27.38,18.61c30.22,1.05,74.96,0.53,88.86,0.53c13.9,0,33.85,1.05,50.17,18.93
			c16.32,17.87,24.18,25.76,24.18,25.76c6.04,6.83,11.48,15.77,15.11,26.28c3.63,10.51,4.84,25.23,19.34,39.42
			c14.51,14.19,160.08,149.41,160.08,149.41s11.18,11.04,20.96,20.84"/>
		<path class="st31" d="M1840.56,1267.45c-14.08,0.98-156.52,0.96-182.13,1.57c-27.79,0.66-66.46-3.57-99.55-10.99l-5.42-3.56
			c-14.19-3.2-24.12-17.17-39.92-17.12c-22.16,0.07-72.64,0.13-84.01-0.09c-9-0.22-47.55-5.04-61.37,10.59
			c-20.16,22.8-3.66,56.85-11.4,70.87c-1.5,2.71,11.4,29.15-11.63,36.44c-26.73,8.47-113.41,4.45-123.22,4.17
			c-1.13-0.03-142.8-1.81-142.8-1.81c-7.4,0-21.18,1.91-21.18,22.15"/>
		<path class="st31" d="M1187.54,1602.52c5.44,4.46,13.7,13.53,21.66,14.37c3.78,0.4,8.06,0.21,16.31-0.11
			c12.29-0.48,24.99-2.05,33.7-6.79c20.27-11.02,2.75-42.85,15.66-46.45c14.97-4.17,155.46-2.08,155.46-2.08s44.64,0.34,61.03,0
			c50.67-1.04,159.86,0,176.19,0l0,0c32.24,4.17,26.52-39.1,27.64-55.22c1.15-16.67,2.3-69.81-1.15-126.07"/>
	</g>
	<g id="Layer_11" class="st33">
		<g class="st33">
			<path class="st34" d="M1052.1,1385.52c0-17.87,0.09-35.58-22.07-35.58c-22.16,0-52.9-0.15-66.6,0
				c-25.08,0.28-26.87-7.61-26.87-29.52v-319c0-13.67-4.92-43.41,16.03-49.37c20.96-5.96,105.22-1.8,123.36-3.55
				c18.14-1.75,60.74-1.75,71.62-36.45c10.88-34.69,6.04-90.42,6.04-104.09V690.92c0-5.26,2.42-36.8,43.12-40.3"/>
			<path class="st34" d="M936.75,998.13c-0.54-21.29,6.37-34.84,34.26-36.73c36.79-2.49,109.68-0.7,135.98-0.09
				c39.95,0.93,52.62-7.4,51.86-56.26c-0.58-37.2-5-182.44-5-213.7"/>
			<path class="st34" d="M1888.78,2105.18c1.46-12.59-6.63-24.09-12.43-28.74c-7.62-6.11-45.87-44.04-46.32-44.49
				c-1.37-1.29-137.21-129.32-144.29-137.02c-9.9-10.77-15.75-31.27-20.45-47.75c-1.45-5.07-2.81-9.86-4.2-14.08
				c-5.56-16.91-23.51-28.95-33.16-35.41c0,0-3.81-2.61-3.81-2.61c-10.82-7.32-20.18-13.31-31.04-20.26
				c-7.33-4.7-15.01-7.89-18.79-9.46c-10.08-4.17-42.75-17.32-53.4-21.75c-3.54-1.47-9.97-6.33-15.55-10.81
				c-3.55-2.85-14.28-11.56-26.95-19.38c-16.12-9.95-39.82-24.18-58.13-36.2c-33.05-21.71-73.34-22.27-90.03-19.54l0.14-0.02
				c0,0-48.17,6.52-78.07,10.04c-60.49,7.14-61.06-26.2-61.64-46.52c-0.65-22.97-14.97-38.55-38.38-38.2"/>
			<path class="st34" d="M1806.96,2166.35c-1.76-1.95-6.46-6.19-10.57-10c-9.07-8.41-32.77-29.03-41.84-34.29
				c-9.07-5.26-33.72-2.98-57.3-3.51c-23.57-0.53-36.61-14.48-42.66-23.95c-6.05-9.46-51.59-79.9-69.73-106.71
				c-18.14-26.81-56.42-24.74-72.18-24.94c-7.59-0.1-14.7-1.56-14.74-9.9c-0.04-8.38,2.1-171.65,2.1-197.46
				c0-16.96-2.98-37.86-10.18-45.72c-4.38-4.77-13.01-5.13-19.62-5.3c-2.1-0.05-8.97-1.54-11.56-3.23"/>
			<path class="st35" d="M931,992.22c0-17.54-1-42.76,19.96-48.72c20.96-5.96,95.95-3.32,114.09-5.08
				c18.13-1.75,69.22,6.28,79.31-30.25c9.66-34.99,4.24-90.83,4.24-104.5c0-13.67-2.06-105.27,3.7-120.9"/>
			<path class="st34" d="M1824.56,2110.79c7.17,6.87,14.4,14.92,19.04,20.26c4.64,5.34,1.02,10.32-1.26,11.83
				c-9.28,6.1-33.73,23.65-33.73,23.65"/>
			<path class="st34" d="M2100.45,1135.2c0,48.33,3.45,103.15-6.91,110.44c-16.71,11.76-49.76,5.33-62.84,5.55
				c-15.22,0.26-98.38-1.38-108.74-1.38c-15.97,0-49.99,20.34-75.75,21.32c-11.54,0.44-167.42-0.49-193.38,0.13
				c-30.32,0.71-68.12-3.69-101.49-11.26c-16.29-3.69-41.65-2.9-72.74-0.82c-38.52,2.58-58.73-4.17-67.6,11.01
				c-5.8,9.92-5.33,13.65-11.86,19.2c-13.32,11.34-63.28,6.68-87.33,6.68c0,0-182.81-0.28-225.93-0.28
				c-18.81,0-33.9,16.49-33.78,30.87c0.02,2.84-0.13,194.82,0,207.51c0.38,36.47,18.43,48.62,47.6,48.97c0,0,74.08-0.33,97.61-0.33
				c23.37,0,24.46,15.96,31.37,29.5c7.37,14.46,12.09,31.83,59.94,31.83c20.15,0,59.24,1.23,59.24,1.23
				c28.8-0.23,48.76,10.89,56.62,30.34c1.95,4.83,6.27,11.73,8.43,21.49c3.51,15.88,2.39,29.83,3.69,43.91
				c0.63,6.82,0.4,12.54,0.78,16.76c0.4,4.49,0.39,8.87,0.31,13.09c-0.32,15.99,0.06,28.46,0.12,39.79
				c0.06,10.95,8.9,17.96,27.38,18.61c30.22,1.05,74.96,0.53,88.86,0.53c13.9,0,33.85,1.05,50.17,18.93
				c16.32,17.87,24.18,25.76,24.18,25.76c6.04,6.83,11.48,15.77,15.11,26.28c3.63,10.51,4.84,25.23,19.34,39.42
				c14.51,14.19,160.08,149.41,160.08,149.41s11.18,11.04,20.96,20.84"/>
			<path class="st34" d="M1834.7,1260.04c-14.08,0.98-156.52,0.96-182.13,1.57c-27.79,0.66-66.46-3.57-99.55-10.99l-5.42-3.56
				c-14.19-3.2-24.12-17.17-39.92-17.12c-22.16,0.07-72.64,0.13-84.01-0.09c-9-0.22-47.55-5.04-61.37,10.59
				c-20.16,22.8-3.66,56.85-11.4,70.87c-1.5,2.71,11.4,29.15-11.63,36.44c-26.73,8.47-113.41,4.45-123.22,4.17
				c-1.13-0.03-142.8-1.81-142.8-1.81c-7.4,0-21.18,1.91-21.18,22.15"/>
			<path class="st34" d="M1181.68,1595.11c5.44,4.46,13.7,13.53,21.66,14.37c3.78,0.4,8.06,0.21,16.31-0.11
				c12.29-0.48,24.99-2.05,33.7-6.79c20.27-11.02,2.75-42.85,15.66-46.45c14.97-4.17,155.46-2.08,155.46-2.08s44.64,0.34,61.03,0
				c50.67-1.04,159.86,0,176.19,0l0,0c32.24,4.17,26.52-39.1,27.64-55.22c1.15-16.67,2.3-69.81-1.15-126.07"/>
		</g>
	</g>
</g>
<g id="Layer_13">
	<g id="Layer_16">
		<path class="st36" d="M1477.49,2070.5c0,9.81-4.03,29.09,31.03,29.09h149.11c12.09,0,34.46-1.58,52.79,14.37
			c17.12,14.89,58.81,50.65,68.06,59.47c1.53,1.46,3.01,2.85,4.45,4.19"/>
		<path class="st36" d="M1477.49,2070.5c0,9.81-4.03,29.09,31.03,29.09h149.11c12.09,0,34.46-1.58,52.79,14.37
			c17.12,14.89,58.81,50.65,68.06,59.47c1.53,1.46,3.01,2.85,4.45,4.19"/>
		<path class="st36" d="M1343.29,1189.47c0,0,2.82,131.4-4.83,153.13c-10.98,31.16-60.45,37.15-88.66,37.15H996.05
			c-10.36,0-17.15,5.81-17.15,16.47v34.52c0,16.47,5.95,25.99,16.67,39.21c18.71,23.09,46.54,22.76,73.8,41.86"/>
		<path class="st36" d="M1343.29,1189.47c0,0,2.82,131.4-4.83,153.13c-10.98,31.16-60.45,37.15-88.66,37.15H996.05
			c-10.36,0-17.15,5.81-17.15,16.47v34.52c0,16.47,4.7,26.9,16.67,39.21c25.33,26.05,40.76,32.94,73.8,41.86
			c37.91,10.24,39.06,7.11,39.15,56.26c0.04,21.19-0.26,56.27,0,72.59c0.36,21.91,0.53,46.87-0.62,81.25
			c-0.8,23.98-1.15,36.4-1.15,69.81c0,22.92-1.15,35.43-1.15,45.84c0,17.71-0.02,29.39,11.52,30.22
			c59.1,4.23,100.58,1.04,111.7,1.04c8.06,0-6.9-54.24,6.91-53.14c78.31,6.25,19.58-37.51,56.43-41.68
			c23.72-2.68,128.08,0.29,134.04-1.61c8.26-2.63,18.03-1.69,26.29,0.34"/>
		<path class="st36" d="M1469.42,1773.9c8.3,3.32,5.43,14.15,8.56,18.62c2.5,3.56,12.24,7.78,19.29,13.25
			c3.4,2.63,7.66,4.78,10.08,5.76c14.11,5.77,42.18,17.23,53.31,21.84c2.83,1.17,9.33,3.84,14.35,6.99
			c13.67,8.6,0.97,35.59,7.34,39.92c7.43,5.06,44.91-6.25,46.06,6.25c1.76,19.13,26.99,59.88,40.51,74.58
			c7.26,7.89,144.47,137.2,144.47,137.2s38.69,38.37,46.54,44.68c5.26,4.22,12.41,14.79,11.14,25.73"/>
		<path class="st36" d="M1239.18,1724"/>
		<path class="st36" d="M1105.59,1707.33c25.33,0,61.96-0.58,133.58,0c128.98,1.04,173.89-10.42,176.19,15.63
			c1.07,12.09,1.15,25.01,5.76,34.38c5.93,12.07,42.86,5.79,51.82,9.38c8.3,3.32,1.9,16.12,5.04,20.59
			c2.5,3.56,12.24,7.78,19.29,13.25c3.4,2.63,7.66,4.78,10.08,5.76c14.11,5.77,42.18,17.23,53.31,21.84
			c2.83,1.17,9.33,3.84,14.35,6.99c13.67,8.6,0.97,40.8,7.34,45.13c7.43,5.06,44.91-5.21,46.06,6.25
			c1.92,19.12,0.3,39.48,13.82,54.18c7.25,7.89,171.16,152.39,171.16,152.39s38.69,38.37,46.54,44.68
			c5.26,4.22,12.41,14.79,11.14,25.73"/>
		<path class="st36" d="M1452.22,1772.66c6.33,1.57,10.58,2.62,17.16,6.75c11.63,7.29,12.06,18.04,12.78,39.59
			c0.11,3.3-2.9,209.97-2.9,209.97l-0.04,0.01c-0.94,18.97-1.51,36.73-1.72,42.92c-0.66,19.56-3.22,47.81,5.24,75.17
			c9.02,29.15,15.99,47.12,15.99,47.12"/>
		<path class="st36" d="M1469.37,1779.41c11.63,7.29,12.06,18.04,12.78,39.59c0.11,3.3-2.9,209.97-2.9,209.97l-0.04,0.01
			c-0.94,18.97-1.51,36.73-1.72,42.92c-0.66,19.56-3.22,47.81,5.24,75.17c9.02,29.15,15.99,47.12,15.99,47.12"/>
		<path class="st36" d="M1595.54,1328.25c-28.28,0.67-36.85-5.21-56.06-19.94c-13.07-10.03-32.31-7.44-45.02-9.16
			c-5.82-0.79-18.6-2.47-23.96-3.19c-4.7-0.63-47.5-1.82-60.75-2.08c-9.09-0.18-12.77,9.43-13.82,16.15
			c-1.42,9.08-10.32,16.5-23.9,26.57c-10.94,8.12-14.31,30.15-36.13,44.61c-9.04,5.99-22.07-0.3-39.15,0
			c-19.14,0.34-36.68-1.45-57.14-1.45"/>
		<path class="st36" d="M1761.61,1314.44"/>
		<line class="st36" x1="1843.13" y1="1312.62" x2="1843.13" y2="1312.62"/>
		<path class="st36" d="M1848.89,1325.12h-21.88c-13.76,0.86-36.85,1.04-65.64,2.08c-45.66,1.65-95.18,0.63-120.92,1.04
			c-64.49,1.04-81.76,2.08-100.97-19.94c-10.62-12.17-32.31-7.44-45.02-9.16c-5.82-0.79-19.03-1.11-24.44-1.11
			c-4.61,0-47.02,0.27-60.27,0.01c-9.09-0.18-29.24-0.85-31.09,5.73c-3.07,10.93,3.84,31.77-7.68,44.27
			c-9.06,9.83-6.29,19.62-22.41,30.04c-7.04,4.55-33.58,3.64-51.82,3.13c-25.67-0.73-36.68-1.45-57.14-1.45"/>
		<path class="st36" d="M1796.27,2227.86c13.92-9.16,53.55-36.47,65.78-44.1c4.45-2.77,9.37-12.54,9.79-19.03"/>
		<path class="st36" d="M1796.27,2227.86c13.92-9.16,53.55-36.47,65.78-44.1c4.45-2.77,9.37-12.54,9.79-19.03"/>
		<path class="st36" d="M1777.96,2172.96c7.93,7.55,6.96,6.35,13.46,12.47c14.52,13.68-18.93,15.99,4.48,37.81"/>
		<path class="st36" d="M1777.96,2172.96c7.93,7.55,6.96,6.35,13.46,12.47c14.52,13.68-18.93,15.99,4.48,37.81"/>
		<path class="st36" d="M1448.46,1766.22"/>
		<path class="st36" d="M1478.79,2090.37c-0.35-1.7,0.2-9.46-0.45-12.07"/>
		<path class="st36" d="M1264.53,1380.88c-2.74-0.86-13.85-2.61-18.77-1.95"/>
		<path class="st36" d="M1473.36,1781.81c3.39,2.95,5.47,6.46,6.78,10.88"/>
		<path class="st36" d="M1155.36,1226.91v111.19l-0.01-0.05c0,6.85-7.74,12.9-14.26,12.9h0.05l-128.45-0.03
			c-18.81,0-33.9,16.49-33.78,30.87v17.78"/>
		<path class="st36" d="M1155.36,1226.91v111.19l-0.01-0.05c0,6.85-7.74,12.9-14.26,12.9h0.05l-128.45-0.03
			c-18.81,0-33.9,16.49-33.78,30.87v17.78"/>
		<line class="st36" x1="980.82" y1="1388.66" x2="980.82" y2="1384.27"/>
		<g id="Layer_17">
			<path class="st37" d="M1488.66,2070.68c0,9.81-4.03,29.09,31.03,29.09h149.11c12.09,0,34.46-1.58,52.79,14.37
				c17.12,14.89,58.81,50.65,68.06,59.47c1.53,1.46,3.01,2.85,4.45,4.19"/>
			<path class="st37" d="M1488.66,2070.68c0,9.81-4.03,29.09,31.03,29.09h149.11c12.09,0,34.46-1.58,52.79,14.37
				c17.12,14.89,58.81,50.65,68.06,59.47c1.53,1.46,3.01,2.85,4.45,4.19"/>
			<path class="st37" d="M1354.46,1189.65c0,0,2.82,131.4-4.83,153.13c-10.98,31.16-60.45,37.15-88.66,37.15h-253.75
				c-10.36,0-17.15,5.81-17.15,16.47v34.52c0,16.47,5.95,25.99,16.67,39.21c18.71,23.09,46.54,22.76,73.8,41.86"/>
			<path class="st37" d="M1354.46,1189.65c0,0,2.82,131.4-4.83,153.13c-10.98,31.16-60.45,37.15-88.66,37.15h-253.75
				c-10.36,0-17.15,5.81-17.15,16.47v34.52c0,16.47,4.7,26.9,16.67,39.21c25.33,26.05,40.76,32.94,73.8,41.86
				c37.91,10.24,39.06,7.11,39.15,56.26c0.04,21.19-0.26,56.27,0,72.59c0.36,21.91,0.53,46.87-0.62,81.25
				c-0.8,23.98-1.15,36.4-1.15,69.81c0,22.92-1.15,35.43-1.15,45.84c0,17.71-0.02,29.39,11.52,30.22
				c59.1,4.23,100.58,1.04,111.7,1.04c8.06,0-6.9-54.24,6.91-53.14c78.31,6.25,19.58-37.51,56.43-41.68
				c23.72-2.68,128.08,0.29,134.04-1.61c8.26-2.63,18.03-1.69,26.29,0.34"/>
			<path class="st37" d="M1480.59,1774.08c8.3,3.32,5.43,14.15,8.56,18.62c2.5,3.56,12.24,7.78,19.29,13.25
				c3.4,2.63,7.66,4.78,10.08,5.76c14.11,5.77,42.18,17.23,53.31,21.84c2.83,1.17,9.33,3.84,14.35,6.99
				c13.67,8.6,0.97,35.59,7.34,39.92c7.43,5.06,44.91-6.25,46.06,6.25c1.76,19.13,26.99,59.88,40.51,74.58
				c7.26,7.89,144.47,137.2,144.47,137.2s38.69,38.37,46.54,44.68c5.26,4.22,12.41,14.79,11.14,25.73"/>
			<path class="st37" d="M1250.34,1724.17"/>
			<path class="st37" d="M1116.76,1707.5c25.33,0,61.96-0.58,133.58,0c128.98,1.04,173.89-10.42,176.19,15.63
				c1.07,12.09,1.15,25.01,5.76,34.38c5.93,12.07,42.86,5.79,51.82,9.38c8.3,3.32,1.9,16.12,5.04,20.59
				c2.5,3.56,12.24,7.78,19.29,13.25c3.4,2.63,7.66,4.78,10.08,5.76c14.11,5.77,42.18,17.23,53.31,21.84
				c2.83,1.17,9.33,3.84,14.35,6.99c13.67,8.6,0.97,40.8,7.34,45.13c7.43,5.06,44.91-5.21,46.06,6.25
				c1.92,19.12,0.3,39.48,13.82,54.18c7.25,7.89,171.16,152.39,171.16,152.39s38.69,38.37,46.54,44.68
				c5.26,4.22,12.41,14.79,11.14,25.73"/>
			<path class="st37" d="M1463.38,1772.84c6.33,1.57,10.58,2.62,17.16,6.75c11.63,7.29,12.06,18.04,12.78,39.59
				c0.11,3.3-2.9,209.97-2.9,209.97l-0.04,0.01c-0.94,18.97-1.51,36.73-1.72,42.92c-0.66,19.56-3.22,47.81,5.24,75.17
				c9.02,29.15,15.99,47.12,15.99,47.12"/>
			<path class="st37" d="M1480.54,1779.58c11.63,7.29,12.06,18.04,12.78,39.59c0.11,3.3-2.9,209.97-2.9,209.97l-0.04,0.01
				c-0.94,18.97-1.51,36.73-1.72,42.92c-0.66,19.56-3.22,47.81,5.24,75.17c9.02,29.15,15.99,47.12,15.99,47.12"/>
			<path class="st37" d="M1606.71,1328.43c-28.28,0.67-36.85-5.21-56.06-19.94c-13.07-10.03-32.31-7.44-45.02-9.16
				c-5.82-0.79-18.6-2.47-23.96-3.19c-4.7-0.63-47.5-1.82-60.75-2.08c-9.09-0.18-12.77,9.43-13.82,16.15
				c-1.42,9.08-10.32,16.5-23.9,26.57c-10.94,8.12-17.42,21.64-39.24,36.1c-9.04,5.99-18.43,13.54-35.7,12.5
				c-25.63-1.55-37.03-5.45-57.49-5.45"/>
			<path class="st37" d="M1772.78,1314.61"/>
			<line class="st37" x1="1854.3" y1="1312.8" x2="1854.3" y2="1312.8"/>
			<path class="st37" d="M1864.48,1323.9h-21.88c-13.76,0.86-36.85,1.04-65.64,2.08c-45.66,1.65-95.18,0.63-120.92,1.04
				c-64.49,1.04-81.76,2.08-100.97-19.94c-10.62-12.17-32.31-7.44-45.02-9.16c-5.82-0.79-19.03-1.11-24.44-1.11
				c-4.61,0-47.02,0.27-60.27,0.01c-9.09-0.18-29.24-0.85-31.09,5.73c-3.07,10.93,3.84,31.77-7.68,44.27
				c-9.06,9.83-9.45,35.7-28.79,39.59c-10.36,2.08-21.7,2.44-44.91-1.04c-25.34-3.8-37.21-6.84-57.67-6.84"/>
			<path class="st37" d="M1807.43,2228.04c13.92-9.16,53.55-36.47,65.78-44.1c4.45-2.77,9.37-12.54,9.79-19.03"/>
			<path class="st37" d="M1807.43,2228.04c13.92-9.16,53.55-36.47,65.78-44.1c4.45-2.77,9.37-12.54,9.79-19.03"/>
			<path class="st37" d="M1789.13,2173.13c7.93,7.55,6.96,6.35,13.46,12.47c14.52,13.68-18.93,15.99,4.48,37.81"/>
			<path class="st37" d="M1789.13,2173.13c7.93,7.55,6.96,6.35,13.46,12.47c14.52,13.68-18.93,15.99,4.48,37.81"/>
			<path class="st37" d="M1459.63,1766.4"/>
			<path class="st37" d="M1489.96,2090.55c-0.35-1.7,0.2-9.46-0.45-12.07"/>
			<path class="st37" d="M1275.7,1381.05c-2.74-0.86-13.85-2.61-18.77-1.95"/>
			<path class="st37" d="M1484.53,1781.99c3.39,2.95,5.47,6.46,6.78,10.88"/>
			<path class="st37" d="M1166.53,1227.08v111.19l-0.01-0.05c0,6.85-7.74,12.9-14.26,12.9h0.05l-128.45-0.03
				c-18.81,0-33.9,16.49-33.78,30.87v17.78"/>
			<path class="st37" d="M1166.53,1227.08v111.19l-0.01-0.05c0,6.85-7.74,12.9-14.26,12.9h0.05l-128.45-0.03
				c-18.81,0-33.9,16.49-33.78,30.87v17.78"/>
			<line class="st37" x1="991.98" y1="1388.84" x2="991.98" y2="1384.44"/>
		</g>
	</g>
</g>
<g id="Layer_12">
	<g>
		<path class="st38" d="M1168.07,1005.25c15.31-2.45,27.81-0.37,47.55-7.73c19.75-7.36,36.75-28.53,36.55-56.42
			c-0.17-24.09-0.25-38.16-1.27-54.8c-1.15-18.75-6.41-52.34-0.9-67.3c1.15-3.13,15-3,27.18-3.26"/>
		<path class="st38" d="M1276.61,815.86c9.39,0.14,27.72,0.67,32.6-11.07c8.51-20.45,2.32-71.52,1.51-97.45
			c-0.81-25.93-2.16-124.41-2.16-124.41"/>
		<path class="st38" d="M1288,813c-8.06,6.25-31.27,2.48-38,6c-7.25,3.79-2.4,19.84-1.94,34.21c0.27,8.4,1.39,18.93,2.43,31.01
			c1.26,14.61,2.43,29.14,2.43,39.14c0,15.72,5.9,42.49-21.06,62.93c-23.71,17.97-64.19,18.52-90.38,21.2l-3.27,0.34
			c-7.51,0.78-8.62,1-13.37,1.78c-8.64,1.42-14.26,5.54-14.64,16.31"/>
		<path class="st38" d="M1106.36,1082.64c2.42-9.11,3.43-51.04,3.84-65.06c0.4-14.02,2.33-48.06-3.45-48.97
			c-26.49-4.17-29.71,15.57-27.64-50.01c1.15-36.47,3.06-79.49,2.66-105.77c-0.4-26.28,1.95-45.31,0.79-81.77
			c-0.69-21.9,0-47.08,0-63.56"/>
		<path class="st39" d="M1218.31,583.82c-0.57,12.71-1.15,26.62-0.89,37.82c0.54,22.92,0.58,40.35,0.58,58.35v27
			c5.03,9.75,21.98,5,52,5c12,0,17.28,11.8,17,28c-0.47,27.39,0.61,46.85-0.42,59.99c-1.46,18.47-0.19,13.37-1.34,18.58"/>
		<path class="st38" d="M1455.81,697.53c8.19,115.47-66.31,66-78.81,82.47c-12.49,16.47,16.53,113,0,113
			c-21,0-34.98,0.98-57.71,2.33C1308,896,1324,956,1311,957c-15.51,1.19-41-12-41.78,49.28c-0.28,21.57-31.22,15.72-46.22,15.72
			c-12.73,0-96,0-113,4c-6.23,1.47-1.17,54.23-1.98,71.4c-0.39,8.4,0,271.6,0,289.12c0,17.52-4.03,47.31-10.07,65.19
			c-6.05,17.87-2.33,59.45,0.86,79.2c2.48,15.36,10.82,73.25,11.23,83.06c0,0,2.68,33.65,3.08,52.58
			c0.4,18.93-5.43,52.42-31.71,55.37c-18.28,2.05-13.14,20.72-12.67,35.43c0.44,13.61,3.34,27.93,0,52.1
			c-6.91,50.01,11.99,41.7,42.61,40.63c29.94-1.04,116.54,6.21,115.16-13.54c-4.61-65.64,5.76-59.39,29.94-60.43
			c39.18-1.69,97.46-0.91,114.01-4.17c3.53-0.69-3.47-12.81,8.06-14.59c61.03-9.38,41.89,13.78,47.21,14.59
			c6.53,0.98,33.4-2.08,43.76,2.08c18.68,7.51,54.25,24.47,64.53,28.83c31.81,13.5,53.84,8.18,69.47,2.05
			c0.53-0.21,1.41-0.53,2.61-0.96c6.09-2.21,20.34-7.39,35.64-15.17c30.32-15.43,71.65-37.53,105.29-56.28"/>
		<path class="st38" d="M1606.38,1803.89c8.13-3.54,29.71-12.92,48.19,4.44c14.94,14.03,115.65,108.39,116.66,109.34"/>
	</g>
</g>
<g id="Layer_24">
	<g class="st26">
		<path class="st40" d="M1171.07,1002.21c15.31-2.45,27.81-0.37,47.55-7.73c19.75-7.36,36.75-28.53,36.55-56.42
			c-0.17-24.09-0.25-38.16-1.27-54.8c-1.15-18.75-6.41-52.34-0.9-67.3c1.15-3.13,15-3,27.18-3.26"/>
		<path class="st40" d="M1279.61,812.83c9.39,0.14,27.72,0.67,32.6-11.07c8.51-20.45,2.32-71.52,1.51-97.45
			c-0.81-25.93-2.16-124.41-2.16-124.41"/>
		<path class="st40" d="M1291,809.96c-8.06,6.25-31.27,2.48-38,6c-7.25,3.79-2.4,19.84-1.94,34.21c0.27,8.4,1.39,18.93,2.43,31.01
			c1.26,14.61,2.43,29.14,2.43,39.14c0,15.72,5.9,42.49-21.06,62.93c-23.71,17.97-64.19,18.52-90.38,21.2l-3.27,0.34
			c-7.51,0.78-8.62,1-13.37,1.78c-8.64,1.42-14.26,5.54-14.64,16.31"/>
		<path class="st40" d="M1109.36,1079.61c2.42-9.11,3.43-51.04,3.84-65.06c0.4-14.02,2.33-48.06-3.45-48.97
			c-26.49-4.17-29.71,15.57-27.64-50.01c1.15-36.47,3.06-79.49,2.66-105.77c-0.4-26.28,1.95-45.31,0.79-81.77
			c-0.69-21.9,0-47.08,0-63.56"/>
		<path class="st41" d="M1221.31,580.78c-0.57,12.71-1.15,26.62-0.89,37.82c0.54,22.92,0.58,40.35,0.58,58.35v27
			c5.03,9.75,21.98,5,52,5c12,0,17.28,11.8,17,28c-0.47,27.39,0.61,46.85-0.42,59.99c-1.46,18.47-0.19,13.37-1.34,18.58"/>
		<path class="st40" d="M1458.81,694.49c8.19,115.47-66.31,66-78.81,82.47c-12.49,16.47,16.53,113,0,113
			c-21,0-34.98,0.98-57.71,2.33c-11.29,0.67,4.71,60.67-8.29,61.67c-15.51,1.19-41-12-41.78,49.28
			c-0.28,21.57-31.22,15.72-46.22,15.72c-12.73,0-96,0-113,4c-6.23,1.47-1.17,54.23-1.98,71.4c-0.39,8.4,0,271.6,0,289.12
			c0,17.52-4.03,47.31-10.07,65.19c-6.05,17.87-2.33,59.45,0.86,79.2c2.48,15.36,10.82,73.25,11.23,83.06c0,0,2.68,33.65,3.08,52.58
			c0.4,18.93-5.43,52.42-31.71,55.37c-18.28,2.05-13.14,20.72-12.67,35.43c0.44,13.61,3.34,27.93,0,52.1
			c-6.91,50.01,11.99,41.7,42.61,40.63c29.94-1.04,116.54,6.21,115.16-13.54c-4.61-65.64,5.76-59.39,29.94-60.43
			c39.18-1.69,97.46-0.91,114.01-4.17c3.53-0.69-3.47-12.81,8.06-14.59c61.03-9.38,41.89,13.78,47.21,14.59
			c6.53,0.98,33.4-2.08,43.76,2.08c18.68,7.51,54.25,24.47,64.53,28.83c31.81,13.5,53.84,8.18,69.47,2.05
			c0.53-0.21,1.41-0.53,2.61-0.96c6.09-2.21,20.34-7.39,35.64-15.17c30.32-15.43,71.65-37.53,105.29-56.28"/>
		<path class="st40" d="M1609.38,1800.86c8.13-3.54,29.71-12.92,48.19,4.44c14.94,14.03,115.65,108.39,116.66,109.34"/>
	</g>
</g>
<g id="Layer_14">
	<path class="st42" d="M1633.83,1399.29"/>
	<path class="st42" d="M1926.09,1081.66c1.15,16.67-0.35,57.15,0,88.56c1.15,102.11-59.45,44.98-143.95,65.64
		c-42.61,10.42-11.92,117.04-25.33,128.16c-13.41,11.11-152.89,1.27-169.28,15.63c-16.39,14.36,11.4,51.86-21.88,58.35
		c-33.28,6.48-65.26,9.41-114,6.1c-43.77-2.97-35.96,2.84-40.93,8.85c-4.22,5.12-4.07,12.51-4.48,23.16
		c-0.23,6.11-0.18,27.86,0.34,33.45c1.33,14.38-0.13,29.43,0.28,40.79c0.58,15.74-5.36,14.68-20.78,13.6
		c-12.46-0.88-13.91,0.12-38.25-0.35c-24.34-0.46-464.3-0.52-464.3-0.52v-0.01c-8.04,0-17.58,7.99-17.58,17.05V1602"/>
</g>
<g id="Layer_18">
	<path class="st43" d="M1917.2,1076.78c1.15,16.67-0.35,57.15,0,88.56c1.15,102.11-59.45,44.98-143.95,65.64
		c-42.61,10.42-11.92,117.04-25.33,128.16c-13.41,11.11-152.89,1.27-169.28,15.63c-16.39,14.36,11.4,51.86-21.88,58.35
		c-33.28,6.48-65.26,9.41-114,6.1c-43.77-2.97-35.96,2.84-40.93,8.86c-4.22,5.12-4.07,12.51-4.48,23.16
		c-0.23,6.11-0.18,27.86,0.34,33.45c1.33,14.38-0.13,29.42,0.28,40.79c0.58,15.74-5.36,14.68-20.78,13.6
		c-12.46-0.88-13.91,0.12-38.25-0.35c-24.34-0.46-464.3-0.52-464.3-0.52v-0.01c-8.04,0-17.58,7.99-17.58,17.05v21.89"/>
</g>
<g id="Layer_15">
	<path class="st44" d="M1121.71,1983.43c-2.3-15.63-2.94-39.17-1.15-51.05c3.45-22.92,1.64-37.69,2.13-51.26"/>
	<path class="st44" d="M1122.69,1881.12c0.55-15.22-1.08-32.25-1.48-38.56c-0.4-6.31,2.6-18.55,29.6-18.55
		c13.5,0,43.68-0.51,43.68-0.51c14.06-1.07,19.74,1.01,29.18,0.48c17.81-1.01-12.3-44.77,15.51-44.77c9.22,0,137.96,3.81,170.36,1.9
		l-0.03-0.03c65.3-3.84,154.72-4.43,175.73-4.43c31.43,0,223.59-13.07,242.4-14.11c16.91-0.94,23.78-2.58,44.91-26.05
		c25.33-28.13,27.03-35.84,14.53-58.62c-12.49-22.78-13.3-26.64,11.69-47.66c24.99-21.03,101.55-89.02,112.03-97.78
		c10.48-8.76,17.64-9.33,27.05-11.36c13.4-2.88,50.78-2.35,59.25-4.43c14.74-3.61,3.45-65.64,3.45-65.64"/>
</g>
<g id="Layer_19">
	<path class="st45" d="M1116.21,1878c0.55-15.22-1.08-32.25-1.48-38.56c-0.4-6.31,2.6-18.55,29.6-18.55
		c13.5,0,43.68-0.51,43.68-0.51c14.06-1.07,19.74,1.01,29.18,0.48c17.81-1.01-12.3-44.77,15.51-44.77c9.22,0,137.96,3.81,170.36,1.9
		l-0.03-0.03c65.3-3.84,154.72-4.43,175.73-4.43c31.43,0,223.59-13.07,242.4-14.11c16.91-0.94,23.78-2.58,44.91-26.05
		c25.33-28.13,27.03-35.84,14.53-58.62c-12.49-22.78-13.3-26.64,11.69-47.66c24.99-21.03,101.55-89.02,112.03-97.78
		c10.48-8.76,17.64-9.33,27.05-11.36c13.4-2.88,50.78-2.35,59.25-4.43c14.74-3.61,3.45-65.64,3.45-65.64"/>
	<circle cx="1353.37" cy="1778.98" r="12.5"/>
	<circle class="st14" cx="1353.36" cy="1778.92" r="7.91"/>
	<circle cx="1354.12" cy="1779.28" r="12.5"/>
	<circle class="st14" cx="1354.11" cy="1779.22" r="7.91"/>
</g>
<g id="Layer_2">
	<g>
		<g>
			<path class="st46" d="M873.37,1314.92c0-17.87,24.71-36.7,50.7-36.7s66.17,0.05,75.24,0.05c17.66,0,37.69-5.9,37.69-26.35
				v-106.32c0.07-16.02-24.11-29.57-44.84-12.9"/>
			<path class="st46" d="M1036.93,1188.85c0-24.88,6.91-34.38,23.61-43.24c23.6-12.52,66.15-6.21,91.69-5.6
				c43.76,1.04,62.19,5.21,79.46-4.17c24.06-13.06,22.23-40.07,21.88-77.1c-0.17-17.87-2.42-66.54-1.15-85.44
				c2.3-34.38,52.97-4.17,51.82-30.22c-1.26-28.59,1.15-107.46,1.15-130.24c0-27.09-40.83-20.04-56.43-18.75
				c-25.33,2.08-26.46-23.96-25.33-55.22c0.95-26.31,0.03-80.39,0-75.02"/>
			<path class="st46" d="M1628.98,1909.98c13.82-1.04,28.68,2.73,43.79,16.93c15.11,14.19,116.67,109.34,116.67,109.34"/>
			<path class="st46" d="M1063.56,1943.32c-12.67,0-37.65,6.86-36.85-21.88c0.94-34.1,1.23-110.82,1.01-115.96"/>
			<path class="st46" d="M923.07,770.12c-1.15,63.56,2.56,114.39-2.3,159.41c-2.95,27.28-29.94,7.29-42.61,19.8
				c-11.57,11.42-7.92,48.18-7.92,63.43c0,12.45-0.14,20.04-0.23,34.86"/>
			<path class="st46" d="M870,1068.96c-0.33,56.41,2.91,209.19,3.17,223.95c0.27,14.71,1.39,95.06-1.93,183.63
				c-2.3,61.47,116.31-7.29,115.02,63.95c-0.61,34,0.91,76.72-0.01,130.93c-1.01,59.35,0,64.6-2.16,95.81
				c-2.3,33.34,46.06,4.17,44,31.65c-1.81,24.15,16.57,30.35,34.45,33.86c13.24,2.6,32.49,2.21,55.13,2.21
				c27.64,0,23.03,34.38,23.03,40.63c0,5.79-4.49,22.56,3.45,33.34c11.52,15.63,60.69,12.5,89.82,12.5c28.79,0,78.91,0.58,111.7,0
				c58.73-1.04,2.39-31.48,63.34-34.38c65.64-3.13,12.67,59.39,52.97,59.39c61.42,0,80.61,3.13,92.13,1.04
				c32.83-5.94,5.76-22.92,24.18-37.51c9.69-7.67,126.03,6.17,145.1-2.08c26.49-11.46,17.29-80.52,19.58-118.78
				c2.3-38.55,96.92-22.51,219.95-27.09"/>
		</g>
		<path class="st46" d="M870.02,1047.51c0,2.69,0,19.18,0,21.88"/>
	</g>
	<g id="Layer_4">
		<g id="Layer_3">
			<g class="st47">
				<g>
					<path class="st48" d="M866.31,1312.83c0-17.87,24.87-36.7,51.03-36.7s66.6,0.05,75.72,0.05c17.77,0,37.93-5.9,37.93-26.35
						v-106.32c0.07-16.02-24.27-29.57-45.13-12.89"/>
					<path class="st48" d="M1030.93,1186.76c0-24.88,6.95-34.38,23.76-43.24c23.75-12.52,66.58-6.21,92.29-5.6
						c44.04,1.04,62.59,5.21,79.97-4.17c24.21-13.06,22.38-40.07,22.02-77.1c-0.17-17.87-2.43-66.54-1.16-85.44
						c2.32-34.38,53.32-4.17,52.16-30.22c-1.27-28.59,0.01-107.47-0.34-130.24c-0.35-22.92-41.88-15.87-57.58-14.59
						c-25.5,2.08-25.5-28.13-24.37-59.39c0.96-26.31,0.03-80.39,0-75.02"/>
					<path class="st48" d="M1626.82,1907.9c13.91-1.04,28.86,2.73,44.07,16.93c15.21,14.19,117.42,109.34,117.42,109.34"/>
					<path class="st48" d="M1057.73,1941.24c-12.75,0-37.89,6.86-37.09-21.88c0.95-34.1,1.23-110.82,1.01-115.96"/>
					<path class="st48" d="M916.33,768.04c-1.16,63.56,2.58,114.39-2.32,159.41c-2.97,27.28-30.14,7.29-42.88,19.8
						c-11.64,11.42-7.97,48.18-7.97,63.43c0,12.45-0.14,20.04-0.23,34.86"/>
					<path class="st48" d="M862.92,1066.88c-0.33,56.41,2.93,209.19,3.2,223.95c0.27,14.71,1.4,95.06-1.94,183.63
						c-2.32,61.47,117.06-7.29,115.77,63.95c-0.62,34,0.91,76.72-0.01,130.93c-1.01,59.35,0,64.6-2.17,95.81
						c-2.32,33.34,46.36,4.17,44.29,31.65c-1.82,24.15,16.68,30.35,34.67,33.86c13.33,2.6,32.7,2.21,55.49,2.21
						c27.82,0,23.18,34.38,23.18,40.63c0,5.79-4.52,22.56,3.48,33.34c11.59,15.63,61.08,12.5,90.4,12.5c28.98,0,79.42,0.58,112.43,0
						c59.11-1.04,2.4-31.48,63.75-34.38c66.07-3.13,12.75,59.39,53.32,59.39c61.82,0,81.13,3.13,92.72,1.04
						c33.04-5.94,5.8-22.92,24.34-37.51c9.75-7.67,126.84,6.17,146.04-2.08c26.66-11.46,17.4-80.52,19.7-118.78
						c2.32-38.55,97.55-22.51,221.38-27.09"/>
				</g>
				<path class="st48" d="M862.94,1045.43c0,2.69,0,19.18,0,21.88"/>
			</g>
		</g>
	</g>
</g>
<g id="Layer_25">
	<circle class="st13" cx="1641.79" cy="1909.5" r="24.5"/>
	<circle class="st14" cx="1641.5" cy="1909.5" r="15.5"/>
</g>
<g id="Layer_29">
	<circle class="st13" cx="1110.1" cy="1766.39" r="24.5"/>
	<circle class="st14" cx="1109.81" cy="1766.39" r="15.5"/>
</g>
<g id="Layer_30">
	<circle class="st13" cx="942.29" cy="1236.16" r="24.5"/>
	<circle class="st14" cx="942" cy="1236.16" r="15.5"/>
</g>
<g id="Layer_31">
	<circle class="st15" cx="1108.5" cy="1312.5" r="24.5"/>
	<circle class="st14" cx="1108.5" cy="1312.5" r="15.5"/>
</g>
<g id="Layer_32">
	<circle class="st15" cx="1100.5" cy="1517.5" r="24.5"/>
	<circle class="st14" cx="1100.5" cy="1517.5" r="15.5"/>
</g>
<g id="Layer_33">
	<circle cx="1132.5" cy="947.5" r="12.5"/>
	<circle class="st14" cx="1132.5" cy="947.45" r="7.91"/>
	<circle cx="1082.5" cy="767.5" r="12.5"/>
	<circle class="st14" cx="1082.5" cy="767.45" r="7.91"/>
	<circle cx="1108.5" cy="1025.5" r="12.5"/>
	<circle class="st14" cx="1108.5" cy="1025.45" r="7.91"/>
	<circle cx="1108.5" cy="1132.5" r="12.5"/>
	<circle class="st14" cx="1108.5" cy="1132.45" r="7.91"/>
	<circle cx="1081.5" cy="872.5" r="12.5"/>
	<circle class="st14" cx="1081.5" cy="872.45" r="7.91"/>
	<circle cx="1108.14" cy="1218.2" r="12.5"/>
	<circle class="st14" cx="1108.14" cy="1218.14" r="7.91"/>
	<circle cx="868.14" cy="965.2" r="12.5"/>
	<circle class="st14" cx="868.14" cy="965.14" r="7.91"/>
	<circle cx="868.14" cy="1061.2" r="12.5"/>
	<circle class="st14" cx="868.14" cy="1061.14" r="7.91"/>
	<circle cx="870.14" cy="1162.2" r="12.5"/>
	<circle class="st14" cx="870.14" cy="1162.14" r="7.91"/>
	<circle cx="918.14" cy="880.2" r="12.5"/>
	<circle class="st14" cx="918.14" cy="880.14" r="7.91"/>
	<circle cx="924.14" cy="778.2" r="12.5"/>
	<circle class="st14" cx="924.14" cy="778.14" r="7.91"/>
	<circle cx="869.14" cy="1299.2" r="12.5"/>
	<circle class="st14" cx="869.14" cy="1299.14" r="7.91"/>
	<circle cx="868.14" cy="1413.2" r="12.5"/>
	<circle class="st14" cx="868.14" cy="1413.14" r="7.91"/>
	<circle cx="924.14" cy="1505.2" r="12.5"/>
	<circle class="st14" cx="924.14" cy="1505.14" r="7.91"/>
	<circle cx="930.14" cy="1405.2" r="12.5"/>
	<circle class="st14" cx="930.14" cy="1405.14" r="7.91"/>
	<circle cx="1058.14" cy="1387.2" r="12.5"/>
	<circle class="st14" cx="1058.14" cy="1387.14" r="7.91"/>
	<circle cx="996.14" cy="1362.2" r="12.5"/>
	<circle class="st14" cx="996.14" cy="1362.14" r="7.91"/>
	<circle cx="840.14" cy="890.2" r="12.5"/>
	<circle class="st14" cx="840.14" cy="890.14" r="7.91"/>
	<circle cx="835.14" cy="800.2" r="12.5"/>
	<circle class="st14" cx="835.14" cy="800.14" r="7.91"/>
	<circle cx="1351.14" cy="1251.2" r="12.5"/>
	<circle class="st14" cx="1351.14" cy="1251.14" r="7.91"/>
	<circle cx="1205.14" cy="1388.2" r="12.5"/>
	<circle class="st14" cx="1205.14" cy="1388.14" r="7.91"/>
	<circle cx="1407.14" cy="1310.2" r="12.5"/>
	<circle class="st14" cx="1407.14" cy="1310.14" r="7.91"/>
	<circle cx="1105.14" cy="1432.2" r="12.5"/>
	<circle class="st14" cx="1105.14" cy="1432.14" r="7.91"/>
	<circle cx="992.14" cy="1461.2" r="12.5"/>
	<circle class="st14" cx="992.14" cy="1461.14" r="7.91"/>
	<circle cx="866.14" cy="1594.2" r="12.5"/>
	<circle class="st14" cx="866.14" cy="1594.14" r="7.91"/>
	<circle cx="979.14" cy="1566.2" r="12.5"/>
	<circle class="st14" cx="979.14" cy="1566.14" r="7.91"/>
	<circle cx="1105.14" cy="1598.2" r="12.5"/>
	<circle class="st14" cx="1105.14" cy="1598.14" r="7.91"/>
	<circle cx="1217.14" cy="1566.2" r="12.5"/>
	<circle class="st14" cx="1217.14" cy="1566.14" r="7.91"/>
	<circle cx="1407.14" cy="1566.2" r="12.5"/>
	<circle class="st14" cx="1407.14" cy="1566.14" r="7.91"/>
	<circle cx="1406.14" cy="1450.2" r="12.5"/>
	<circle class="st14" cx="1406.14" cy="1450.14" r="7.91"/>
	<circle cx="1252.95" cy="970.85" r="12.5"/>
	<circle class="st14" cx="1252.95" cy="970.79" r="7.91"/>
	<circle cx="1307.95" cy="810.85" r="12.5"/>
	<circle class="st14" cx="1307.95" cy="810.79" r="7.91"/>
	<circle cx="1226.95" cy="713.85" r="12.5"/>
	<circle class="st14" cx="1226.95" cy="713.79" r="7.91"/>
	<circle cx="1219.95" cy="595.85" r="12.5"/>
	<circle class="st14" cx="1219.95" cy="595.79" r="7.91"/>
	<circle cx="1448.95" cy="705.85" r="12.5"/>
	<circle class="st14" cx="1448.95" cy="705.79" r="7.91"/>
	<circle cx="1364.95" cy="892.85" r="12.5"/>
	<circle class="st14" cx="1364.95" cy="892.79" r="7.91"/>
	<circle cx="1568.95" cy="1434.85" r="12.5"/>
	<circle class="st14" cx="1568.95" cy="1434.79" r="7.91"/>
</g>
<g id="Layer_28">
	<text transform="matrix(1 0 0 1 790.9329 1762.202)"><tspan x="0" y="0" class="st11 st12">Stromsburg Research in</tspan><tspan x="0" y="28.8" class="st11 st12">Black Culture</tspan></text>
	<text transform="matrix(1 0 0 1 1148.9329 1538.202)" class="st11 st12">Americas Society</text>
	<text transform="matrix(1 0 0 1 682.9329 1253.202)"><tspan x="0" y="0" class="st11 st12">The Studio Museum</tspan><tspan x="0" y="28.8" class="st11 st12">in Harlem</tspan></text>
	<text transform="matrix(1 0 0 1 1144.9329 1286.202)" class="st11 st12">El Museo del Barrio</text>
	<text transform="matrix(1 0 0 1 1681.9329 1948.202)"><tspan x="0" y="0" class="st11 st12">Museum of Contemporary </tspan><tspan x="0" y="28.8" class="st11 st12">African Diaspora</tspan></text>
	<text transform="matrix(1 0 0 1 1704.9329 3995.2021)"><tspan x="0" y="0" class="st11 st12">African American</tspan><tspan x="0" y="28.8" class="st11 st12">Cultural Centers</tspan><tspan x="0" y="57.6" class="st11 st12">&amp; Institutiones</tspan></text>
	<text transform="matrix(1 0 0 1 1720.9329 3878.2021)" class="st11 st12">Stations</text>
	<text transform="matrix(1 0 0 1 2044.9329 3993.2021)"><tspan x="0" y="0" class="st11 st12">Indigenous Latin-African </tspan><tspan x="0" y="28.8" class="st11 st12">Caribbean Cultural Centers</tspan><tspan x="0" y="57.6" class="st11 st12"> &amp; Institutions </tspan></text>
</g>
<g id="Layer_26">
	<text transform="matrix(1 0 0 1 1683.0251 1917.7594)" class="st21 st23">Atlantic Barclay Center</text>
	<text transform="matrix(1 0 0 1 683.0251 1228.7594)" class="st21 st23">125th Street</text>
	<text transform="matrix(1 0 0 1 1145.0251 1262.7594)" class="st21 st23">103rd Street</text>
	<text transform="matrix(1 0 0 1 791.0251 1734.7594)" class="st21 st23">125th Street</text>
	<text transform="matrix(1 0 0 1 1149.0251 1513.7594)" class="st21 st23">68th Street</text>
	<text transform="matrix(0.7452 0 0 1 1917.1613 1730.4641)" class="st21 st22">BROOKLYN</text>
	<circle cx="1510.73" cy="1674.24" r="12.5"/>
	<circle class="st14" cx="1510.72" cy="1674.19" r="7.91"/>
	<circle cx="1641.5" cy="1594.5" r="12.5"/>
	<circle class="st14" cx="1641.72" cy="1594.19" r="7.91"/>
	<circle cx="1769.73" cy="1637.24" r="12.5"/>
	<circle class="st14" cx="1769.72" cy="1637.19" r="7.91"/>
	<circle cx="1893.54" cy="1591.95" r="12.5"/>
	<circle class="st14" cx="1893.54" cy="1591.89" r="7.91"/>
	<circle cx="2004.54" cy="1516.95" r="12.5"/>
	<circle class="st14" cx="2004.54" cy="1516.89" r="7.91"/>
	<circle cx="2127.54" cy="1401.79" r="12.5"/>
	<circle class="st14" cx="2127.54" cy="1401.74" r="7.91"/>
	<circle cx="2097.54" cy="1516.79" r="12.5"/>
	<circle class="st14" cx="2097.54" cy="1516.74" r="7.91"/>
	<circle cx="2140.54" cy="1629.79" r="12.5"/>
	<circle class="st14" cx="2140.54" cy="1629.74" r="7.91"/>
	<circle cx="2197.54" cy="1787.79" r="12.5"/>
	<circle class="st14" cx="2197.54" cy="1787.74" r="7.91"/>
	<circle cx="1770.54" cy="1636.95" r="12.5"/>
	<circle class="st14" cx="1770.54" cy="1636.89" r="7.91"/>
	<circle cx="1199.13" cy="1617.64" r="12.5"/>
	<circle class="st14" cx="1199.13" cy="1617.59" r="7.91"/>
	<circle cx="1399.13" cy="1666.64" r="12.5"/>
	<circle class="st14" cx="1399.13" cy="1666.59" r="7.91"/>
	<circle cx="1117.13" cy="1696.64" r="12.5"/>
	<circle class="st14" cx="1117.13" cy="1696.59" r="7.91"/>
	<circle cx="1503.13" cy="1738.64" r="12.5"/>
	<circle class="st14" cx="1503.13" cy="1738.59" r="7.91"/>
	<circle cx="1491.13" cy="1840.64" r="12.5"/>
	<circle class="st14" cx="1491.13" cy="1840.59" r="7.91"/>
	<circle cx="1230.13" cy="1781.64" r="12.5"/>
	<circle class="st14" cx="1230.13" cy="1781.59" r="7.91"/>
	<circle cx="1121.13" cy="1842.64" r="12.5"/>
	<circle class="st14" cx="1121.13" cy="1842.59" r="7.91"/>
</g>
<g id="Layer_34">
	<circle cx="1580.95" cy="1375.85" r="12.5"/>
	<circle class="st14" cx="1580.95" cy="1375.79" r="7.91"/>
	<circle cx="1750.02" cy="1363" r="12.5"/>
	<circle class="st14" cx="1750.02" cy="1362.95" r="7.91"/>
	<circle cx="1762.02" cy="1240" r="12.5"/>
	<circle class="st14" cx="1762.02" cy="1239.95" r="7.91"/>
	<circle cx="1907.02" cy="1221" r="12.5"/>
	<circle class="st14" cx="1907.02" cy="1220.95" r="7.91"/>
	<circle cx="1921.02" cy="1083" r="12.5"/>
	<circle class="st14" cx="1921.02" cy="1082.95" r="7.91"/>
	<circle cx="1568.46" cy="1268.28" r="12.5"/>
	<circle class="st14" cx="1568.45" cy="1268.23" r="7.91"/>
	<circle cx="1694.46" cy="1388.28" r="12.5"/>
	<circle class="st14" cx="1694.45" cy="1388.23" r="7.91"/>
	<circle cx="1696.46" cy="1473.28" r="12.5"/>
	<circle class="st14" cx="1696.45" cy="1473.23" r="7.91"/>
	<circle cx="1691.46" cy="1553.28" r="12.5"/>
	<circle class="st14" cx="1691.45" cy="1553.23" r="7.91"/>
	<circle cx="1551.47" cy="1560.99" r="12.5"/>
	<circle class="st14" cx="1551.46" cy="1560.94" r="7.91"/>
</g>
<g id="Layer_35">
	<circle cx="1209.26" cy="1918.22" r="12.5"/>
	<circle class="st14" cx="1209.26" cy="1918.17" r="7.91"/>
	<circle cx="1026.26" cy="1929.22" r="12.5"/>
	<circle class="st14" cx="1026.26" cy="1929.17" r="7.91"/>
	<circle cx="1377.26" cy="1897.22" r="12.5"/>
	<circle class="st14" cx="1377.26" cy="1897.17" r="7.91"/>
	<circle cx="1021.26" cy="1803.22" r="12.5"/>
	<circle class="st14" cx="1021.26" cy="1803.17" r="7.91"/>
	<circle cx="1871.26" cy="2171.22" r="12.5"/>
	<circle class="st14" cx="1871.26" cy="2171.17" r="7.91"/>
	<circle cx="1737.26" cy="2124.22" r="12.5"/>
	<circle class="st14" cx="1737.26" cy="2124.17" r="7.91"/>
	<circle cx="1489.26" cy="2090.22" r="12.5"/>
	<circle class="st14" cx="1489.26" cy="2090.17" r="7.91"/>
	<circle cx="1498.26" cy="1945.22" r="12.5"/>
	<circle class="st14" cx="1498.26" cy="1945.17" r="7.91"/>
	<circle cx="1623.26" cy="2036.22" r="12.5"/>
	<circle class="st14" cx="1623.26" cy="2036.17" r="7.91"/>
	<circle cx="1787.26" cy="2030.22" r="12.5"/>
	<circle class="st14" cx="1787.26" cy="2030.17" r="7.91"/>
	<circle cx="1896.26" cy="2105.22" r="12.5"/>
	<circle class="st14" cx="1896.26" cy="2105.17" r="7.91"/>
	<circle cx="1670.26" cy="1832.22" r="12.5"/>
	<circle class="st14" cx="1670.26" cy="1832.17" r="7.91"/>
	<circle cx="1578.26" cy="1781.22" r="12.5"/>
	<circle class="st14" cx="1578.26" cy="1781.17" r="7.91"/>
	<circle cx="1859.26" cy="1757.22" r="12.5"/>
	<circle class="st14" cx="1859.26" cy="1757.17" r="7.91"/>
	<circle cx="1846.26" cy="1271.22" r="12.5"/>
	<circle class="st14" cx="1846.26" cy="1271.17" r="7.91"/>
	<circle cx="2001.26" cy="1297.22" r="12.5"/>
	<circle class="st14" cx="2001.26" cy="1297.17" r="7.91"/>
	<circle cx="2093.26" cy="1251.22" r="12.5"/>
	<circle class="st14" cx="2093.26" cy="1251.17" r="7.91"/>
	<circle cx="2106.26" cy="1142.22" r="12.5"/>
	<circle class="st14" cx="2106.26" cy="1142.17" r="7.91"/>
	<circle cx="2134.26" cy="1287.22" r="12.5"/>
	<circle class="st14" cx="2134.26" cy="1287.17" r="7.91"/>
	<circle cx="713.26" cy="2209.91" r="12.5"/>
	<circle class="st14" cx="713.26" cy="2209.86" r="7.91"/>
	<circle cx="693.63" cy="2287.48" r="12.5"/>
	<circle class="st14" cx="693.62" cy="2287.43" r="7.91"/>
	<circle cx="684.63" cy="2401.48" r="12.5"/>
	<circle class="st14" cx="684.62" cy="2401.43" r="7.91"/>
	<circle cx="622.63" cy="2446.48" r="12.5"/>
	<circle class="st14" cx="622.62" cy="2446.43" r="7.91"/>
	<circle cx="552.63" cy="2495.48" r="12.5"/>
	<circle class="st14" cx="552.62" cy="2495.43" r="7.91"/>
	<circle cx="490.63" cy="2407.48" r="12.5"/>
	<circle class="st14" cx="490.62" cy="2407.43" r="7.91"/>
</g>
</svg>
